SplineFontDB: 3.2
FontName: icon
FullName: icon
FamilyName: icon
Weight: Book
Copyright: SIL Open Font License (OFL)
Version: 1.0
ItalicAngle: 0
UnderlinePosition: -119
UnderlineWidth: 35
Ascent: 819
Descent: 205
InvalidEm: 0
sfntRevision: 0x00010000
LayerCount: 2
Layer: 0 1 "Back" 1
Layer: 1 1 "Fore" 0
XUID: [1021 167 -1403765506 21574]
StyleMap: 0x0040
FSType: 0
OS2Version: 4
OS2_WeightWidthSlopeOnly: 0
OS2_UseTypoMetrics: 0
CreationTime: 1656919848
ModificationTime: 1656983897
PfmFamily: 81
TTFWeight: 400
TTFWidth: 5
LineGap: 102
VLineGap: 0
Panose: 0 0 0 0 0 0 0 0 0 0
OS2TypoAscent: 799
OS2TypoAOffset: 0
OS2TypoDescent: -215
OS2TypoDOffset: 0
OS2TypoLinegap: 102
OS2WinAscent: 799
OS2WinAOffset: 0
OS2WinDescent: 215
OS2WinDOffset: 0
HheadAscent: 799
HheadAOffset: 0
HheadDescent: -215
HheadDOffset: 0
OS2SubXSize: 650
OS2SubYSize: 700
OS2SubXOff: 47
OS2SubYOff: 140
OS2SupXSize: 650
OS2SupYSize: 700
OS2SupXOff: -164
OS2SupYOff: 480
OS2StrikeYSize: 49
OS2StrikeYPos: 258
OS2CapHeight: 799
OS2XHeight: 573
OS2Vendor: 'Bird'
OS2CodePages: 00000001.00000000
OS2UnicodeRanges: 00000001.00000000.00000000.00000000
MarkAttachClasses: 1
DEI: 91125
TtTable: prep
PUSHW_1
 0
CALL
SVTCA[y-axis]
PUSHW_3
 1
 4
 2
CALL
SVTCA[x-axis]
PUSHW_3
 5
 4
 2
CALL
SVTCA[x-axis]
PUSHW_8
 5
 88
 72
 56
 40
 24
 0
 8
CALL
PUSHW_8
 6
 44
 36
 28
 20
 12
 0
 8
CALL
PUSHW_8
 7
 30
 24
 19
 14
 7
 0
 8
CALL
PUSHW_8
 8
 22
 18
 14
 10
 7
 0
 8
CALL
SVTCA[y-axis]
PUSHW_8
 1
 88
 72
 56
 40
 24
 0
 8
CALL
PUSHW_8
 2
 44
 36
 28
 20
 12
 0
 8
CALL
PUSHW_8
 3
 30
 24
 19
 14
 7
 0
 8
CALL
PUSHW_8
 4
 22
 18
 14
 10
 7
 0
 8
CALL
SVTCA[y-axis]
PUSHW_3
 9
 1
 7
CALL
PUSHW_1
 0
DUP
RCVT
RDTG
ROUND[Black]
RTG
WCVTP
EndTTInstrs
TtTable: fpgm
PUSHW_1
 0
FDEF
MPPEM
PUSHW_1
 9
LT
IF
PUSHB_2
 1
 1
INSTCTRL
EIF
PUSHW_1
 511
SCANCTRL
PUSHW_1
 68
SCVTCI
PUSHW_2
 9
 3
SDS
SDB
ENDF
PUSHW_1
 1
FDEF
DUP
DUP
RCVT
ROUND[Black]
WCVTP
PUSHB_1
 1
ADD
ENDF
PUSHW_1
 2
FDEF
PUSHW_1
 1
LOOPCALL
POP
ENDF
PUSHW_1
 3
FDEF
DUP

StartChar: .notdef
Encoding: 65536 -1 0
Width: 543
VWidth: 922
Flags: W
LayerCount: 2
Fore
SplineSet
118 0 m 1,0,-1
 122 0 l 2,1,2
 128 0 128 0 138 0 c 2,3,-1
 148 0 l 2,4,5
 152 0 152 0 154 0 c 2,6,-1
 168 0 l 2,7,8
 176 0 176 0 184 0 c 2,9,-1
 204 0 l 2,10,11
 208 0 208 0 212 0 c 2,12,-1
 236 0 l 2,13,14
 240 0 240 0 244 0 c 2,15,-1
 424 0 l 1,16,-1
 424 -12 l 2,17,18
 424 -14 424 -14 424 -16 c 2,19,-1
 424 -27 l 2,20,21
 424 -29 424 -29 424 -31 c 2,22,-1
 424 -36 l 2,23,24
 424 -39 424 -39 424 -41 c 2,25,-1
 424 -51 l 1,26,-1
 428 -51 l 2,27,28
 432 -51 432 -51 436 -51 c 2,29,-1
 448 -51 l 2,30,31
 460 -51 460 -51 470 -51 c 2,32,-1
 476 -51 l 1,33,-1
 476 -116 l 2,34,35
 476 -117 476 -117 476 -119 c 2,36,-1
 476 -127 l 2,37,38
 476 -129 476 -129 476 -130 c 2,39,-1
 476 -133 l 2,40,41
 476 -134 476 -134 476 -135 c 2,42,-1
 476 -138 l 2,43,44
 476 -139 476 -139 476 -140 c 2,45,-1
 476 -146 l 2,46,47
 476 -148 476 -148 476 -149 c 2,48,-1
 476 -153 l 1,49,-1
 424 -153 l 1,50,-1
 424 -51 l 1,51,-1
 408 -51 l 2,52,53
 398 -51 398 -51 388 -51 c 2,54,-1
 362 -51 l 2,55,56
 356 -51 356 -51 350 -51 c 2,57,-1
 320 -51 l 2,58,59
 312 -51 312 -51 306 -51 c 2,60,-1
 118 -51 l 1,61,-1
 118 0 l 1,0,-1
66 -153 m 1,62,-1
 66 -51 l 1,63,-1
 118 -51 l 1,64,-1
 118 -120 l 2,65,66
 118 -123 118 -123 118 -126 c 2,67,-1
 118 -141 l 2,68,69
 118 -144 118 -144 118 -147 c 2,70,-1
 118 -153 l 1,71,-1
 134 -153 l 2,72,73
 144 -153 144 -153 154 -153 c 2,74,-1
 182 -153 l 2,75,76
 186 -153 186 -153 192 -153 c 2,77,-1
 224 -153 l 2,78,79
 230 -153 230 -153 236 -153 c 2,80,-1
 424 -153 l 1,81,-1
 424 -164 l 2,82,83
 424 -168 424 -168 424 -172 c 2,84,-1
 424 -204 l 1,85,-1
 420 -204 l 2,86,87
 414 -204 414 -204 404 -204 c 2,88,-1
 394 -204 l 2,89,90
 392 -204 392 -204 388 -204 c 2,91,-1
 374 -204 l 2,92,93
 366 -204 366 -204 360 -204 c 2,94,-1
 338 -204 l 2,95,96
 334 -204 334 -204 330 -204 c 2,97,-1
 308 -204 l 2,98,99
 304 -204 304 -204 298 -204 c 2,100,-1
 118 -204 l 1,101,-1
 118 -201 l 2,102,103
 118 -196 118 -196 118 -190 c 2,104,-1
 118 -184 l 2,105,106
 118 -182 118 -182 118 -180 c 2,107,-1
 118 -170 l 2,108,109
 118 -166 118 -166 118 -160 c 2,110,-1
 118 -153 l 1,111,-1
 116 -153 l 2,112,113
 112 -153 112 -153 106 -153 c 2,114,-1
 94 -153 l 2,115,116
 82 -153 82 -153 72 -153 c 2,117,-1
 66 -153 l 1,62,-1
EndSplineSet
EndChar

StartChar: uniE900
Encoding: 59648 59648 2
Width: 1024
VWidth: 880
GlyphClass: 2
Flags: W
LayerCount: 2
Fore
SplineSet
1024 226 m 1,0,1
 896 325 896 325 512 623 c 1,2,3
 384 524 384 524 0 226 c 1,4,-1
 0 388 l 1,5,6
 128 487 128 487 512 785 c 1,7,8
 640 686 640 686 1024 388 c 0,9,10
 1024 386 1024 386 1024 384 c 2,11,-1
 1024 380 l 2,12,13
 1024 375 1024 375 1024 370 c 2,14,-1
 1024 359 l 2,15,16
 1024 357 1024 357 1024 355 c 2,17,-1
 1024 351 l 2,18,19
 1024 349 1024 349 1024 347 c 2,20,-1
 1024 342 l 2,21,22
 1024 340 1024 340 1024 338 c 2,23,-1
 1024 333 l 2,24,25
 1024 331 1024 331 1024 328 c 2,26,-1
 1024 226 l 1,0,1
896 240 m 0,27,28
 896 237 896 237 896 234 c 2,29,-1
 896 227 l 2,30,31
 896 224 896 224 896 221 c 2,32,-1
 896 213 l 2,33,34
 896 212 896 212 896 210 c 2,35,-1
 896 190 l 2,36,37
 896 186 896 186 896 181 c 2,38,-1
 896 172 l 2,39,40
 896 161 896 161 896 148 c 2,41,-1
 896 132 l 2,42,43
 896 127 896 127 896 122 c 2,44,-1
 896 110 l 2,45,46
 896 105 896 105 896 99 c 2,47,-1
 896 -68 l 2,48,49
 896 -76 896 -76 896 -84 c 2,50,-1
 896 -126 l 2,51,52
 896 -135 896 -135 896 -144 c 1,53,-1
 640 -144 l 1,54,-1
 640 -110 l 2,55,56
 640 -108 640 -108 640 -105 c 2,57,-1
 640 -99 l 2,58,59
 640 -94 640 -94 640 -89 c 2,60,-1
 640 -76 l 2,61,62
 640 -71 640 -71 640 -65 c 2,63,-1
 640 -58 l 2,64,65
 640 -54 640 -54 640 -50 c 2,66,-1
 640 112 l 1,67,68
 637 112 637 112 634 112 c 2,69,-1
 627 112 l 2,70,71
 620 112 620 112 612 112 c 2,72,-1
 595 112 l 2,73,74
 592 112 592 112 588 112 c 2,75,-1
 582 112 l 2,76,77
 579 112 579 112 575 112 c 2,78,-1
 568 112 l 2,79,80
 565 112 565 112 561 112 c 2,81,-1
 554 112 l 2,82,83
 550 112 550 112 546 112 c 2,84,-1
 384 112 l 1,85,86
 384 108 384 108 384 104 c 2,87,-1
 384 97 l 2,88,89
 384 91 384 91 384 84 c 2,90,-1
 384 78 l 2,91,92
 384 76 384 76 384 73 c 2,93,-1
 384 57 l 2,94,95
 384 54 384 54 384 51 c 2,96,-1
 384 40 l 2,97,98
 384 37 384 37 384 33 c 2,99,-1
 384 26 l 2,100,101
 384 22 384 22 384 18 c 2,102,-1
 384 -104 l 2,103,104
 384 -110 384 -110 384 -115 c 2,105,-1
 384 -144 l 1,106,-1
 128 -144 l 1,107,108
 128 -140 128 -140 128 -135 c 2,109,-1
 128 -125 l 2,110,111
 128 -114 128 -114 128 -102 c 2,112,-1
 128 -76 l 2,113,114
 128 -72 128 -72 128 -67 c 2,115,-1
 128 -57 l 2,116,117
 128 -52 128 -52 128 -47 c 2,118,-1
 128 -36 l 2,119,120
 128 -31 128 -31 128 -26 c 2,121,-1
 128 -14 l 2,122,123
 128 -9 128 -9 128 -3 c 2,124,-1
 128 240 l 1,125,126
 147 254 147 254 174 275 c 2,127,-1
 183 281 l 2,128,129
 198 292 198 292 215 305 c 2,130,-1
 236 321 l 2,131,132
 339 398 339 398 512 528 c 1,133,134
 544 504 544 504 599 463 c 2,135,-1
 614 451 l 1,136,137
 719 373 719 373 896 240 c 0,27,28
EndSplineSet
EndChar

StartChar: uniE901
Encoding: 59649 59649 3
Width: 1024
VWidth: 880
GlyphClass: 2
Flags: W
LayerCount: 2
Fore
SplineSet
512 784 m 1,0,1
 518 778 518 778 524 772 c 2,2,-1
 645 651 l 2,3,4
 655 641 655 641 666 630 c 2,5,-1
 770 526 l 2,6,7
 778 518 778 518 787 509 c 2,8,-1
 957 339 l 2,9,10
 963 333 963 333 968 328 c 2,11,-1
 1020 276 l 2,12,13
 1022 274 1022 274 1024 272 c 1,14,-1
 976 224 l 2,15,16
 974 222 974 222 972 220 c 2,17,-1
 928 176 l 1,18,19
 927 177 927 177 926 178 c 2,20,-1
 903 201 l 2,21,22
 901 203 901 203 899 205 c 2,23,-1
 880 224 l 2,24,25
 878 226 878 226 876 228 c 2,26,-1
 860 244 l 2,27,28
 859 245 859 245 858 246 c 2,29,-1
 845 259 l 2,30,31
 844 260 844 260 842 262 c 2,32,-1
 833 271 l 2,33,34
 832 272 l 1,35,36
 832 253 832 253 832 234 c 2,37,-1
 832 147 l 2,38,39
 832 123 832 123 832 100 c 2,40,-1
 832 28 l 2,41,42
 832 22 832 22 832 15 c 2,43,-1
 832 -107 l 2,44,45
 832 -111 832 -111 832 -115 c 2,46,-1
 832 -144 l 1,47,-1
 576 -144 l 1,48,-1
 576 -102 l 2,49,50
 576 -98 576 -98 576 -94 c 2,51,-1
 576 -72 l 2,52,53
 576 -68 576 -68 576 -64 c 2,54,-1
 576 -58 l 2,55,56
 576 -54 576 -54 576 -51 c 2,57,-1
 576 -44 l 2,58,59
 576 -41 576 -41 576 -38 c 2,60,-1
 576 -32 l 2,61,62
 576 -28 576 -28 576 -25 c 2,63,-1
 576 48 l 1,64,65
 570 48 570 48 564 48 c 2,66,-1
 556 48 l 2,67,68
 549 48 549 48 543 48 c 2,69,-1
 538 48 l 2,70,71
 535 48 535 48 533 48 c 2,72,-1
 521 48 l 2,73,74
 518 48 518 48 516 48 c 2,75,-1
 509 48 l 2,76,77
 507 48 507 48 505 48 c 2,78,-1
 501 48 l 2,79,80
 499 48 499 48 497 48 c 2,81,-1
 456 48 l 2,82,83
 454 48 454 48 453 48 c 2,84,-1
 448 48 l 1,85,86
 448 44 448 44 448 39 c 2,87,-1
 448 31 l 2,88,89
 448 26 448 26 448 22 c 2,90,-1
 448 14 l 2,91,92
 448 12 448 12 448 10 c 2,93,-1
 448 -10 l 2,94,95
 448 -13 448 -13 448 -17 c 2,96,-1
 448 -24 l 2,97,98
 448 -33 448 -33 448 -42 c 2,99,-1
 448 -52 l 2,100,101
 448 -55 448 -55 448 -58 c 2,102,-1
 448 -64 l 2,103,104
 448 -68 448 -68 448 -71 c 2,105,-1
 448 -129 l 2,106,107
 448 -131 448 -131 448 -133 c 2,108,-1
 448 -141 l 2,109,110
 448 -143 448 -143 448 -144 c 1,111,-1
 192 -144 l 1,112,113
 192 -125 192 -125 192 -106 c 2,114,-1
 192 -79 l 2,115,116
 192 -57 192 -57 192 -36 c 2,117,-1
 192 -19 l 2,118,119
 192 -11 192 -11 192 -3 c 2,120,-1
 192 36 l 2,121,122
 192 43 192 43 192 51 c 2,123,-1
 192 72 l 2,124,125
 192 79 192 79 192 86 c 2,126,-1
 192 100 l 2,127,128
 192 106 192 106 192 113 c 2,129,-1
 192 247 l 2,130,131
 192 251 192 251 192 255 c 2,132,-1
 192 272 l 1,133,-1
 96 176 l 1,134,135
 95 177 95 177 94 178 c 2,136,-1
 71 201 l 2,137,138
 69 203 69 203 67 205 c 2,139,-1
 48 224 l 2,140,141
 46 226 46 226 44 228 c 2,142,-1
 1 271 l 2,143,144
 0 272 l 1,145,-1
 512 784 l 1,0,1
512 368 m 256,146,147
 539 368 539 368 558 386 c 0,148,149
 576 405 576 405 576 432 c 256,150,151
 576 459 576 459 558 478 c 0,152,153
 539 496 539 496 512 496 c 256,154,155
 485 496 485 496 466 478 c 0,156,157
 448 459 448 459 448 432 c 256,158,159
 448 405 448 405 466 386 c 0,160,161
 485 368 485 368 512 368 c 256,146,147
EndSplineSet
EndChar

StartChar: uniE902
Encoding: 59650 59650 4
Width: 1024
VWidth: 880
GlyphClass: 2
Flags: W
LayerCount: 2
Fore
SplineSet
1024 208 m 0,0,1
 1024 207 1024 207 1024 206 c 2,2,-1
 1024 204 l 2,3,4
 1024 202 1024 202 1024 200 c 2,5,-1
 1024 196 l 2,6,7
 1024 195 l 1,8,-1
 1024 194 l 2,9,10
 1024 193 1024 193 1024 192 c 2,11,-1
 1024 191 l 1,12,13
 1024 190 l 2,14,-1
 1024 189 l 1,15,16
 1024 188 l 2,17,-1
 1024 176 l 1,18,-1
 986 176 l 2,19,20
 983 176 983 176 981 176 c 2,21,-1
 976 176 l 2,22,23
 972 176 972 176 969 176 c 2,24,-1
 960 176 l 2,25,26
 956 176 956 176 953 176 c 2,27,-1
 949 176 l 2,28,29
 947 176 947 176 945 176 c 2,30,-1
 896 176 l 1,31,32
 896 169 896 169 896 161 c 2,33,-1
 896 147 l 2,34,35
 896 140 896 140 896 133 c 2,36,-1
 896 119 l 2,37,38
 896 116 896 116 896 113 c 2,39,-1
 896 80 l 2,40,41
 896 74 896 74 896 68 c 2,42,-1
 896 55 l 2,43,44
 896 40 896 40 896 26 c 2,45,-1
 896 10 l 2,46,47
 896 4 896 4 896 -1 c 2,48,-1
 896 -11 l 2,49,50
 896 -17 896 -17 896 -22 c 2,51,-1
 896 -119 l 2,52,53
 896 -122 896 -122 896 -125 c 2,54,-1
 896 -139 l 2,55,56
 896 -142 896 -142 896 -144 c 1,57,-1
 576 -144 l 1,58,-1
 576 -102 l 2,59,60
 576 -98 576 -98 576 -94 c 2,61,-1
 576 -72 l 2,62,63
 576 -68 576 -68 576 -64 c 2,64,-1
 576 -58 l 2,65,66
 576 -54 576 -54 576 -51 c 2,67,-1
 576 -44 l 2,68,69
 576 -41 576 -41 576 -38 c 2,70,-1
 576 -32 l 2,71,72
 576 -28 576 -28 576 -25 c 2,73,-1
 576 48 l 1,74,75
 570 48 570 48 564 48 c 2,76,-1
 556 48 l 2,77,78
 549 48 549 48 543 48 c 2,79,-1
 538 48 l 2,80,81
 535 48 535 48 533 48 c 2,82,-1
 521 48 l 2,83,84
 518 48 518 48 516 48 c 2,85,-1
 509 48 l 2,86,87
 507 48 507 48 505 48 c 2,88,-1
 501 48 l 2,89,90
 499 48 499 48 497 48 c 2,91,-1
 456 48 l 2,92,93
 454 48 454 48 453 48 c 2,94,-1
 448 48 l 1,95,96
 448 44 448 44 448 39 c 2,97,-1
 448 31 l 2,98,99
 448 26 448 26 448 22 c 2,100,-1
 448 14 l 2,101,102
 448 12 448 12 448 10 c 2,103,-1
 448 -10 l 2,104,105
 448 -13 448 -13 448 -17 c 2,106,-1
 448 -24 l 2,107,108
 448 -33 448 -33 448 -42 c 2,109,-1
 448 -52 l 2,110,111
 448 -55 448 -55 448 -58 c 2,112,-1
 448 -64 l 2,113,114
 448 -68 448 -68 448 -71 c 2,115,-1
 448 -129 l 2,116,117
 448 -131 448 -131 448 -133 c 2,118,-1
 448 -141 l 2,119,120
 448 -143 448 -143 448 -144 c 1,121,-1
 128 -144 l 1,122,123
 128 -133 128 -133 128 -122 c 2,124,-1
 128 -101 l 2,125,126
 128 -80 128 -80 128 -61 c 2,127,-1
 128 -23 l 2,128,129
 128 -17 128 -17 128 -11 c 2,130,-1
 128 0 l 2,131,132
 128 6 128 6 128 11 c 2,133,-1
 128 22 l 2,134,135
 128 28 128 28 128 33 c 2,136,-1
 128 43 l 2,137,138
 128 49 128 49 128 54 c 2,139,-1
 128 176 l 1,140,-1
 90 176 l 2,141,142
 87 176 87 176 85 176 c 2,143,-1
 80 176 l 2,144,145
 76 176 76 176 73 176 c 2,146,-1
 64 176 l 2,147,148
 60 176 60 176 57 176 c 2,149,-1
 53 176 l 2,150,151
 51 176 51 176 49 176 c 2,152,-1
 0 176 l 1,153,-1
 0 208 l 1,154,-1
 512 720 l 1,155,156
 514 718 514 718 516 716 c 2,157,-1
 562 670 l 2,158,159
 566 666 566 666 570 662 c 2,160,-1
 648 584 l 2,161,162
 650 582 650 582 653 579 c 2,163,-1
 679 553 l 2,164,165
 681 551 681 551 683 549 c 2,166,-1
 703 529 l 1,167,168
 704 528 l 1,169,-1
 704 553 l 2,170,171
 704 561 704 561 704 570 c 2,172,-1
 704 576 l 2,173,174
 704 579 704 579 704 582 c 2,175,-1
 704 588 l 2,176,177
 704 593 704 593 704 597 c 2,178,-1
 704 608 l 2,179,180
 704 611 704 611 704 614 c 2,181,-1
 704 622 l 2,182,183
 704 624 704 624 704 627 c 2,184,-1
 704 675 l 2,185,186
 704 677 704 677 704 678 c 2,187,-1
 704 688 l 1,188,189
 710 688 710 688 716 688 c 2,190,-1
 742 688 l 2,191,192
 750 688 750 688 757 688 c 2,193,-1
 779 688 l 2,194,195
 781 688 781 688 783 688 c 2,196,-1
 821 688 l 2,197,198
 822 688 822 688 823 688 c 2,199,-1
 832 688 l 1,200,201
 832 675 832 675 832 662 c 2,202,-1
 832 602 l 2,203,204
 832 585 832 585 832 569 c 2,205,-1
 832 519 l 2,206,207
 832 515 832 515 832 510 c 2,208,-1
 832 426 l 2,209,210
 832 423 832 423 832 420 c 2,211,-1
 832 400 l 2,212,213
 834 398 834 398 836 396 c 2,214,-1
 882 350 l 2,215,216
 886 346 886 346 890 342 c 2,217,-1
 929 303 l 2,218,219
 932 300 932 300 935 297 c 2,220,-1
 968 264 l 2,221,222
 970 262 970 262 973 259 c 2,223,-1
 999 233 l 2,224,225
 1001 231 1001 231 1003 229 c 2,226,-1
 1023 209 l 1,227,228
 1024 208 l 0,0,1
EndSplineSet
EndChar

StartChar: uniE903
Encoding: 59651 59651 5
Width: 1024
VWidth: 880
GlyphClass: 2
Flags: W
LayerCount: 2
Fore
SplineSet
0 -208 m 1,0,-1
 0 816 l 1,1,2
 35 816 35 816 69 816 c 2,3,-1
 91 816 l 2,4,5
 134 816 134 816 174 816 c 2,6,-1
 193 816 l 2,7,8
 203 816 203 816 212 816 c 2,9,-1
 231 816 l 2,10,11
 253 816 253 816 275 816 c 2,12,-1
 300 816 l 2,13,14
 308 816 308 816 316 816 c 2,15,-1
 467 816 l 2,16,17
 469 816 469 816 472 816 c 2,18,-1
 481 816 l 2,19,20
 484 816 484 816 486 816 c 2,21,-1
 512 816 l 1,22,23
 512 781 512 781 512 746 c 2,24,-1
 512 679 l 2,25,26
 512 612 512 612 512 550 c 2,27,-1
 512 430 l 2,28,29
 512 411 512 411 512 392 c 2,30,-1
 512 355 l 2,31,32
 512 336 512 336 512 319 c 2,33,-1
 512 284 l 2,34,35
 512 266 512 266 512 249 c 2,36,-1
 512 216 l 2,37,38
 512 200 512 200 512 184 c 2,39,-1
 512 -208 l 1,40,41
 494 -208 494 -208 477 -208 c 2,42,-1
 443 -208 l 2,43,44
 410 -208 410 -208 379 -208 c 2,45,-1
 319 -208 l 2,46,47
 309 -208 309 -208 300 -208 c 2,48,-1
 281 -208 l 2,49,50
 272 -208 272 -208 263 -208 c 2,51,-1
 246 -208 l 2,52,53
 237 -208 237 -208 229 -208 c 2,54,-1
 212 -208 l 2,55,56
 204 -208 204 -208 196 -208 c 2,57,-1
 0 -208 l 1,0,-1
64 688 m 1,58,59
 64 684 64 684 64 679 c 2,60,-1
 64 671 l 2,61,62
 64 663 64 663 64 655 c 2,63,-1
 64 640 l 2,64,65
 64 637 64 637 64 635 c 2,66,-1
 64 630 l 2,67,68
 64 628 64 628 64 626 c 2,69,-1
 64 621 l 2,70,71
 64 619 64 619 64 617 c 2,72,-1
 64 613 l 2,73,74
 64 611 64 611 64 609 c 2,75,-1
 64 560 l 1,76,-1
 84 560 l 2,77,78
 91 560 91 560 97 560 c 2,79,-1
 102 560 l 2,80,81
 105 560 105 560 107 560 c 2,82,-1
 112 560 l 2,83,84
 116 560 116 560 119 560 c 2,85,-1
 128 560 l 2,86,87
 131 560 131 560 133 560 c 2,88,-1
 139 560 l 2,89,90
 141 560 141 560 143 560 c 2,91,-1
 182 560 l 2,92,93
 183 560 183 560 184 560 c 2,94,-1
 192 560 l 1,95,96
 192 566 192 566 192 572 c 2,97,-1
 192 580 l 2,98,99
 192 587 192 587 192 593 c 2,100,-1
 192 598 l 2,101,102
 192 601 192 601 192 603 c 2,103,-1
 192 615 l 2,104,105
 192 618 192 618 192 620 c 2,106,-1
 192 627 l 2,107,108
 192 629 192 629 192 631 c 2,109,-1
 192 635 l 2,110,111
 192 637 192 637 192 639 c 2,112,-1
 192 680 l 2,113,114
 192 682 192 682 192 683 c 2,115,-1
 192 688 l 1,116,117
 186 688 186 688 180 688 c 2,118,-1
 154 688 l 2,119,120
 146 688 146 688 139 688 c 2,121,-1
 117 688 l 2,122,123
 115 688 115 688 113 688 c 2,124,-1
 75 688 l 2,125,126
 74 688 74 688 73 688 c 2,127,-1
 64 688 l 1,58,59
320 688 m 1,128,-1
 320 650 l 2,129,130
 320 647 320 647 320 645 c 2,131,-1
 320 640 l 2,132,133
 320 636 320 636 320 633 c 2,134,-1
 320 624 l 2,135,136
 320 620 320 620 320 617 c 2,137,-1
 320 613 l 2,138,139
 320 611 320 611 320 609 c 2,140,-1
 320 560 l 1,141,-1
 340 560 l 2,142,143
 347 560 347 560 353 560 c 2,144,-1
 358 560 l 2,145,146
 361 560 361 560 363 560 c 2,147,-1
 368 560 l 2,148,149
 372 560 372 560 375 560 c 2,150,-1
 384 560 l 2,151,152
 387 560 387 560 389 560 c 2,153,-1
 395 560 l 2,154,155
 397 560 397 560 399 560 c 2,156,-1
 438 560 l 2,157,158
 439 560 439 560 440 560 c 2,159,-1
 448 560 l 1,160,161
 448 563 448 563 448 566 c 2,162,-1
 448 572 l 2,163,164
 448 574 448 574 448 577 c 2,165,-1
 448 583 l 2,166,167
 448 584 448 584 448 585 c 2,168,-1
 448 598 l 2,169,170
 448 601 448 601 448 603 c 2,171,-1
 448 608 l 2,172,173
 448 614 448 614 448 620 c 2,174,-1
 448 627 l 2,175,176
 448 629 448 629 448 631 c 2,177,-1
 448 635 l 2,178,179
 448 637 448 637 448 639 c 2,180,-1
 448 678 l 2,181,182
 448 679 448 679 448 680 c 2,183,-1
 448 686 l 2,184,185
 448 687 448 687 448 688 c 1,186,187
 442 688 442 688 436 688 c 2,188,-1
 410 688 l 2,189,190
 402 688 402 688 395 688 c 2,191,-1
 373 688 l 2,192,193
 371 688 371 688 369 688 c 2,194,-1
 331 688 l 2,195,196
 330 688 330 688 329 688 c 2,197,-1
 320 688 l 1,128,-1
576 496 m 1,198,-1
 747 496 l 2,199,200
 754 496 754 496 762 496 c 2,201,-1
 776 496 l 2,202,203
 787 496 787 496 799 496 c 2,204,-1
 830 496 l 2,205,206
 842 496 842 496 855 496 c 2,207,-1
 872 496 l 2,208,209
 881 496 881 496 890 496 c 2,210,-1
 1024 496 l 1,211,-1
 1024 472 l 2,212,213
 1024 471 1024 471 1024 469 c 2,214,-1
 1024 467 l 2,215,216
 1024 466 1024 466 1024 465 c 2,217,-1
 1024 463 l 2,218,219
 1024 462 1024 462 1024 461 c 2,220,-1
 1024 459 l 2,221,222
 1024 457 1024 457 1024 456 c 2,223,-1
 1024 449 l 2,224,225
 1024 445 1024 445 1024 441 c 2,226,-1
 1024 436 l 2,227,228
 1024 434 1024 434 1024 432 c 1,229,-1
 853 432 l 2,230,231
 846 432 846 432 838 432 c 2,232,-1
 824 432 l 2,233,234
 817 432 817 432 809 432 c 2,235,-1
 794 432 l 2,236,237
 786 432 786 432 778 432 c 2,238,-1
 762 432 l 2,239,240
 753 432 753 432 745 432 c 2,241,-1
 692 432 l 2,242,243
 683 432 683 432 674 432 c 2,244,-1
 576 432 l 1,245,-1
 576 456 l 2,246,247
 576 457 576 457 576 459 c 2,248,-1
 576 461 l 2,249,250
 576 462 576 462 576 463 c 2,251,-1
 576 465 l 2,252,253
 576 466 576 466 576 467 c 2,254,-1
 576 469 l 2,255,256
 576 471 576 471 576 472 c 2,257,-1
 576 479 l 2,258,259
 576 481 576 481 576 482 c 2,260,-1
 576 496 l 1,198,-1
64 432 m 1,261,262
 64 428 64 428 64 423 c 2,263,-1
 64 415 l 2,264,265
 64 407 64 407 64 399 c 2,266,-1
 64 384 l 2,267,268
 64 381 64 381 64 379 c 2,269,-1
 64 374 l 2,270,271
 64 372 64 372 64 370 c 2,272,-1
 64 365 l 2,273,274
 64 363 64 363 64 361 c 2,275,-1
 64 357 l 2,276,277
 64 355 64 355 64 353 c 2,278,-1
 64 304 l 1,279,280
 67 304 67 304 70 304 c 2,281,-1
 76 304 l 2,282,283
 78 304 78 304 81 304 c 2,284,-1
 87 304 l 2,285,286
 88 304 88 304 89 304 c 2,287,-1
 102 304 l 2,288,289
 105 304 105 304 107 304 c 2,290,-1
 112 304 l 2,291,292
 118 304 118 304 124 304 c 2,293,-1
 131 304 l 2,294,295
 133 304 133 304 135 304 c 2,296,-1
 139 304 l 2,297,298
 141 304 141 304 143 304 c 2,299,-1
 182 304 l 2,300,301
 183 304 183 304 184 304 c 2,302,-1
 190 304 l 2,303,304
 191 304 191 304 192 304 c 1,305,306
 192 310 192 310 192 316 c 2,307,-1
 192 324 l 2,308,309
 192 331 192 331 192 337 c 2,310,-1
 192 342 l 2,311,312
 192 345 192 345 192 347 c 2,313,-1
 192 359 l 2,314,315
 192 362 192 362 192 364 c 2,316,-1
 192 371 l 2,317,318
 192 373 192 373 192 375 c 2,319,-1
 192 379 l 2,320,321
 192 381 192 381 192 383 c 2,322,-1
 192 424 l 2,323,324
 192 426 192 426 192 427 c 2,325,-1
 192 432 l 1,326,-1
 164 432 l 2,327,328
 161 432 161 432 159 432 c 2,329,-1
 144 432 l 2,330,331
 141 432 141 432 139 432 c 2,332,-1
 134 432 l 2,333,334
 132 432 132 432 130 432 c 2,335,-1
 125 432 l 2,336,337
 123 432 123 432 121 432 c 2,338,-1
 117 432 l 2,339,340
 115 432 115 432 113 432 c 2,341,-1
 64 432 l 1,261,262
320 432 m 1,342,-1
 320 394 l 2,343,344
 320 391 320 391 320 389 c 2,345,-1
 320 384 l 2,346,347
 320 380 320 380 320 377 c 2,348,-1
 320 368 l 2,349,350
 320 364 320 364 320 361 c 2,351,-1
 320 357 l 2,352,353
 320 355 320 355 320 353 c 2,354,-1
 320 304 l 1,355,356
 323 304 323 304 326 304 c 2,357,-1
 332 304 l 2,358,359
 334 304 334 304 337 304 c 2,360,-1
 343 304 l 2,361,362
 344 304 344 304 345 304 c 2,363,-1
 358 304 l 2,364,365
 361 304 361 304 363 304 c 2,366,-1
 368 304 l 2,367,368
 374 304 374 304 380 304 c 2,369,-1
 387 304 l 2,370,371
 389 304 389 304 391 304 c 2,372,-1
 395 304 l 2,373,374
 397 304 397 304 399 304 c 2,375,-1
 438 304 l 2,376,377
 439 304 439 304 440 304 c 2,378,-1
 446 304 l 2,379,380
 447 304 447 304 448 304 c 1,381,382
 448 307 448 307 448 310 c 2,383,-1
 448 316 l 2,384,385
 448 318 448 318 448 321 c 2,386,-1
 448 327 l 2,387,388
 448 328 448 328 448 329 c 2,389,-1
 448 342 l 2,390,391
 448 345 448 345 448 347 c 2,392,-1
 448 352 l 2,393,394
 448 358 448 358 448 364 c 2,395,-1
 448 371 l 2,396,397
 448 373 448 373 448 375 c 2,398,-1
 448 379 l 2,399,400
 448 381 448 381 448 383 c 2,401,-1
 448 422 l 2,402,403
 448 423 448 423 448 424 c 2,404,-1
 448 430 l 2,405,406
 448 431 448 431 448 432 c 1,407,-1
 420 432 l 2,408,409
 417 432 417 432 415 432 c 2,410,-1
 400 432 l 2,411,412
 397 432 397 432 395 432 c 2,413,-1
 390 432 l 2,414,415
 388 432 388 432 386 432 c 2,416,-1
 381 432 l 2,417,418
 379 432 379 432 377 432 c 2,419,-1
 373 432 l 2,420,421
 371 432 371 432 369 432 c 2,422,-1
 320 432 l 1,342,-1
576 -208 m 1,423,-1
 576 -82 l 2,424,425
 576 -70 576 -70 576 -58 c 2,426,-1
 576 9 l 2,427,428
 576 20 576 20 576 31 c 2,429,-1
 576 51 l 2,430,431
 576 62 576 62 576 72 c 2,432,-1
 576 92 l 2,433,434
 576 101 576 101 576 111 c 2,435,-1
 576 129 l 2,436,437
 576 139 576 139 576 148 c 2,438,-1
 576 368 l 1,439,440
 592 368 592 368 607 368 c 2,441,-1
 636 368 l 2,442,443
 665 368 665 368 692 368 c 2,444,-1
 745 368 l 2,445,446
 753 368 753 368 762 368 c 2,447,-1
 778 368 l 2,448,449
 786 368 786 368 794 368 c 2,450,-1
 809 368 l 2,451,452
 817 368 817 368 824 368 c 2,453,-1
 838 368 l 2,454,455
 846 368 846 368 853 368 c 2,456,-1
 1024 368 l 1,457,458
 1024 348 1024 348 1024 329 c 2,459,-1
 1024 291 l 2,460,461
 1024 253 1024 253 1024 218 c 2,462,-1
 1024 151 l 2,463,464
 1024 140 1024 140 1024 129 c 2,465,-1
 1024 109 l 2,466,467
 1024 98 1024 98 1024 88 c 2,468,-1
 1024 68 l 2,469,470
 1024 59 1024 59 1024 49 c 2,471,-1
 1024 31 l 2,472,473
 1024 21 1024 21 1024 12 c 2,474,-1
 1024 -208 l 1,475,476
 1020 -208 1020 -208 1015 -208 c 2,477,-1
 1007 -208 l 2,478,479
 999 -208 999 -208 991 -208 c 2,480,-1
 976 -208 l 2,481,482
 973 -208 973 -208 971 -208 c 2,483,-1
 966 -208 l 2,484,485
 964 -208 964 -208 962 -208 c 2,486,-1
 957 -208 l 2,487,488
 955 -208 955 -208 953 -208 c 2,489,-1
 949 -208 l 2,490,491
 947 -208 947 -208 945 -208 c 2,492,-1
 896 -208 l 1,493,494
 896 -202 896 -202 896 -196 c 2,495,-1
 896 -185 l 2,496,497
 896 -179 896 -179 896 -174 c 2,498,-1
 896 -163 l 2,499,500
 896 -160 896 -160 896 -157 c 2,501,-1
 896 -131 l 2,502,503
 896 -126 896 -126 896 -121 c 2,504,-1
 896 -111 l 2,505,506
 896 -99 896 -99 896 -88 c 2,507,-1
 896 -75 l 2,508,509
 896 -71 896 -71 896 -66 c 2,510,-1
 896 -58 l 2,511,512
 896 -54 896 -54 896 -50 c 2,513,-1
 896 28 l 2,514,515
 896 30 896 30 896 33 c 2,516,-1
 896 44 l 2,517,518
 896 46 896 46 896 48 c 1,519,520
 887 48 887 48 879 48 c 2,521,-1
 866 48 l 2,522,523
 856 48 856 48 846 48 c 2,524,-1
 838 48 l 2,525,526
 835 48 835 48 831 48 c 2,527,-1
 813 48 l 2,528,529
 809 48 809 48 806 48 c 2,530,-1
 796 48 l 2,531,532
 793 48 793 48 790 48 c 2,533,-1
 784 48 l 2,534,535
 780 48 780 48 777 48 c 2,536,-1
 715 48 l 2,537,538
 714 48 714 48 712 48 c 2,539,-1
 704 48 l 1,540,-1
 704 8 l 2,541,542
 704 -6 704 -6 704 -19 c 2,543,-1
 704 -29 l 2,544,545
 704 -34 704 -34 704 -39 c 2,546,-1
 704 -49 l 2,547,548
 704 -56 704 -56 704 -63 c 2,549,-1
 704 -81 l 2,550,551
 704 -85 704 -85 704 -89 c 2,552,-1
 704 -102 l 2,553,554
 704 -106 704 -106 704 -110 c 2,555,-1
 704 -188 l 2,556,557
 704 -190 704 -190 704 -193 c 2,558,-1
 704 -208 l 1,559,560
 700 -208 700 -208 695 -208 c 2,561,-1
 687 -208 l 2,562,563
 679 -208 679 -208 671 -208 c 2,564,-1
 656 -208 l 2,565,566
 653 -208 653 -208 651 -208 c 2,567,-1
 646 -208 l 2,568,569
 644 -208 644 -208 642 -208 c 2,570,-1
 637 -208 l 2,571,572
 635 -208 635 -208 633 -208 c 2,573,-1
 629 -208 l 2,574,575
 627 -208 627 -208 625 -208 c 2,576,-1
 576 -208 l 1,423,-1
64 176 m 1,577,578
 64 172 64 172 64 167 c 2,579,-1
 64 159 l 2,580,581
 64 151 64 151 64 143 c 2,582,-1
 64 128 l 2,583,584
 64 125 64 125 64 123 c 2,585,-1
 64 118 l 2,586,587
 64 116 64 116 64 114 c 2,588,-1
 64 109 l 2,589,590
 64 107 64 107 64 105 c 2,591,-1
 64 101 l 2,592,593
 64 99 64 99 64 97 c 2,594,-1
 64 48 l 1,595,596
 70 48 70 48 76 48 c 2,597,-1
 84 48 l 2,598,599
 91 48 91 48 97 48 c 2,600,-1
 102 48 l 2,601,602
 105 48 105 48 107 48 c 2,603,-1
 119 48 l 2,604,605
 122 48 122 48 124 48 c 2,606,-1
 131 48 l 2,607,608
 133 48 133 48 135 48 c 2,609,-1
 139 48 l 2,610,611
 141 48 141 48 143 48 c 2,612,-1
 184 48 l 2,613,614
 186 48 186 48 187 48 c 2,615,-1
 192 48 l 1,616,617
 192 54 192 54 192 60 c 2,618,-1
 192 68 l 2,619,620
 192 75 192 75 192 81 c 2,621,-1
 192 86 l 2,622,623
 192 89 192 89 192 91 c 2,624,-1
 192 103 l 2,625,626
 192 106 192 106 192 108 c 2,627,-1
 192 115 l 2,628,629
 192 117 192 117 192 119 c 2,630,-1
 192 123 l 2,631,632
 192 125 192 125 192 127 c 2,633,-1
 192 168 l 2,634,635
 192 170 192 170 192 171 c 2,636,-1
 192 176 l 1,637,-1
 154 176 l 2,638,639
 151 176 151 176 149 176 c 2,640,-1
 144 176 l 2,641,642
 140 176 140 176 137 176 c 2,643,-1
 128 176 l 2,644,645
 124 176 124 176 121 176 c 2,646,-1
 117 176 l 2,647,648
 115 176 115 176 113 176 c 2,649,-1
 64 176 l 1,577,578
320 176 m 1,650,-1
 320 138 l 2,651,652
 320 135 320 135 320 133 c 2,653,-1
 320 128 l 2,654,655
 320 124 320 124 320 121 c 2,656,-1
 320 112 l 2,657,658
 320 108 320 108 320 105 c 2,659,-1
 320 101 l 2,660,661
 320 99 320 99 320 97 c 2,662,-1
 320 48 l 1,663,664
 326 48 326 48 332 48 c 2,665,-1
 340 48 l 2,666,667
 347 48 347 48 353 48 c 2,668,-1
 358 48 l 2,669,670
 361 48 361 48 363 48 c 2,671,-1
 375 48 l 2,672,673
 378 48 378 48 380 48 c 2,674,-1
 387 48 l 2,675,676
 389 48 389 48 391 48 c 2,677,-1
 395 48 l 2,678,679
 397 48 397 48 399 48 c 2,680,-1
 440 48 l 2,681,682
 442 48 442 48 443 48 c 2,683,-1
 448 48 l 1,684,685
 448 51 448 51 448 54 c 2,686,-1
 448 60 l 2,687,688
 448 62 448 62 448 65 c 2,689,-1
 448 71 l 2,690,691
 448 72 448 72 448 73 c 2,692,-1
 448 86 l 2,693,694
 448 89 448 89 448 91 c 2,695,-1
 448 96 l 2,696,697
 448 102 448 102 448 108 c 2,698,-1
 448 115 l 2,699,700
 448 117 448 117 448 119 c 2,701,-1
 448 123 l 2,702,703
 448 125 448 125 448 127 c 2,704,-1
 448 166 l 2,705,706
 448 167 448 167 448 168 c 2,707,-1
 448 174 l 2,708,709
 448 175 448 175 448 176 c 1,710,-1
 410 176 l 2,711,712
 407 176 407 176 405 176 c 2,713,-1
 400 176 l 2,714,715
 396 176 396 176 393 176 c 2,716,-1
 384 176 l 2,717,718
 380 176 380 176 377 176 c 2,719,-1
 373 176 l 2,720,721
 371 176 371 176 369 176 c 2,722,-1
 320 176 l 1,650,-1
EndSplineSet
EndChar

StartChar: uniE904
Encoding: 59652 59652 6
Width: 1024
VWidth: 880
GlyphClass: 2
Flags: W
LayerCount: 2
Fore
SplineSet
896 560 m 1,0,-1
 916 560 l 2,1,2
 923 560 923 560 929 560 c 2,3,-1
 934 560 l 2,4,5
 937 560 937 560 939 560 c 2,6,-1
 944 560 l 2,7,8
 948 560 948 560 951 560 c 2,9,-1
 960 560 l 2,10,11
 963 560 963 560 965 560 c 2,12,-1
 971 560 l 2,13,14
 973 560 973 560 975 560 c 2,15,-1
 1014 560 l 2,16,17
 1015 560 1015 560 1016 560 c 2,18,-1
 1024 560 l 1,19,20
 1024 543 1024 543 1024 527 c 2,21,-1
 1024 495 l 2,22,23
 1024 463 1024 463 1024 432 c 2,24,-1
 1024 373 l 2,25,26
 1024 363 1024 363 1024 354 c 2,27,-1
 1024 335 l 2,28,29
 1024 326 1024 326 1024 317 c 2,30,-1
 1024 299 l 2,31,32
 1024 290 1024 290 1024 281 c 2,33,-1
 1024 264 l 2,34,35
 1024 255 1024 255 1024 247 c 2,36,-1
 1024 16 l 2,37,38
 1024 -24 1024 -24 996 -52 c 256,39,40
 968 -80 968 -80 928 -80 c 0,41,42
 901 -80 901 -80 875 -80 c 2,43,-1
 824 -80 l 2,44,45
 773 -80 773 -80 725 -80 c 2,46,-1
 631 -80 l 2,47,48
 616 -80 616 -80 601 -80 c 2,49,-1
 571 -80 l 2,50,51
 556 -80 556 -80 542 -80 c 2,52,-1
 513 -80 l 2,53,54
 499 -80 499 -80 485 -80 c 2,55,-1
 458 -80 l 2,56,57
 444 -80 444 -80 431 -80 c 2,58,-1
 64 -80 l 2,59,60
 37 -80 37 -80 18 -62 c 0,61,62
 0 -43 0 -43 0 -16 c 2,63,-1
 0 688 l 1,64,65
 41 688 41 688 81 688 c 2,66,-1
 269 688 l 2,67,68
 322 688 322 688 371 688 c 2,69,-1
 525 688 l 2,70,71
 539 688 539 688 553 688 c 2,72,-1
 816 688 l 2,73,74
 825 688 825 688 834 688 c 2,75,-1
 896 688 l 1,76,77
 896 685 896 685 896 682 c 2,78,-1
 896 676 l 2,79,80
 896 674 896 674 896 671 c 2,81,-1
 896 665 l 2,82,83
 896 664 896 664 896 663 c 2,84,-1
 896 650 l 2,85,86
 896 647 896 647 896 645 c 2,87,-1
 896 640 l 2,88,89
 896 634 896 634 896 628 c 2,90,-1
 896 621 l 2,91,92
 896 619 896 619 896 617 c 2,93,-1
 896 613 l 2,94,95
 896 611 896 611 896 609 c 2,96,-1
 896 570 l 2,97,98
 896 569 896 569 896 568 c 2,99,-1
 896 562 l 2,100,101
 896 561 896 561 896 560 c 1,0,-1
832 -16 m 1,102,103
 832 14 832 14 832 42 c 2,104,-1
 832 176 l 2,105,106
 832 214 832 214 832 249 c 2,107,-1
 832 359 l 2,108,109
 832 369 832 369 832 379 c 2,110,-1
 832 567 l 2,111,112
 832 574 832 574 832 580 c 2,113,-1
 832 624 l 1,114,115
 797 624 797 624 763 624 c 2,116,-1
 712 624 l 2,117,118
 671 624 671 624 632 624 c 2,119,-1
 602 624 l 2,120,121
 587 624 587 624 572 624 c 2,122,-1
 500 624 l 2,123,124
 486 624 486 624 472 624 c 2,125,-1
 433 624 l 2,126,127
 420 624 420 624 407 624 c 2,128,-1
 382 624 l 2,129,130
 370 624 370 624 358 624 c 2,131,-1
 110 624 l 2,132,133
 103 624 103 624 96 624 c 2,134,-1
 64 624 l 1,135,136
 64 602 64 602 64 580 c 2,137,-1
 64 538 l 2,138,139
 64 497 64 497 64 458 c 2,140,-1
 64 383 l 2,141,142
 64 371 64 371 64 359 c 2,143,-1
 64 336 l 2,144,145
 64 324 64 324 64 313 c 2,146,-1
 64 291 l 2,147,148
 64 280 64 280 64 270 c 2,149,-1
 64 249 l 2,150,151
 64 239 64 239 64 229 c 2,152,-1
 64 -16 l 1,153,154
 91 -16 91 -16 116 -16 c 2,155,-1
 167 -16 l 2,156,157
 217 -16 217 -16 264 -16 c 2,158,-1
 354 -16 l 2,159,160
 368 -16 368 -16 382 -16 c 2,161,-1
 410 -16 l 2,162,163
 424 -16 424 -16 437 -16 c 2,164,-1
 463 -16 l 2,165,166
 476 -16 476 -16 489 -16 c 2,167,-1
 514 -16 l 2,168,169
 526 -16 526 -16 538 -16 c 2,170,-1
 832 -16 l 1,102,103
128 496 m 1,171,-1
 373 496 l 2,172,173
 383 496 383 496 393 496 c 2,174,-1
 414 496 l 2,175,176
 430 496 430 496 446 496 c 2,177,-1
 491 496 l 2,178,179
 509 496 509 496 527 496 c 2,180,-1
 551 496 l 2,181,182
 563 496 563 496 576 496 c 2,183,-1
 768 496 l 1,184,-1
 768 493 l 1,185,186
 768 492 l 2,187,-1
 768 472 l 2,188,189
 768 471 768 471 768 469 c 2,190,-1
 768 467 l 2,191,192
 768 466 768 466 768 465 c 2,193,-1
 768 462 l 2,194,195
 768 461 768 461 768 460 c 2,196,-1
 768 454 l 2,197,198
 768 452 768 452 768 451 c 2,199,-1
 768 449 l 2,200,201
 768 445 768 445 768 442 c 2,202,-1
 768 438 l 2,203,204
 768 435 768 435 768 432 c 1,205,-1
 523 432 l 2,206,207
 513 432 513 432 503 432 c 2,208,-1
 482 432 l 2,209,210
 472 432 472 432 461 432 c 2,211,-1
 439 432 l 2,212,213
 428 432 428 432 416 432 c 2,214,-1
 393 432 l 2,215,216
 381 432 381 432 369 432 c 2,217,-1
 294 432 l 2,218,219
 281 432 281 432 268 432 c 2,220,-1
 128 432 l 1,221,-1
 128 456 l 2,222,223
 128 457 128 457 128 459 c 2,224,-1
 128 461 l 2,225,226
 128 462 128 462 128 463 c 2,227,-1
 128 465 l 2,228,229
 128 466 128 466 128 467 c 2,230,-1
 128 469 l 2,231,232
 128 471 128 471 128 472 c 2,233,-1
 128 479 l 2,234,235
 128 483 128 483 128 487 c 2,236,-1
 128 492 l 2,237,238
 128 494 128 494 128 496 c 1,171,-1
128 368 m 1,239,-1
 250 368 l 2,240,241
 255 368 255 368 261 368 c 2,242,-1
 271 368 l 2,243,244
 276 368 276 368 282 368 c 2,245,-1
 293 368 l 2,246,247
 298 368 298 368 304 368 c 2,248,-1
 315 368 l 2,249,250
 321 368 321 368 327 368 c 2,251,-1
 365 368 l 2,252,253
 384 368 384 368 405 368 c 2,254,-1
 426 368 l 2,255,256
 437 368 437 368 448 368 c 1,257,258
 448 366 448 366 448 363 c 2,259,-1
 448 349 l 2,260,261
 448 346 448 346 448 343 c 2,262,-1
 448 246 l 2,263,264
 448 241 448 241 448 235 c 2,265,-1
 448 225 l 2,266,267
 448 220 448 220 448 214 c 2,268,-1
 448 198 l 2,269,270
 448 184 448 184 448 169 c 2,271,-1
 448 156 l 2,272,273
 448 150 448 150 448 144 c 2,274,-1
 448 111 l 2,275,276
 448 108 448 108 448 105 c 2,277,-1
 448 91 l 2,278,279
 448 84 448 84 448 77 c 2,280,-1
 448 63 l 2,281,282
 448 55 448 55 448 48 c 1,283,-1
 435 48 l 2,284,285
 432 48 432 48 429 48 c 2,286,-1
 326 48 l 2,287,288
 321 48 321 48 315 48 c 2,289,-1
 305 48 l 2,290,291
 300 48 300 48 294 48 c 2,292,-1
 278 48 l 2,293,294
 272 48 272 48 266 48 c 2,295,-1
 236 48 l 2,296,297
 230 48 230 48 224 48 c 2,298,-1
 211 48 l 2,299,300
 195 48 195 48 178 48 c 2,301,-1
 157 48 l 2,302,303
 143 48 143 48 128 48 c 1,304,-1
 128 170 l 2,305,306
 128 175 128 175 128 181 c 2,307,-1
 128 191 l 2,308,309
 128 196 128 196 128 202 c 2,310,-1
 128 213 l 2,311,312
 128 218 128 218 128 224 c 2,313,-1
 128 235 l 2,314,315
 128 241 128 241 128 247 c 2,316,-1
 128 285 l 2,317,318
 128 304 128 304 128 325 c 2,319,-1
 128 346 l 2,320,321
 128 357 128 357 128 368 c 1,239,-1
512 368 m 1,322,-1
 610 368 l 2,323,324
 614 368 614 368 618 368 c 2,325,-1
 626 368 l 2,326,327
 631 368 631 368 635 368 c 2,328,-1
 644 368 l 2,329,330
 648 368 648 368 653 368 c 2,331,-1
 662 368 l 2,332,333
 667 368 667 368 671 368 c 2,334,-1
 701 368 l 2,335,336
 717 368 717 368 734 368 c 2,337,-1
 751 368 l 2,338,339
 759 368 759 368 768 368 c 1,340,-1
 768 365 l 1,341,342
 768 364 l 2,343,-1
 768 344 l 2,344,345
 768 343 768 343 768 341 c 2,346,-1
 768 339 l 2,347,348
 768 338 768 338 768 337 c 2,349,-1
 768 334 l 2,350,351
 768 333 768 333 768 332 c 2,352,-1
 768 326 l 2,353,354
 768 324 768 324 768 323 c 2,355,-1
 768 321 l 2,356,357
 768 317 768 317 768 314 c 2,358,-1
 768 310 l 2,359,360
 768 307 768 307 768 304 c 1,361,362
 766 304 766 304 764 304 c 2,363,-1
 753 304 l 2,364,365
 750 304 750 304 748 304 c 2,366,-1
 670 304 l 2,367,368
 666 304 666 304 662 304 c 2,369,-1
 654 304 l 2,370,371
 649 304 649 304 645 304 c 2,372,-1
 632 304 l 2,373,374
 621 304 621 304 609 304 c 2,375,-1
 599 304 l 2,376,377
 594 304 594 304 589 304 c 2,378,-1
 563 304 l 2,379,380
 560 304 560 304 557 304 c 2,381,-1
 546 304 l 2,382,383
 541 304 541 304 535 304 c 2,384,-1
 524 304 l 2,385,386
 518 304 518 304 512 304 c 1,387,-1
 512 328 l 2,388,389
 512 329 512 329 512 331 c 2,390,-1
 512 333 l 2,391,392
 512 334 512 334 512 335 c 2,393,-1
 512 337 l 2,394,395
 512 338 512 338 512 339 c 2,396,-1
 512 341 l 2,397,398
 512 343 512 343 512 344 c 2,399,-1
 512 351 l 2,400,401
 512 355 512 355 512 359 c 2,402,-1
 512 364 l 2,403,404
 512 366 512 366 512 368 c 1,322,-1
512 240 m 1,405,-1
 523 240 l 2,406,407
 525 240 525 240 527 240 c 2,408,-1
 610 240 l 2,409,410
 614 240 614 240 618 240 c 2,411,-1
 626 240 l 2,412,413
 631 240 631 240 635 240 c 2,414,-1
 648 240 l 2,415,416
 653 240 653 240 657 240 c 2,417,-1
 681 240 l 2,418,419
 686 240 686 240 691 240 c 2,420,-1
 701 240 l 2,421,422
 714 240 714 240 728 240 c 2,423,-1
 745 240 l 2,424,425
 756 240 756 240 768 240 c 1,426,-1
 768 237 l 1,427,428
 768 236 l 2,429,-1
 768 216 l 2,430,431
 768 215 768 215 768 213 c 2,432,-1
 768 211 l 2,433,434
 768 210 768 210 768 209 c 2,435,-1
 768 206 l 2,436,437
 768 205 768 205 768 204 c 2,438,-1
 768 198 l 2,439,440
 768 196 768 196 768 195 c 2,441,-1
 768 193 l 2,442,443
 768 189 768 189 768 186 c 2,444,-1
 768 182 l 2,445,446
 768 179 768 179 768 176 c 1,447,-1
 670 176 l 2,448,449
 666 176 666 176 662 176 c 2,450,-1
 654 176 l 2,451,452
 647 176 647 176 641 176 c 2,453,-1
 623 176 l 2,454,455
 616 176 616 176 609 176 c 2,456,-1
 599 176 l 2,457,458
 594 176 594 176 589 176 c 2,459,-1
 512 176 l 1,460,-1
 512 200 l 2,461,462
 512 201 512 201 512 203 c 2,463,-1
 512 205 l 2,464,465
 512 206 512 206 512 207 c 2,466,-1
 512 209 l 2,467,468
 512 210 512 210 512 211 c 2,469,-1
 512 213 l 2,470,471
 512 215 512 215 512 216 c 2,472,-1
 512 223 l 2,473,474
 512 227 512 227 512 231 c 2,475,-1
 512 236 l 2,476,477
 512 238 512 238 512 240 c 1,405,-1
512 112 m 1,478,-1
 585 112 l 2,479,480
 588 112 588 112 592 112 c 2,481,-1
 598 112 l 2,482,483
 601 112 601 112 604 112 c 2,484,-1
 611 112 l 2,485,486
 614 112 614 112 618 112 c 2,487,-1
 624 112 l 2,488,489
 628 112 628 112 632 112 c 2,490,-1
 654 112 l 2,491,492
 666 112 666 112 678 112 c 2,493,-1
 691 112 l 2,494,495
 697 112 697 112 704 112 c 1,496,-1
 704 108 l 1,497,498
 704 107 l 2,499,-1
 704 88 l 2,500,501
 704 87 704 87 704 85 c 2,502,-1
 704 82 l 2,503,504
 704 81 704 81 704 80 c 2,505,-1
 704 76 l 2,506,507
 704 74 704 74 704 72 c 2,508,-1
 704 70 l 2,509,510
 704 68 704 68 704 67 c 2,511,-1
 704 65 l 2,512,513
 704 61 704 61 704 58 c 2,514,-1
 704 48 l 1,515,-1
 696 48 l 2,516,517
 694 48 694 48 693 48 c 2,518,-1
 631 48 l 2,519,520
 628 48 628 48 624 48 c 2,521,-1
 618 48 l 2,522,523
 615 48 615 48 612 48 c 2,524,-1
 602 48 l 2,525,526
 599 48 599 48 595 48 c 2,527,-1
 577 48 l 2,528,529
 573 48 573 48 570 48 c 2,530,-1
 562 48 l 2,531,532
 552 48 552 48 542 48 c 2,533,-1
 529 48 l 2,534,535
 521 48 521 48 512 48 c 1,536,-1
 512 72 l 2,537,538
 512 73 512 73 512 75 c 2,539,-1
 512 77 l 2,540,541
 512 78 512 78 512 79 c 2,542,-1
 512 81 l 2,543,544
 512 82 512 82 512 83 c 2,545,-1
 512 85 l 2,546,547
 512 87 512 87 512 88 c 2,548,-1
 512 95 l 2,549,550
 512 99 512 99 512 103 c 2,551,-1
 512 108 l 2,552,553
 512 110 512 110 512 112 c 1,478,-1
EndSplineSet
EndChar

StartChar: uniE905
Encoding: 59653 59653 7
Width: 1024
VWidth: 880
GlyphClass: 2
Flags: W
LayerCount: 2
Fore
SplineSet
864 816 m 0,0,1
 930 816 930 816 977 769 c 256,2,3
 1024 722 1024 722 1024 656 c 0,4,5
 1024 629 1024 629 1015 604 c 0,6,7
 1007 580 1007 580 992 560 c 2,8,-1
 928 496 l 1,9,10
 927 497 927 497 926 498 c 2,11,-1
 904 520 l 2,12,13
 901 523 901 523 899 525 c 2,14,-1
 868 556 l 2,15,16
 865 559 865 559 862 562 c 2,17,-1
 771 653 l 2,18,19
 767 657 767 657 762 662 c 2,20,-1
 709 715 l 2,21,22
 707 717 707 717 704 720 c 1,23,-1
 734 750 l 2,24,25
 735 751 735 751 736 752 c 2,26,-1
 768 784 l 2,27,28
 788 799 788 799 812 807 c 0,29,30
 837 816 837 816 864 816 c 0,0,1
64 80 m 1,31,-1
 656 672 l 1,32,33
 659 669 659 669 661 667 c 2,34,-1
 714 614 l 2,35,36
 719 609 719 609 723 605 c 2,37,-1
 769 559 l 2,38,39
 773 555 773 555 776 552 c 2,40,-1
 814 514 l 2,41,42
 817 511 817 511 820 508 c 2,43,-1
 851 477 l 2,44,45
 853 475 853 475 856 472 c 2,46,-1
 878 450 l 2,47,48
 879 449 879 449 880 448 c 1,49,-1
 582 150 l 2,50,51
 572 140 572 140 562 130 c 2,52,-1
 462 30 l 2,53,54
 454 22 454 22 446 14 c 2,55,-1
 365 -67 l 2,56,57
 359 -73 359 -73 353 -79 c 2,58,-1
 288 -144 l 1,59,60
 155 -174 155 -174 77 -191 c 2,61,-1
 65 -194 l 2,62,63
 24 -203 24 -203 0 -208 c 1,64,65
 8 -171 8 -171 15 -139 c 2,66,-1
 20 -116 l 2,67,68
 36 -46 36 -46 47 3 c 2,69,-1
 50 15 l 2,70,71
 59 56 59 56 64 80 c 1,31,-1
716 452 m 2,72,73
 715 453 l 1,74,-1
 701 467 l 2,75,76
 700 468 700 468 699 469 c 2,77,-1
 688 480 l 2,78,79
 687 481 687 481 686 482 c 2,80,-1
 676 492 l 1,81,82
 675 493 l 2,83,-1
 667 501 l 1,84,85
 666 502 l 2,86,-1
 660 508 l 1,87,88
 660 508 l 1,89,-1
 435 283 l 2,90,91
 427 275 427 275 420 268 c 2,92,-1
 212 60 l 2,93,94
 213 59 l 1,95,-1
 227 45 l 2,96,97
 228 44 228 44 229 43 c 2,98,-1
 240 32 l 2,99,100
 241 31 241 31 242 30 c 2,101,-1
 252 20 l 1,102,103
 253 19 l 2,104,-1
 261 11 l 1,105,106
 262 10 l 2,107,-1
 268 4 l 1,108,109
 268 4 l 1,110,-1
 716 452 l 2,72,73
EndSplineSet
EndChar

StartChar: uniE906
Encoding: 59654 59654 8
Width: 1024
VWidth: 880
GlyphClass: 2
Flags: W
LayerCount: 2
Fore
SplineSet
289 -51 m 1,0,1
 494 23 494 23 562 48 c 1,2,3
 620 144 620 144 640 176 c 1,4,-1
 833 369 l 2,5,6
 840 376 840 376 846 382 c 2,7,-1
 1024 560 l 1,8,9
 1024 553 1024 553 1024 547 c 2,10,-1
 1024 534 l 2,11,12
 1024 522 1024 522 1024 510 c 2,13,-1
 1024 488 l 2,14,15
 1024 484 1024 484 1024 480 c 2,16,-1
 1024 474 l 2,17,18
 1024 470 1024 470 1024 467 c 2,19,-1
 1024 460 l 2,20,21
 1024 457 1024 457 1024 454 c 2,22,-1
 1024 448 l 2,23,24
 1024 444 1024 444 1024 441 c 2,25,-1
 1024 368 l 1,26,-1
 831 175 l 2,27,28
 824 168 824 168 818 162 c 2,29,-1
 753 97 l 2,30,31
 747 91 747 91 742 86 c 2,32,-1
 640 -16 l 1,33,34
 345 -105 345 -105 170 -157 c 2,35,-1
 153 -162 l 2,36,37
 57 -191 57 -191 0 -208 c 1,38,39
 27 -119 27 -119 50 -42 c 2,40,-1
 58 -16 l 2,41,42
 107 148 107 148 141 262 c 2,43,-1
 146 279 l 2,44,45
 175 375 175 375 192 432 c 1,46,-1
 576 816 l 1,47,48
 589 816 589 816 602 816 c 2,49,-1
 610 816 l 2,50,51
 626 816 626 816 641 816 c 2,52,-1
 648 816 l 2,53,54
 652 816 652 816 656 816 c 2,55,-1
 662 816 l 2,56,57
 671 816 671 816 679 816 c 2,58,-1
 688 816 l 2,59,60
 692 816 692 816 695 816 c 2,61,-1
 751 816 l 2,62,63
 752 816 752 816 753 816 c 2,64,-1
 757 816 l 1,65,66
 758 816 l 2,67,-1
 768 816 l 1,68,-1
 575 623 l 2,69,70
 568 616 568 616 562 610 c 2,71,-1
 384 432 l 1,72,73
 288 373 288 373 256 354 c 1,74,75
 190 172 190 172 157 81 c 1,76,77
 207 58 207 58 236 28 c 0,78,79
 266 -1 266 -1 289 -51 c 1,0,1
384 176 m 1,80,-1
 387 182 l 2,81,82
 393 193 393 193 398 204 c 2,83,-1
 406 219 l 2,84,85
 411 229 411 229 415 238 c 2,86,-1
 417 243 l 2,87,88
 423 254 423 254 428 265 c 2,89,-1
 430 268 l 2,90,91
 431 269 431 269 431 270 c 2,92,-1
 434 275 l 2,93,94
 435 278 435 278 437 281 c 2,95,-1
 438 284 l 2,96,97
 440 287 440 287 441 290 c 2,98,-1
 444 296 l 2,99,100
 446 301 446 301 448 304 c 2,101,-1
 896 752 l 1,102,103
 897 751 l 1,104,-1
 913 735 l 2,105,106
 914 734 914 734 915 733 c 2,107,-1
 960 688 l 1,108,109
 960 688 l 1,110,-1
 644 372 l 2,111,112
 637 365 637 365 631 359 c 2,113,-1
 512 240 l 1,114,115
 497 233 497 233 484 226 c 2,116,-1
 479 223 l 2,117,118
 476 222 476 222 474 221 c 2,119,-1
 469 218 l 2,120,121
 456 212 456 212 445 207 c 2,122,-1
 441 205 l 2,123,124
 430 199 430 199 420 194 c 2,125,-1
 413 190 l 2,126,127
 410 189 410 189 407 187 c 2,128,-1
 404 186 l 2,129,130
 401 185 401 185 399 184 c 2,131,-1
 392 180 l 2,132,133
 387 178 387 178 384 176 c 1,80,-1
EndSplineSet
EndChar

StartChar: uniE907
Encoding: 59655 59655 9
Width: 1024
VWidth: 880
GlyphClass: 2
Flags: W
LayerCount: 2
Fore
SplineSet
0 -208 m 1,0,1
 48 -64 48 -64 135 114 c 256,2,3
 222 292 222 292 350 448 c 0,4,5
 477 604 477 604 645 710 c 0,6,7
 814 816 814 816 1024 816 c 1,8,9
 925 737 925 737 850 617 c 256,10,11
 775 497 775 497 709 385 c 0,12,13
 644 273 644 273 582 192 c 0,14,15
 520 112 520 112 448 112 c 0,16,17
 441 112 441 112 435 112 c 2,18,-1
 422 112 l 2,19,20
 410 112 410 112 399 112 c 2,21,-1
 377 112 l 2,22,23
 374 112 374 112 371 112 c 2,24,-1
 364 112 l 2,25,26
 361 112 361 112 358 112 c 2,27,-1
 352 112 l 2,28,29
 349 112 349 112 346 112 c 2,30,-1
 341 112 l 2,31,32
 338 112 338 112 335 112 c 2,33,-1
 279 112 l 1,34,35
 278 112 l 2,36,-1
 276 112 l 2,37,38
 274 112 274 112 272 112 c 2,39,-1
 269 112 l 2,40,41
 268 112 l 1,42,-1
 267 112 l 2,43,44
 266 112 l 1,45,-1
 265 112 l 2,46,47
 264 112 l 1,48,-1
 263 112 l 1,49,50
 262 112 l 2,51,-1
 256 112 l 1,52,53
 192 5 192 5 64 -208 c 0,54,55
 63 -208 63 -208 62 -208 c 2,56,-1
 61 -208 l 2,57,58
 59 -208 59 -208 57 -208 c 2,59,-1
 53 -208 l 2,60,61
 52 -208 52 -208 51 -208 c 2,62,-1
 50 -208 l 2,63,64
 49 -208 49 -208 48 -208 c 2,65,-1
 46 -208 l 2,66,67
 45 -208 45 -208 44 -208 c 2,68,-1
 42 -208 l 2,69,70
 41 -208 41 -208 40 -208 c 2,71,-1
 0 -208 l 1,0,1
EndSplineSet
EndChar

StartChar: uniE908
Encoding: 59656 59656 10
Width: 1024
VWidth: 880
GlyphClass: 2
Flags: W
LayerCount: 2
Fore
SplineSet
1018 524 m 0,0,1
 1024 518 1024 518 1024 512 c 1,2,3
 1024 512 l 1,4,5
 1024 511 l 257,6,7
 1024 511 l 257,8,9
 1024 511 l 257,10,11
 1024 510 l 1,12,13
 1024 510 l 1,14,-1
 1024 509 l 2,15,16
 1022 501 1022 501 1014 497 c 0,17,18
 954 468 954 468 934 458 c 1,19,20
 931 461 931 461 928 464 c 2,21,-1
 864 528 l 2,22,23
 859 533 859 533 854 538 c 2,24,-1
 799 593 l 2,25,26
 795 597 795 597 790 602 c 2,27,-1
 745 647 l 2,28,29
 741 651 741 651 737 655 c 2,30,-1
 701 691 l 2,31,32
 698 694 698 694 695 697 c 2,33,-1
 668 724 l 2,34,35
 667 725 667 725 666 726 c 0,36,37
 692 779 692 779 705 806 c 0,38,39
 709 814 709 814 717 816 c 1,40,41
 717 816 l 257,42,43
 718 816 l 1,44,45
 718 816 l 257,46,47
 718 816 l 257,48,49
 718 816 l 1,50,-1
 719 816 l 1,51,52
 720 816 l 1,53,54
 720 816 l 1,55,56
 726 816 726 816 732 810 c 0,57,58
 735 807 735 807 739 803 c 2,59,-1
 806 736 l 2,60,61
 812 730 812 730 818 724 c 2,62,-1
 980 562 l 2,63,64
 984 558 984 558 987 555 c 2,65,-1
 1016 526 l 2,66,67
 1017 525 1017 525 1018 524 c 0,0,1
615 681 m 1,68,69
 618 678 618 678 621 675 c 2,70,-1
 686 610 l 2,71,72
 692 604 692 604 697 599 c 2,73,-1
 753 543 l 2,74,75
 758 538 758 538 762 534 c 2,76,-1
 809 487 l 2,77,78
 813 483 813 483 816 480 c 2,79,-1
 853 443 l 2,80,81
 856 440 856 440 859 437 c 2,82,-1
 887 409 l 2,83,84
 888 408 888 408 889 407 c 0,85,86
 874 232 874 232 867 144 c 0,87,88
 865 131 865 131 860 121 c 256,89,90
 855 111 855 111 838 107 c 1,91,92
 838 107 l 257,93,94
 838 107 l 1,95,-1
 834 106 l 1,96,97
 707 79 707 79 587 28 c 0,98,99
 465 -25 465 -25 370 -78 c 0,100,101
 275 -130 275 -130 218 -169 c 0,102,103
 160 -208 l 1,104,-1
 131 -179 l 2,105,106
 130 -178 130 -178 129 -177 c 2,107,-1
 120 -168 l 2,108,109
 119 -167 119 -167 118 -166 c 2,110,-1
 110 -158 l 1,111,112
 109 -157 l 2,113,-1
 103 -151 l 1,114,115
 109 -145 109 -145 114 -140 c 2,116,-1
 229 -25 l 2,117,118
 233 -21 233 -21 238 -16 c 2,119,-1
 375 121 l 1,120,121
 384 117 384 117 394 114 c 0,122,123
 405 112 405 112 416 112 c 0,124,125
 456 112 456 112 484 140 c 256,126,127
 512 168 512 168 512 208 c 256,128,129
 512 248 512 248 484 276 c 256,130,131
 456 304 456 304 416 304 c 256,132,133
 376 304 376 304 348 276 c 256,134,135
 320 248 320 248 320 208 c 0,136,137
 320 197 320 197 322 186 c 0,138,139
 325 176 325 176 329 167 c 1,140,-1
 93 -69 l 2,141,142
 90 -72 90 -72 87 -75 c 2,143,-1
 57 -105 l 1,144,145
 56 -104 l 1,146,-1
 44 -92 l 2,147,148
 43 -91 43 -91 42 -90 c 2,149,-1
 31 -79 l 2,150,151
 30 -78 30 -78 29 -77 c 2,152,-1
 1 -49 l 2,153,154
 0 -48 l 257,155,156
 39 10 l 0,157,158
 78 67 78 67 130 162 c 0,159,160
 183 257 183 257 236 379 c 0,161,162
 287 499 287 499 314 626 c 1,163,-1
 315 630 l 1,164,165
 315 630 l 1,166,167
 319 647 319 647 329 652 c 256,168,169
 339 657 339 657 352 659 c 0,170,171
 546 676 546 676 613 681 c 1,172,-1
 615 681 l 1,173,174
 615 681 l 1,68,69
315 630 m 257,175,176
 315 630 l 257,177,178
 315 630 l 257,179,180
 315 630 l 257,175,176
EndSplineSet
EndChar

StartChar: uniE909
Encoding: 59657 59657 11
Width: 1024
VWidth: 880
GlyphClass: 2
Flags: W
LayerCount: 2
Fore
SplineSet
384 816 m 1,0,1
 517 816 517 816 633 766 c 0,2,3
 750 715 750 715 837 629 c 0,4,5
 923 542 923 542 974 425 c 0,6,7
 1024 309 1024 309 1024 176 c 1,8,-1
 998 176 l 2,9,10
 996 176 996 176 994 176 c 2,11,-1
 991 176 l 2,12,13
 988 176 988 176 986 176 c 2,14,-1
 980 176 l 2,15,16
 977 176 977 176 975 176 c 2,17,-1
 972 176 l 2,18,19
 970 176 970 176 969 176 c 2,20,-1
 928 176 l 1,21,22
 928 231 928 231 918 284 c 0,23,24
 907 337 907 337 885 388 c 0,25,26
 865 436 865 436 836 479 c 0,27,28
 806 523 806 523 769 561 c 0,29,30
 731 598 731 598 687 628 c 0,31,32
 644 657 644 657 596 677 c 0,33,34
 545 699 545 699 492 710 c 0,35,36
 439 720 439 720 384 720 c 1,37,38
 384 724 384 724 384 729 c 2,39,-1
 384 735 l 2,40,41
 384 740 384 740 384 745 c 2,42,-1
 384 749 l 2,43,44
 384 751 384 751 384 753 c 2,45,-1
 384 762 l 2,46,47
 384 763 384 763 384 765 c 2,48,-1
 384 770 l 2,49,50
 384 772 384 772 384 773 c 2,51,-1
 384 776 l 2,52,53
 384 778 384 778 384 779 c 2,54,-1
 384 810 l 2,55,56
 384 811 384 811 384 812 c 2,57,-1
 384 816 l 1,0,1
384 624 m 1,58,59
 477 624 477 624 558 589 c 0,60,61
 640 554 640 554 701 493 c 256,62,63
 762 432 762 432 797 350 c 0,64,65
 832 269 832 269 832 176 c 1,66,-1
 806 176 l 2,67,68
 804 176 804 176 802 176 c 2,69,-1
 799 176 l 2,70,71
 796 176 796 176 794 176 c 2,72,-1
 788 176 l 2,73,74
 785 176 785 176 783 176 c 2,75,-1
 780 176 l 2,76,77
 778 176 778 176 777 176 c 2,78,-1
 736 176 l 1,79,80
 736 247 736 247 710 311 c 0,81,82
 683 375 683 375 633 425 c 256,83,84
 583 475 583 475 519 502 c 0,85,86
 455 528 455 528 384 528 c 1,87,88
 384 532 384 532 384 537 c 2,89,-1
 384 543 l 2,90,91
 384 548 384 548 384 553 c 2,92,-1
 384 557 l 2,93,94
 384 559 384 559 384 561 c 2,95,-1
 384 570 l 2,96,97
 384 571 384 571 384 573 c 2,98,-1
 384 578 l 2,99,100
 384 580 384 580 384 581 c 2,101,-1
 384 584 l 2,102,103
 384 586 384 586 384 587 c 2,104,-1
 384 618 l 2,105,106
 384 619 384 619 384 620 c 2,107,-1
 384 624 l 1,58,59
480 432 m 1,108,109
 482 430 482 430 484 428 c 2,110,-1
 522 390 l 2,111,112
 525 387 525 387 528 384 c 2,113,-1
 593 319 l 2,114,115
 595 317 595 317 597 315 c 2,116,-1
 619 293 l 2,117,118
 621 291 621 291 623 289 c 2,119,-1
 639 273 l 1,120,121
 640 272 l 1,122,-1
 595 227 l 2,123,124
 594 226 594 226 593 225 c 2,125,-1
 576 208 l 1,126,127
 546 105 546 105 529 44 c 2,128,-1
 526 35 l 2,129,130
 517 3 517 3 512 -16 c 1,131,132
 200 -160 200 -160 96 -208 c 1,133,-1
 78 -190 l 1,134,135
 78 -190 l 1,136,-1
 71 -183 l 1,137,138
 226 -28 226 -28 303 50 c 0,139,140
 307 49 307 49 312 49 c 0,141,142
 316 48 316 48 320 48 c 0,143,144
 347 48 347 48 366 66 c 0,145,146
 384 85 384 85 384 112 c 256,147,148
 384 139 384 139 366 158 c 0,149,150
 347 176 347 176 320 176 c 256,151,152
 293 176 293 176 274 158 c 0,153,154
 256 139 256 139 256 112 c 0,155,156
 256 108 256 108 257 104 c 0,157,158
 257 99 257 99 258 95 c 0,159,160
 83 -79 83 -79 25 -137 c 1,161,162
 24 -136 l 2,163,-1
 18 -130 l 1,164,165
 17 -129 l 2,166,-1
 15 -127 l 2,167,168
 14 -126 l 1,169,-1
 9 -121 l 1,170,171
 8 -120 l 2,172,-1
 0 -112 l 1,173,174
 0 -112 l 1,175,176
 24 -59 24 -59 46 -12 c 2,177,-1
 61 21 l 2,178,179
 155 224 155 224 192 304 c 1,180,181
 220 312 220 312 246 319 c 2,182,-1
 264 324 l 2,183,184
 318 340 318 340 356 351 c 2,185,-1
 365 354 l 2,186,187
 397 363 397 363 416 368 c 1,188,-1
 480 432 l 1,108,109
EndSplineSet
EndChar

StartChar: uniE90A
Encoding: 59658 59658 12
Width: 1024
VWidth: 880
GlyphClass: 2
Flags: W
LayerCount: 2
Fore
SplineSet
987 779 m 0,0,1
 1024 741 1024 741 1024 688 c 256,2,3
 1024 635 1024 635 987 597 c 0,4,5
 857 468 857 468 814 425 c 1,6,7
 906 334 906 334 936 304 c 1,8,-1
 840 208 l 2,9,10
 838 206 838 206 836 204 c 2,11,-1
 800 168 l 1,12,13
 721 248 721 248 694 275 c 1,14,15
 379 -40 379 -40 221 -197 c 0,16,17
 216 -203 216 -203 210 -206 c 0,18,19
 203 -208 203 -208 196 -208 c 1,20,21
 196 -208 l 257,22,23
 195 -208 l 1,24,25
 195 -208 l 257,26,27
 195 -208 l 257,28,29
 195 -208 l 257,30,31
 195 -208 l 1,32,-1
 194 -208 l 1,33,34
 194 -208 l 1,35,36
 193 -208 l 257,37,38
 193 -208 l 257,39,40
 193 -208 l 257,41,42
 193 -208 l 257,43,44
 193 -208 l 1,45,-1
 189 -208 l 2,46,47
 185 -208 185 -208 182 -208 c 2,48,-1
 173 -208 l 2,49,50
 163 -208 163 -208 154 -208 c 2,51,-1
 137 -208 l 2,52,53
 134 -208 134 -208 131 -208 c 2,54,-1
 126 -208 l 2,55,56
 123 -208 123 -208 120 -208 c 2,57,-1
 115 -208 l 2,58,59
 112 -208 112 -208 110 -208 c 2,60,-1
 105 -208 l 2,61,62
 102 -208 102 -208 100 -208 c 2,63,-1
 32 -208 l 2,64,65
 19 -208 19 -208 10 -198 c 0,66,67
 0 -189 0 -189 0 -176 c 2,68,-1
 0 -12 l 2,69,70
 0 -6 0 -6 2 -1 c 0,71,72
 5 7 5 7 11 13 c 0,73,74
 365 368 365 368 483 486 c 1,75,76
 403 566 403 566 376 592 c 1,77,-1
 512 728 l 1,78,79
 603 637 603 637 633 606 c 1,80,81
 748 721 748 721 805 779 c 0,82,83
 843 816 843 816 896 816 c 256,84,85
 949 816 949 816 987 779 c 0,0,1
173 -144 m 1,86,-1
 643 326 l 2,87,88
 642 327 642 327 640 329 c 2,89,-1
 615 354 l 2,90,91
 612 357 612 357 610 359 c 2,92,-1
 566 403 l 2,93,94
 564 405 564 405 563 406 c 2,95,-1
 548 421 l 2,96,97
 547 422 547 422 546 423 c 2,98,-1
 535 434 l 2,99,100
 534 435 l 1,101,102
 182 82 182 82 64 -35 c 0,103,104
 64 -39 64 -39 64 -42 c 2,105,-1
 64 -50 l 2,106,107
 64 -57 64 -57 64 -63 c 2,108,-1
 64 -76 l 2,109,110
 64 -78 64 -78 64 -80 c 2,111,-1
 64 -84 l 2,112,113
 64 -86 64 -86 64 -88 c 2,114,-1
 64 -92 l 2,115,116
 64 -94 64 -94 64 -95 c 2,117,-1
 64 -99 l 2,118,119
 64 -101 64 -101 64 -102 c 2,120,-1
 64 -144 l 1,121,-1
 173 -144 l 1,86,-1
EndSplineSet
EndChar

StartChar: uniE90B
Encoding: 59659 59659 13
Width: 1024
VWidth: 880
GlyphClass: 2
Flags: W
LayerCount: 2
Fore
SplineSet
865 343 m 0,0,1
 880 300 880 300 888 256 c 0,2,3
 895 217 895 217 895 178 c 2,4,5
 895 177 l 1,6,7
 895 177 l 257,8,9
 895 177 l 1,10,-1
 895 176 l 1,11,12
 895 175 l 2,13,14
 895 174 l 1,15,16
 895 174 l 1,17,18
 895 173 l 1,19,-1
 895 168 l 2,20,21
 894 124 894 124 884 81 c 256,22,23
 874 38 874 38 852 -3 c 0,24,25
 827 -49 827 -49 791 -87 c 256,26,27
 755 -125 755 -125 710 -152 c 0,28,29
 666 -179 666 -179 616 -193 c 0,30,31
 565 -208 565 -208 512 -208 c 256,32,33
 459 -208 459 -208 408 -193 c 0,34,35
 358 -179 358 -179 314 -152 c 0,36,37
 269 -125 269 -125 233 -87 c 256,38,39
 197 -49 197 -49 172 -3 c 0,40,41
 150 38 150 38 140 81 c 256,42,43
 130 124 130 124 129 168 c 0,44,45
 129 169 l 1,46,-1
 129 170 l 1,47,48
 129 170 l 257,49,50
 129 171 l 1,51,52
 129 171 l 1,53,-1
 129 172 l 1,54,55
 129 172 l 1,56,-1
 129 178 l 2,57,58
 129 217 129 217 136 256 c 0,59,60
 144 300 144 300 159 343 c 0,61,62
 184 412 184 412 221 477 c 0,63,64
 259 542 259 542 305 602 c 0,65,66
 351 661 351 661 404 715 c 256,67,68
 457 769 457 769 512 816 c 1,69,70
 567 769 567 769 620 715 c 256,71,72
 673 661 673 661 719 602 c 0,73,74
 765 542 765 542 803 477 c 0,75,76
 840 412 840 412 865 343 c 0,0,1
739 57 m 1,77,78
 768 112 768 112 768 168 c 0,79,80
 768 177 768 177 767 187 c 0,81,82
 761 252 761 252 744 300 c 0,83,84
 737 320 737 320 728 341 c 0,85,86
 718 362 718 362 707 384 c 1,87,88
 718 338 718 338 718 284 c 0,89,90
 718 276 718 276 718 267 c 0,91,92
 717 203 717 203 683 139 c 0,93,94
 663 100 663 100 633 69 c 0,95,96
 602 37 602 37 565 14 c 0,97,98
 528 -8 528 -8 486 -20 c 256,99,100
 444 -32 444 -32 400 -32 c 0,101,102
 390 -32 390 -32 380 -31 c 0,103,104
 370 -31 370 -31 360 -29 c 1,105,106
 393 -53 393 -53 432 -66 c 0,107,108
 471 -80 471 -80 512 -80 c 0,109,110
 582 -80 582 -80 644 -42 c 0,111,112
 706 -5 706 -5 739 57 c 1,113,114
 739 57 l 1,77,78
EndSplineSet
EndChar

StartChar: uniE90C
Encoding: 59660 59660 14
Width: 1024
VWidth: 880
GlyphClass: 2
Flags: W
LayerCount: 2
Fore
SplineSet
1024 240 m 1,0,1
 997 240 997 240 972 240 c 2,2,-1
 934 240 l 2,3,4
 903 240 903 240 874 240 c 2,5,-1
 851 240 l 2,6,7
 840 240 840 240 829 240 c 2,8,-1
 775 240 l 2,9,10
 764 240 764 240 754 240 c 2,11,-1
 724 240 l 2,12,13
 715 240 715 240 705 240 c 2,14,-1
 687 240 l 2,15,16
 677 240 677 240 668 240 c 2,17,-1
 482 240 l 2,18,19
 477 240 477 240 472 240 c 2,20,-1
 448 240 l 1,21,22
 448 239 448 239 448 237 c 2,23,-1
 448 234 l 2,24,25
 448 233 448 233 448 231 c 2,26,-1
 448 229 l 2,27,28
 448 228 448 228 448 227 c 2,29,-1
 448 221 l 2,30,31
 448 220 448 220 448 218 c 2,32,-1
 448 216 l 2,33,34
 448 213 448 213 448 210 c 2,35,-1
 448 207 l 2,36,37
 448 206 448 206 448 205 c 2,38,-1
 448 203 l 2,39,40
 448 201 448 201 448 200 c 2,41,-1
 448 181 l 2,42,43
 448 180 l 1,44,-1
 448 177 l 2,45,46
 448 176 l 1,47,-1
 457 176 l 1,48,49
 458 176 l 2,50,-1
 459 176 l 2,51,52
 460 176 460 176 461 176 c 2,53,-1
 463 176 l 1,54,55
 464 176 l 2,56,-1
 465 176 l 2,57,58
 466 176 l 1,59,-1
 480 176 l 2,60,61
 493 176 493 176 502 166 c 0,62,63
 512 157 512 157 512 144 c 0,64,65
 512 134 512 134 512 125 c 2,66,-1
 512 106 l 2,67,68
 512 87 512 87 512 69 c 2,69,-1
 512 34 l 2,70,71
 512 29 512 29 512 23 c 2,72,-1
 512 12 l 2,73,74
 512 7 512 7 512 1 c 2,75,-1
 512 -9 l 2,76,77
 512 -15 512 -15 512 -20 c 2,78,-1
 512 -30 l 2,79,80
 512 -35 512 -35 512 -40 c 2,81,-1
 512 -176 l 2,82,83
 512 -189 512 -189 502 -198 c 0,84,85
 493 -208 493 -208 480 -208 c 0,86,87
 476 -208 476 -208 472 -208 c 2,88,-1
 465 -208 l 2,89,90
 457 -208 457 -208 450 -208 c 2,91,-1
 436 -208 l 2,92,93
 434 -208 434 -208 432 -208 c 2,94,-1
 427 -208 l 2,95,96
 425 -208 425 -208 423 -208 c 2,97,-1
 419 -208 l 2,98,99
 417 -208 417 -208 415 -208 c 2,100,-1
 410 -208 l 2,101,102
 408 -208 408 -208 406 -208 c 2,103,-1
 352 -208 l 2,104,105
 339 -208 339 -208 330 -198 c 0,106,107
 320 -189 320 -189 320 -176 c 2,108,-1
 320 -89 l 2,109,110
 320 -83 320 -83 320 -78 c 2,111,-1
 320 -66 l 2,112,113
 320 -58 320 -58 320 -49 c 2,114,-1
 320 -28 l 2,115,116
 320 -20 320 -20 320 -12 c 2,117,-1
 320 -2 l 2,118,119
 320 3 320 3 320 8 c 2,120,-1
 320 144 l 2,121,122
 320 157 320 157 330 166 c 0,123,124
 339 176 339 176 352 176 c 2,125,-1
 362 176 l 1,126,127
 363 176 l 2,128,-1
 364 176 l 2,129,130
 365 176 365 176 366 176 c 2,131,-1
 368 176 l 2,132,133
 369 176 369 176 370 176 c 2,134,-1
 371 176 l 1,135,136
 372 176 l 2,137,-1
 384 176 l 1,138,139
 384 182 384 182 384 188 c 2,140,-1
 384 196 l 2,141,142
 384 203 384 203 384 209 c 2,143,-1
 384 214 l 2,144,145
 384 217 384 217 384 219 c 2,146,-1
 384 231 l 2,147,148
 384 234 384 234 384 236 c 2,149,-1
 384 243 l 2,150,151
 384 245 384 245 384 247 c 2,152,-1
 384 251 l 2,153,154
 384 253 384 253 384 255 c 2,155,-1
 384 296 l 2,156,157
 384 298 384 298 384 299 c 2,158,-1
 384 304 l 1,159,160
 397 304 397 304 410 304 c 2,161,-1
 436 304 l 2,162,163
 449 304 449 304 461 304 c 2,164,-1
 486 304 l 2,165,166
 492 304 492 304 498 304 c 2,167,-1
 557 304 l 2,168,169
 568 304 568 304 579 304 c 2,170,-1
 601 304 l 2,171,172
 628 304 628 304 654 304 c 2,173,-1
 684 304 l 2,174,175
 693 304 693 304 703 304 c 2,176,-1
 721 304 l 2,177,178
 731 304 731 304 740 304 c 2,179,-1
 915 304 l 2,180,181
 920 304 920 304 926 304 c 2,182,-1
 951 304 l 2,183,184
 956 304 956 304 960 304 c 1,185,186
 960 322 960 322 960 338 c 2,187,-1
 960 349 l 2,188,189
 960 371 960 371 960 391 c 2,190,-1
 960 401 l 2,191,192
 960 405 960 405 960 410 c 2,193,-1
 960 419 l 2,194,195
 960 431 960 431 960 441 c 2,196,-1
 960 454 l 2,197,198
 960 458 960 458 960 462 c 2,199,-1
 960 537 l 2,200,201
 960 539 960 539 960 540 c 2,202,-1
 960 545 l 2,203,204
 960 546 960 546 960 547 c 2,205,-1
 960 560 l 1,206,-1
 940 560 l 2,207,208
 933 560 933 560 927 560 c 2,209,-1
 922 560 l 2,210,211
 919 560 919 560 917 560 c 2,212,-1
 912 560 l 2,213,214
 908 560 908 560 905 560 c 2,215,-1
 896 560 l 2,216,217
 893 560 893 560 891 560 c 2,218,-1
 885 560 l 2,219,220
 883 560 883 560 881 560 c 2,221,-1
 842 560 l 2,222,223
 841 560 841 560 840 560 c 2,224,-1
 832 560 l 1,225,226
 832 557 832 557 832 555 c 2,227,-1
 832 542 l 2,228,229
 832 539 832 539 832 536 c 2,230,-1
 832 525 l 2,231,232
 832 524 832 524 832 523 c 2,233,-1
 832 503 l 2,234,235
 832 502 l 1,236,-1
 832 496 l 2,237,238
 832 470 832 470 813 451 c 256,239,240
 794 432 794 432 768 432 c 2,241,-1
 629 432 l 2,242,243
 616 432 616 432 603 432 c 2,244,-1
 526 432 l 2,245,246
 514 432 514 432 502 432 c 2,247,-1
 477 432 l 2,248,249
 465 432 465 432 454 432 c 2,250,-1
 430 432 l 2,251,252
 419 432 419 432 407 432 c 2,253,-1
 385 432 l 2,254,255
 374 432 374 432 363 432 c 2,256,-1
 64 432 l 2,257,258
 38 432 38 432 19 451 c 256,259,260
 0 470 0 470 0 496 c 2,261,-1
 0 688 l 2,262,263
 0 714 0 714 19 733 c 256,264,265
 38 752 38 752 64 752 c 0,266,267
 78 752 78 752 93 752 c 2,268,-1
 121 752 l 2,269,270
 135 752 135 752 149 752 c 2,271,-1
 176 752 l 2,272,273
 183 752 183 752 189 752 c 2,274,-1
 255 752 l 2,275,276
 268 752 268 752 281 752 c 2,277,-1
 306 752 l 2,278,279
 337 752 337 752 367 752 c 2,280,-1
 402 752 l 2,281,282
 413 752 413 752 425 752 c 2,283,-1
 447 752 l 2,284,285
 458 752 458 752 469 752 c 2,286,-1
 698 752 l 2,287,288
 707 752 707 752 715 752 c 2,289,-1
 753 752 l 2,290,291
 761 752 761 752 768 752 c 0,292,293
 794 752 794 752 813 733 c 256,294,295
 832 714 832 714 832 688 c 0,296,297
 832 685 832 685 832 682 c 2,298,-1
 832 669 l 2,299,300
 832 665 832 665 832 661 c 2,301,-1
 832 651 l 2,302,303
 832 649 832 649 832 648 c 2,304,-1
 832 630 l 2,305,306
 832 629 832 629 832 628 c 2,307,-1
 832 624 l 1,308,309
 841 624 841 624 849 624 c 2,310,-1
 862 624 l 2,311,312
 872 624 872 624 882 624 c 2,313,-1
 890 624 l 2,314,315
 893 624 893 624 897 624 c 2,316,-1
 915 624 l 2,317,318
 919 624 919 624 922 624 c 2,319,-1
 932 624 l 2,320,321
 935 624 935 624 938 624 c 2,322,-1
 944 624 l 2,323,324
 948 624 948 624 951 624 c 2,325,-1
 1013 624 l 2,326,327
 1014 624 1014 624 1016 624 c 2,328,-1
 1024 624 l 1,329,330
 1024 611 1024 611 1024 598 c 2,331,-1
 1024 572 l 2,332,333
 1024 548 1024 548 1024 524 c 2,334,-1
 1024 479 l 2,335,336
 1024 472 1024 472 1024 465 c 2,337,-1
 1024 451 l 2,338,339
 1024 444 1024 444 1024 437 c 2,340,-1
 1024 424 l 2,341,342
 1024 418 1024 418 1024 412 c 2,343,-1
 1024 399 l 2,344,345
 1024 393 1024 393 1024 387 c 2,346,-1
 1024 240 l 1,0,1
768 624 m 1,347,348
 768 627 768 627 768 630 c 2,349,-1
 768 634 l 2,350,351
 768 637 768 637 768 641 c 2,352,-1
 768 643 l 2,353,354
 768 644 768 644 768 646 c 2,355,-1
 768 652 l 2,356,357
 768 653 768 653 768 654 c 2,358,-1
 768 657 l 2,359,360
 768 658 768 658 768 659 c 2,361,-1
 768 661 l 2,362,363
 768 663 768 663 768 664 c 2,364,-1
 768 684 l 2,365,366
 768 685 l 1,367,-1
 768 688 l 1,368,369
 736 688 736 688 704 688 c 2,370,-1
 557 688 l 2,371,372
 515 688 515 688 476 688 c 2,373,-1
 356 688 l 2,374,375
 344 688 344 688 333 688 c 2,376,-1
 126 688 l 2,377,378
 119 688 119 688 113 688 c 2,379,-1
 64 688 l 1,380,381
 64 686 64 686 64 684 c 2,382,-1
 64 679 l 2,383,384
 64 675 64 675 64 671 c 2,385,-1
 64 664 l 2,386,387
 64 663 64 663 64 661 c 2,388,-1
 64 659 l 2,389,390
 64 658 64 658 64 657 c 2,391,-1
 64 655 l 2,392,393
 64 654 64 654 64 653 c 2,394,-1
 64 651 l 2,395,396
 64 649 64 649 64 648 c 2,397,-1
 64 624 l 1,398,399
 96 624 96 624 128 624 c 2,400,-1
 174 624 l 2,401,402
 211 624 211 624 247 624 c 2,403,-1
 275 624 l 2,404,405
 289 624 289 624 303 624 c 2,406,-1
 368 624 l 2,407,408
 381 624 381 624 394 624 c 2,409,-1
 430 624 l 2,410,411
 442 624 442 624 454 624 c 2,412,-1
 476 624 l 2,413,414
 488 624 488 624 499 624 c 2,415,-1
 726 624 l 2,416,417
 733 624 733 624 739 624 c 2,418,-1
 768 624 l 1,347,348
EndSplineSet
EndChar

StartChar: uniE90D
Encoding: 59661 59661 15
Width: 1024
VWidth: 880
GlyphClass: 2
Flags: W
LayerCount: 2
Fore
SplineSet
960 752 m 0,0,1
 986 752 986 752 1005 733 c 256,2,3
 1024 714 1024 714 1024 688 c 2,4,-1
 1024 234 l 2,5,6
 1024 222 1024 222 1024 211 c 2,7,-1
 1024 188 l 2,8,9
 1024 177 1024 177 1024 166 c 2,10,-1
 1024 144 l 2,11,12
 1024 133 1024 133 1024 123 c 2,13,-1
 1024 102 l 2,14,15
 1024 91 1024 91 1024 81 c 2,16,-1
 1024 23 l 2,17,18
 1024 -5 1024 -5 1024 -31 c 2,19,-1
 1024 -56 l 2,20,21
 1024 -68 1024 -68 1024 -80 c 0,22,23
 1024 -106 1024 -106 1005 -125 c 256,24,25
 986 -144 986 -144 960 -144 c 2,26,-1
 64 -144 l 2,27,28
 38 -144 38 -144 19 -125 c 256,29,30
 0 -106 0 -106 0 -80 c 2,31,-1
 0 688 l 2,32,33
 0 714 0 714 19 733 c 256,34,35
 38 752 38 752 64 752 c 0,36,37
 85 752 85 752 105 752 c 2,38,-1
 204 752 l 2,39,40
 223 752 223 752 242 752 c 2,41,-1
 631 752 l 2,42,43
 645 752 645 752 658 752 c 2,44,-1
 684 752 l 2,45,46
 697 752 697 752 709 752 c 2,47,-1
 745 752 l 2,48,49
 775 752 775 752 802 752 c 2,50,-1
 823 752 l 2,51,52
 833 752 833 752 843 752 c 2,53,-1
 889 752 l 2,54,55
 894 752 894 752 898 752 c 2,56,-1
 915 752 l 2,57,58
 923 752 923 752 931 752 c 2,59,-1
 946 752 l 2,60,61
 953 752 953 752 960 752 c 0,0,1
960 688 m 257,62,63
 960 688 l 1,64,-1
 818 688 l 2,65,66
 800 688 800 688 783 688 c 2,67,-1
 431 688 l 2,68,69
 417 688 417 688 403 688 c 2,70,-1
 276 688 l 2,71,72
 240 688 240 688 207 688 c 2,73,-1
 102 688 l 2,74,75
 82 688 82 688 64 688 c 1,76,-1
 64 234 l 2,77,78
 64 222 64 222 64 211 c 2,79,-1
 64 188 l 2,80,81
 64 177 64 177 64 166 c 2,82,-1
 64 144 l 2,83,84
 64 133 64 133 64 123 c 2,85,-1
 64 102 l 2,86,87
 64 91 64 91 64 81 c 2,88,-1
 64 23 l 2,89,90
 64 -5 64 -5 64 -31 c 2,91,-1
 64 -56 l 2,92,93
 64 -68 64 -68 64 -80 c 1,94,-1
 593 -80 l 2,95,96
 607 -80 607 -80 621 -80 c 2,97,-1
 647 -80 l 2,98,99
 660 -80 660 -80 673 -80 c 2,100,-1
 699 -80 l 2,101,102
 711 -80 711 -80 723 -80 c 2,103,-1
 748 -80 l 2,104,105
 760 -80 760 -80 772 -80 c 2,106,-1
 839 -80 l 2,107,108
 872 -80 872 -80 902 -80 c 2,109,-1
 932 -80 l 2,110,111
 946 -80 946 -80 960 -80 c 1,112,-1
 960 12 l 2,113,114
 960 20 960 20 960 27 c 2,115,-1
 960 57 l 2,116,117
 960 64 960 64 960 71 c 2,118,-1
 960 374 l 2,119,120
 960 386 960 386 960 397 c 2,121,-1
 960 431 l 2,122,123
 960 459 960 459 960 485 c 2,124,-1
 960 506 l 2,125,126
 960 517 960 517 960 527 c 2,127,-1
 960 546 l 2,128,129
 960 586 960 586 960 621 c 2,130,-1
 960 639 l 2,131,132
 960 660 960 660 960 680 c 2,133,-1
 960 688 l 1,134,135
 960 688 l 257,62,63
832 528 m 256,136,137
 832 488 832 488 804 460 c 256,138,139
 776 432 776 432 736 432 c 256,140,141
 696 432 696 432 668 460 c 256,142,143
 640 488 640 488 640 528 c 256,144,145
 640 568 640 568 668 596 c 256,146,147
 696 624 696 624 736 624 c 256,148,149
 776 624 776 624 804 596 c 256,150,151
 832 568 832 568 832 528 c 256,136,137
896 -16 m 1,152,153
 887 -16 887 -16 877 -16 c 2,154,-1
 857 -16 l 2,155,156
 836 -16 836 -16 812 -16 c 2,157,-1
 760 -16 l 2,158,159
 751 -16 751 -16 741 -16 c 2,160,-1
 722 -16 l 2,161,162
 712 -16 712 -16 702 -16 c 2,163,-1
 681 -16 l 2,164,165
 670 -16 670 -16 659 -16 c 2,166,-1
 637 -16 l 2,167,168
 626 -16 626 -16 614 -16 c 2,169,-1
 128 -16 l 1,170,171
 128 -15 128 -15 128 -13 c 2,172,-1
 128 -10 l 2,173,174
 128 -6 128 -6 128 -2 c 2,175,-1
 128 7 l 2,176,177
 128 8 128 8 128 10 c 2,178,-1
 128 13 l 2,179,180
 128 15 128 15 128 16 c 2,181,-1
 128 20 l 2,182,183
 128 22 128 22 128 23 c 2,184,-1
 128 27 l 2,185,186
 128 29 128 29 128 31 c 2,187,-1
 128 112 l 1,188,189
 147 144 147 144 179 199 c 2,190,-1
 188 214 l 2,191,192
 249 319 249 319 352 496 c 1,193,194
 360 486 360 486 370 474 c 2,195,-1
 377 464 l 2,196,197
 392 446 392 446 410 424 c 2,198,-1
 420 411 l 2,199,200
 490 324 490 324 608 176 c 1,201,-1
 616 176 l 2,202,203
 617 176 617 176 618 176 c 2,204,-1
 619 176 l 2,205,206
 620 176 620 176 622 176 c 2,207,-1
 625 176 l 2,208,209
 626 176 626 176 628 176 c 2,210,-1
 630 176 l 2,211,212
 631 176 631 176 632 176 c 2,213,-1
 672 176 l 1,214,215
 691 192 691 192 723 219 c 2,216,-1
 735 230 l 2,217,218
 795 282 795 282 896 368 c 1,219,220
 896 365 896 365 896 362 c 2,221,-1
 896 355 l 2,222,223
 896 352 896 352 896 349 c 2,224,-1
 896 341 l 2,225,226
 896 340 896 340 896 338 c 2,227,-1
 896 318 l 2,228,229
 896 314 896 314 896 309 c 2,230,-1
 896 300 l 2,231,232
 896 289 896 289 896 276 c 2,233,-1
 896 260 l 2,234,235
 896 255 896 255 896 250 c 2,236,-1
 896 238 l 2,237,238
 896 233 896 233 896 227 c 2,239,-1
 896 60 l 2,240,241
 896 52 896 52 896 44 c 2,242,-1
 896 2 l 2,243,244
 896 -7 896 -7 896 -16 c 1,152,153
EndSplineSet
EndChar

StartChar: uniE90E
Encoding: 59662 59662 16
Width: 1152
VWidth: 880
GlyphClass: 2
Flags: W
LayerCount: 2
Fore
SplineSet
1088 688 m 2,0,1
 1114 688 1114 688 1133 669 c 256,2,3
 1152 650 1152 650 1152 624 c 2,4,-1
 1152 473 l 2,5,6
 1152 458 1152 458 1152 444 c 2,7,-1
 1152 360 l 2,8,9
 1152 346 1152 346 1152 333 c 2,10,-1
 1152 307 l 2,11,12
 1152 294 1152 294 1152 281 c 2,13,-1
 1152 255 l 2,14,15
 1152 243 1152 243 1152 230 c 2,16,-1
 1152 206 l 2,17,18
 1152 194 1152 194 1152 182 c 2,19,-1
 1152 -144 l 2,20,21
 1152 -170 1152 -170 1133 -189 c 256,22,23
 1114 -208 1114 -208 1088 -208 c 0,24,25
 1060 -208 1060 -208 1034 -208 c 2,26,-1
 980 -208 l 2,27,28
 928 -208 928 -208 878 -208 c 2,29,-1
 780 -208 l 2,30,31
 764 -208 764 -208 749 -208 c 2,32,-1
 718 -208 l 2,33,34
 703 -208 703 -208 688 -208 c 2,35,-1
 658 -208 l 2,36,37
 643 -208 643 -208 629 -208 c 2,38,-1
 600 -208 l 2,39,40
 586 -208 586 -208 572 -208 c 2,41,-1
 192 -208 l 2,42,43
 166 -208 166 -208 147 -189 c 256,44,45
 128 -170 128 -170 128 -144 c 0,46,47
 128 -142 128 -142 128 -140 c 2,48,-1
 128 -135 l 2,49,50
 128 -131 128 -131 128 -127 c 2,51,-1
 128 -120 l 2,52,53
 128 -119 128 -119 128 -117 c 2,54,-1
 128 -115 l 2,55,56
 128 -114 128 -114 128 -113 c 2,57,-1
 128 -111 l 2,58,59
 128 -110 128 -110 128 -109 c 2,60,-1
 128 -107 l 2,61,62
 128 -105 128 -105 128 -104 c 2,63,-1
 128 -80 l 1,64,65
 126 -80 126 -80 124 -80 c 2,66,-1
 120 -80 l 2,67,68
 116 -80 116 -80 113 -80 c 2,69,-1
 106 -80 l 2,70,71
 105 -80 105 -80 104 -80 c 2,72,-1
 101 -80 l 2,73,74
 100 -80 100 -80 99 -80 c 2,75,-1
 97 -80 l 2,76,77
 96 -80 96 -80 95 -80 c 2,78,-1
 93 -80 l 2,79,80
 92 -80 92 -80 91 -80 c 2,81,-1
 64 -80 l 2,82,83
 38 -80 38 -80 19 -61 c 256,84,85
 0 -42 0 -42 0 -16 c 2,86,-1
 0 752 l 2,87,88
 0 778 0 778 19 797 c 256,89,90
 38 816 38 816 64 816 c 0,91,92
 119 816 119 816 172 816 c 2,93,-1
 206 816 l 2,94,95
 275 816 275 816 340 816 c 2,96,-1
 372 816 l 2,97,98
 388 816 388 816 403 816 c 2,99,-1
 434 816 l 2,100,101
 472 816 472 816 509 816 c 2,102,-1
 552 816 l 2,103,104
 566 816 566 816 580 816 c 2,105,-1
 861 816 l 2,106,107
 866 816 866 816 871 816 c 2,108,-1
 892 816 l 2,109,110
 897 816 897 816 902 816 c 2,111,-1
 960 816 l 2,112,113
 986 816 986 816 1005 797 c 256,114,115
 1024 778 1024 778 1024 752 c 0,116,117
 1024 750 1024 750 1024 748 c 2,118,-1
 1024 743 l 2,119,120
 1024 739 1024 739 1024 735 c 2,121,-1
 1024 728 l 2,122,123
 1024 727 1024 727 1024 725 c 2,124,-1
 1024 723 l 2,125,126
 1024 722 1024 722 1024 721 c 2,127,-1
 1024 719 l 2,128,129
 1024 718 1024 718 1024 717 c 2,130,-1
 1024 715 l 2,131,132
 1024 713 1024 713 1024 712 c 2,133,-1
 1024 688 l 1,134,135
 1027 688 1027 688 1030 688 c 2,136,-1
 1043 688 l 2,137,138
 1047 688 1047 688 1051 688 c 2,139,-1
 1061 688 l 2,140,141
 1063 688 1063 688 1064 688 c 2,142,-1
 1082 688 l 2,143,144
 1083 688 1083 688 1084 688 c 2,145,-1
 1088 688 l 2,0,1
128 624 m 1,146,147
 128 650 128 650 147 669 c 256,148,149
 166 688 166 688 192 688 c 0,150,151
 227 688 227 688 261 688 c 2,152,-1
 422 688 l 2,153,154
 468 688 468 688 510 688 c 2,155,-1
 642 688 l 2,156,157
 654 688 654 688 666 688 c 2,158,-1
 892 688 l 2,159,160
 900 688 900 688 907 688 c 2,161,-1
 960 688 l 1,162,163
 960 692 960 692 960 696 c 2,164,-1
 960 698 l 2,165,166
 960 703 960 703 960 708 c 2,167,-1
 960 710 l 2,168,169
 960 711 960 711 960 712 c 2,170,-1
 960 715 l 2,171,172
 960 717 960 717 960 720 c 2,173,-1
 960 723 l 2,174,175
 960 724 960 724 960 725 c 2,176,-1
 960 745 l 1,177,178
 960 746 l 2,179,-1
 960 747 l 2,180,181
 960 748 l 1,182,-1
 960 752 l 1,183,184
 960 752 l 257,185,186
 960 752 l 1,187,188
 942 752 942 752 924 752 c 2,189,-1
 888 752 l 2,190,191
 870 752 870 752 852 752 c 2,192,-1
 818 752 l 2,193,194
 809 752 809 752 800 752 c 2,195,-1
 717 752 l 2,196,197
 700 752 700 752 684 752 c 2,198,-1
 652 752 l 2,199,200
 613 752 613 752 575 752 c 2,201,-1
 530 752 l 2,202,203
 515 752 515 752 501 752 c 2,204,-1
 472 752 l 2,205,206
 458 752 458 752 444 752 c 2,207,-1
 153 752 l 2,208,209
 142 752 142 752 132 752 c 2,210,-1
 83 752 l 2,211,212
 73 752 73 752 64 752 c 1,213,214
 64 728 64 728 64 705 c 2,215,-1
 64 660 l 2,216,217
 64 615 64 615 64 572 c 2,218,-1
 64 488 l 2,219,220
 64 474 64 474 64 461 c 2,221,-1
 64 435 l 2,222,223
 64 422 64 422 64 409 c 2,224,-1
 64 383 l 2,225,226
 64 371 64 371 64 358 c 2,227,-1
 64 334 l 2,228,229
 64 322 64 322 64 310 c 2,230,-1
 64 -16 l 1,231,232
 66 -16 66 -16 68 -16 c 2,233,-1
 73 -16 l 2,234,235
 77 -16 77 -16 81 -16 c 2,236,-1
 88 -16 l 2,237,238
 89 -16 89 -16 91 -16 c 2,239,-1
 93 -16 l 2,240,241
 94 -16 94 -16 95 -16 c 2,242,-1
 97 -16 l 2,243,244
 98 -16 98 -16 99 -16 c 2,245,-1
 101 -16 l 2,246,247
 103 -16 103 -16 104 -16 c 2,248,-1
 128 -16 l 1,249,250
 128 6 128 6 128 28 c 2,251,-1
 128 70 l 2,252,253
 128 111 128 111 128 150 c 2,254,-1
 128 225 l 2,255,256
 128 237 128 237 128 249 c 2,257,-1
 128 272 l 2,258,259
 128 284 128 284 128 295 c 2,260,-1
 128 317 l 2,261,262
 128 328 128 328 128 338 c 2,263,-1
 128 359 l 2,264,265
 128 538 128 538 128 624 c 1,266,267
 128 624 l 1,146,147
1088 -144 m 1,268,-1
 1088 65 l 2,269,270
 1088 107 1088 107 1088 147 c 2,271,-1
 1088 173 l 2,272,273
 1088 186 1088 186 1088 199 c 2,274,-1
 1088 225 l 2,275,276
 1088 237 1088 237 1088 250 c 2,277,-1
 1088 274 l 2,278,279
 1088 286 1088 286 1088 298 c 2,280,-1
 1088 624 l 1,281,282
 1088 624 l 1,283,-1
 1070 624 l 2,284,285
 1042 624 1042 624 1016 624 c 2,286,-1
 963 624 l 2,287,288
 919 624 919 624 878 624 c 2,289,-1
 845 624 l 2,290,291
 828 624 828 624 812 624 c 2,292,-1
 733 624 l 2,293,294
 718 624 718 624 703 624 c 2,295,-1
 658 624 l 2,296,297
 643 624 643 624 629 624 c 2,298,-1
 600 624 l 2,299,300
 586 624 586 624 572 624 c 2,301,-1
 260 624 l 2,302,303
 250 624 250 624 240 624 c 2,304,-1
 192 624 l 1,305,306
 192 592 192 592 192 562 c 2,307,-1
 192 517 l 2,308,309
 192 479 192 479 192 444 c 2,310,-1
 192 415 l 2,311,312
 192 401 192 401 192 387 c 2,313,-1
 192 320 l 2,314,315
 192 307 192 307 192 294 c 2,316,-1
 192 255 l 2,317,318
 192 243 192 243 192 230 c 2,319,-1
 192 206 l 2,320,321
 192 194 192 194 192 182 c 2,322,-1
 192 -86 l 2,323,324
 192 -95 192 -95 192 -103 c 2,325,-1
 192 -144 l 1,326,-1
 1088 -144 l 1,268,-1
128 624 m 257,327,328
 128 624 l 257,329,330
 128 624 l 257,331,332
 128 624 l 257,327,328
960 464 m 256,333,334
 960 424 960 424 932 396 c 256,335,336
 904 368 904 368 864 368 c 256,337,338
 824 368 824 368 796 396 c 256,339,340
 768 424 768 424 768 464 c 256,341,342
 768 504 768 504 796 532 c 256,343,344
 824 560 824 560 864 560 c 256,345,346
 904 560 904 560 932 532 c 256,347,348
 960 504 960 504 960 464 c 256,333,334
1024 -80 m 1,349,-1
 730 -80 l 2,350,351
 718 -80 718 -80 706 -80 c 2,352,-1
 681 -80 l 2,353,354
 668 -80 668 -80 655 -80 c 2,355,-1
 629 -80 l 2,356,357
 616 -80 616 -80 602 -80 c 2,358,-1
 574 -80 l 2,359,360
 560 -80 560 -80 546 -80 c 2,361,-1
 456 -80 l 2,362,363
 409 -80 409 -80 359 -80 c 2,364,-1
 308 -80 l 2,365,366
 283 -80 283 -80 256 -80 c 1,367,-1
 256 -31 l 2,368,369
 256 -29 256 -29 256 -27 c 2,370,-1
 256 -23 l 2,371,372
 256 -21 256 -21 256 -19 c 2,373,-1
 256 -14 l 2,374,375
 256 -12 256 -12 256 -10 c 2,376,-1
 256 -5 l 2,377,378
 256 -3 256 -3 256 0 c 2,379,-1
 256 15 l 2,380,381
 256 23 256 23 256 31 c 2,382,-1
 256 39 l 2,383,384
 256 44 256 44 256 48 c 0,385,386
 275 80 275 80 307 135 c 2,387,-1
 319 156 l 2,388,389
 379 259 379 259 480 432 c 1,390,391
 488 422 488 422 498 410 c 2,392,-1
 505 400 l 2,393,394
 520 382 520 382 538 360 c 2,395,-1
 548 347 l 2,396,397
 618 260 618 260 736 112 c 1,398,-1
 760 112 l 2,399,400
 761 112 761 112 763 112 c 2,401,-1
 765 112 l 2,402,403
 766 112 766 112 767 112 c 2,404,-1
 769 112 l 2,405,406
 770 112 770 112 771 112 c 2,407,-1
 773 112 l 2,408,409
 775 112 775 112 776 112 c 2,410,-1
 783 112 l 2,411,412
 787 112 787 112 791 112 c 2,413,-1
 796 112 l 2,414,415
 798 112 798 112 800 112 c 0,416,417
 819 128 819 128 851 155 c 2,418,-1
 863 166 l 2,419,420
 923 218 923 218 1024 304 c 1,421,-1
 1024 157 l 2,422,423
 1024 151 1024 151 1024 145 c 2,424,-1
 1024 132 l 2,425,426
 1024 126 1024 126 1024 120 c 2,427,-1
 1024 107 l 2,428,429
 1024 100 1024 100 1024 93 c 2,430,-1
 1024 79 l 2,431,432
 1024 72 1024 72 1024 65 c 2,433,-1
 1024 20 l 2,434,435
 1024 -4 1024 -4 1024 -28 c 2,436,-1
 1024 -54 l 2,437,438
 1024 -67 1024 -67 1024 -80 c 1,349,-1
EndSplineSet
EndChar

StartChar: uniE90F
Encoding: 59663 59663 17
Width: 1024
VWidth: 880
GlyphClass: 2
Flags: W
LayerCount: 2
Fore
SplineSet
960 560 m 2,0,1
 986 560 986 560 1005 541 c 256,2,3
 1024 522 1024 522 1024 496 c 0,4,5
 1024 478 1024 478 1024 461 c 2,6,-1
 1024 427 l 2,7,8
 1024 393 1024 393 1024 361 c 2,9,-1
 1024 298 l 2,10,11
 1024 288 1024 288 1024 278 c 2,12,-1
 1024 258 l 2,13,14
 1024 248 1024 248 1024 239 c 2,15,-1
 1024 220 l 2,16,17
 1024 210 1024 210 1024 201 c 2,18,-1
 1024 182 l 2,19,20
 1024 173 1024 173 1024 164 c 2,21,-1
 1024 -80 l 2,22,23
 1024 -106 1024 -106 1005 -125 c 256,24,25
 986 -144 986 -144 960 -144 c 2,26,-1
 64 -144 l 2,27,28
 38 -144 38 -144 19 -125 c 256,29,30
 0 -106 0 -106 0 -80 c 2,31,-1
 0 496 l 2,32,33
 0 522 0 522 19 541 c 256,34,35
 38 560 38 560 64 560 c 2,36,-1
 95 560 l 2,37,38
 106 560 106 560 116 560 c 2,39,-1
 125 560 l 2,40,41
 129 560 129 560 133 560 c 2,42,-1
 141 560 l 2,43,44
 147 560 147 560 153 560 c 2,45,-1
 168 560 l 2,46,47
 171 560 171 560 175 560 c 2,48,-1
 186 560 l 2,49,50
 189 560 189 560 193 560 c 2,51,-1
 266 560 l 2,52,53
 268 560 268 560 271 560 c 2,54,-1
 288 560 l 1,55,56
 300 608 300 608 318 648 c 256,57,58
 336 688 336 688 384 688 c 0,59,60
 395 688 395 688 405 688 c 2,61,-1
 454 688 l 2,62,63
 468 688 468 688 481 688 c 2,64,-1
 524 688 l 2,65,66
 528 688 528 688 532 688 c 2,67,-1
 612 688 l 2,68,69
 615 688 615 688 618 688 c 2,70,-1
 640 688 l 2,71,72
 688 688 688 688 706 648 c 256,73,74
 724 608 724 608 736 560 c 1,75,-1
 771 560 l 2,76,77
 783 560 783 560 794 560 c 2,78,-1
 803 560 l 2,79,80
 808 560 808 560 812 560 c 2,81,-1
 820 560 l 2,82,83
 827 560 827 560 833 560 c 2,84,-1
 849 560 l 2,85,86
 853 560 853 560 856 560 c 2,87,-1
 867 560 l 2,88,89
 871 560 871 560 874 560 c 2,90,-1
 942 560 l 2,91,92
 945 560 945 560 947 560 c 2,93,-1
 960 560 l 2,0,1
512 -76 m 256,94,95
 571 -76 571 -76 623 -54 c 0,96,97
 674 -31 674 -31 712 8 c 0,98,99
 751 46 751 46 774 97 c 0,100,101
 796 149 796 149 796 208 c 256,102,103
 796 267 796 267 774 319 c 0,104,105
 751 370 751 370 712 408 c 0,106,107
 674 447 674 447 623 470 c 0,108,109
 571 492 571 492 512 492 c 256,110,111
 453 492 453 492 401 470 c 0,112,113
 350 447 350 447 312 408 c 0,114,115
 273 370 273 370 250 319 c 0,116,117
 228 267 228 267 228 208 c 256,118,119
 228 149 228 149 250 97 c 0,120,121
 273 46 273 46 312 8 c 0,122,123
 350 -31 350 -31 401 -54 c 0,124,125
 453 -76 453 -76 512 -76 c 256,94,95
960 368 m 1,126,127
 960 372 960 372 960 377 c 2,128,-1
 960 379 l 2,129,130
 960 385 960 385 960 390 c 2,131,-1
 960 392 l 2,132,133
 960 393 960 393 960 395 c 2,134,-1
 960 397 l 2,135,136
 960 400 960 400 960 402 c 2,137,-1
 960 405 l 2,138,139
 960 407 960 407 960 408 c 2,140,-1
 960 426 l 2,141,142
 960 427 l 1,143,-1
 960 428 l 1,144,145
 960 429 l 2,146,-1
 960 432 l 1,147,-1
 932 432 l 2,148,149
 929 432 929 432 927 432 c 2,150,-1
 912 432 l 2,151,152
 909 432 909 432 907 432 c 2,153,-1
 902 432 l 2,154,155
 900 432 900 432 898 432 c 2,156,-1
 893 432 l 2,157,158
 891 432 891 432 889 432 c 2,159,-1
 885 432 l 2,160,161
 883 432 883 432 881 432 c 2,162,-1
 832 432 l 1,163,164
 832 429 832 429 832 426 c 2,165,-1
 832 413 l 2,166,167
 832 409 832 409 832 405 c 2,168,-1
 832 395 l 2,169,170
 832 393 832 393 832 392 c 2,171,-1
 832 374 l 2,172,173
 832 373 832 373 832 372 c 2,174,-1
 832 368 l 1,175,176
 836 368 836 368 841 368 c 2,177,-1
 849 368 l 2,178,179
 857 368 857 368 865 368 c 2,180,-1
 880 368 l 2,181,182
 883 368 883 368 885 368 c 2,183,-1
 890 368 l 2,184,185
 892 368 892 368 894 368 c 2,186,-1
 899 368 l 2,187,188
 901 368 901 368 903 368 c 2,189,-1
 907 368 l 2,190,191
 909 368 909 368 911 368 c 2,192,-1
 960 368 l 1,126,127
304 208 m 256,193,194
 304 251 304 251 320 289 c 0,195,196
 337 327 337 327 365 355 c 256,197,198
 393 383 393 383 431 400 c 0,199,200
 469 416 469 416 512 416 c 256,201,202
 555 416 555 416 593 400 c 0,203,204
 631 383 631 383 659 355 c 256,205,206
 687 327 687 327 704 289 c 0,207,208
 720 251 720 251 720 208 c 256,209,210
 720 165 720 165 704 127 c 0,211,212
 687 89 687 89 659 61 c 256,213,214
 631 33 631 33 593 16 c 0,215,216
 555 0 555 0 512 0 c 256,217,218
 469 0 469 0 431 16 c 0,219,220
 393 33 393 33 365 61 c 256,221,222
 337 89 337 89 320 127 c 0,223,224
 304 165 304 165 304 208 c 256,193,194
EndSplineSet
EndChar

StartChar: uniE910
Encoding: 59664 59664 18
Width: 1024
VWidth: 880
GlyphClass: 2
Flags: W
LayerCount: 2
Fore
SplineSet
1024 304 m 1,0,1
 1024 304 l 1,2,-1
 1024 303 l 2,3,4
 1024 257 1024 257 1016 214 c 0,5,6
 1008 170 1008 170 993 129 c 1,7,8
 1008 104 1008 104 1016 75 c 0,9,10
 1024 47 1024 47 1024 16 c 0,11,12
 1024 -26 1024 -26 1009 -64 c 0,13,14
 995 -102 995 -102 969 -132 c 0,15,16
 943 -161 943 -161 908 -180 c 0,17,18
 873 -200 873 -200 832 -206 c 1,19,20
 832 -188 832 -188 832 -170 c 2,21,-1
 832 -85 l 2,22,23
 832 -61 832 -61 832 -38 c 2,24,-1
 832 36 l 2,25,26
 832 43 832 43 832 50 c 2,27,-1
 832 189 l 2,28,29
 832 194 832 194 832 199 c 2,30,-1
 832 238 l 1,31,32
 856 234 856 234 878 226 c 256,33,34
 900 218 900 218 920 205 c 1,35,36
 924 225 924 225 926 246 c 256,37,38
 928 267 928 267 928 288 c 0,39,40
 928 374 928 374 895 450 c 0,41,42
 863 526 863 526 806 582 c 0,43,44
 750 639 750 639 674 671 c 0,45,46
 598 704 598 704 512 704 c 256,47,48
 426 704 426 704 350 671 c 0,49,50
 274 639 274 639 218 582 c 0,51,52
 161 526 161 526 129 450 c 0,53,54
 96 374 96 374 96 288 c 0,55,56
 96 267 96 267 98 246 c 256,57,58
 100 225 100 225 104 205 c 1,59,60
 124 218 124 218 146 226 c 256,61,62
 168 234 168 234 192 238 c 1,63,64
 192 220 192 220 192 202 c 2,65,-1
 192 176 l 2,66,67
 192 154 192 154 192 134 c 2,68,-1
 192 117 l 2,69,70
 192 109 192 109 192 101 c 2,71,-1
 192 62 l 2,72,73
 192 55 192 55 192 47 c 2,74,-1
 192 25 l 2,75,76
 192 18 192 18 192 10 c 2,77,-1
 192 -4 l 2,78,79
 192 -11 192 -11 192 -18 c 2,80,-1
 192 -172 l 2,81,82
 192 -177 192 -177 192 -182 c 2,83,-1
 192 -206 l 1,84,85
 151 -200 151 -200 116 -180 c 0,86,87
 81 -161 81 -161 55 -132 c 0,88,89
 29 -102 29 -102 15 -64 c 0,90,91
 0 -26 0 -26 0 16 c 0,92,93
 0 47 0 47 8 75 c 0,94,95
 16 104 16 104 31 129 c 1,96,97
 16 170 16 170 8 214 c 256,98,99
 0 258 0 258 0 304 c 0,100,101
 0 410 0 410 40 503 c 0,102,103
 80 597 80 597 150 666 c 0,104,105
 219 736 219 736 313 776 c 0,106,107
 406 816 406 816 512 816 c 256,108,109
 618 816 618 816 711 776 c 0,110,111
 805 736 805 736 874 666 c 0,112,113
 944 597 944 597 984 503 c 0,114,115
 1024 410 1024 410 1024 304 c 1,0,1
736 240 m 0,116,117
 739 240 739 240 742 240 c 2,118,-1
 746 240 l 2,119,120
 749 240 749 240 753 240 c 2,121,-1
 755 240 l 2,122,123
 756 240 756 240 758 240 c 2,124,-1
 764 240 l 2,125,126
 765 240 765 240 766 240 c 2,127,-1
 769 240 l 2,128,129
 770 240 770 240 771 240 c 2,130,-1
 773 240 l 2,131,132
 775 240 775 240 776 240 c 2,133,-1
 796 240 l 2,134,135
 797 240 l 1,136,-1
 800 240 l 1,137,-1
 800 190 l 2,138,139
 800 155 800 155 800 124 c 2,140,-1
 800 80 l 2,141,142
 800 67 800 67 800 54 c 2,143,-1
 800 30 l 2,144,145
 800 11 800 11 800 -8 c 2,146,-1
 800 -22 l 2,147,148
 800 -30 800 -30 800 -37 c 2,149,-1
 800 -208 l 1,150,151
 798 -208 798 -208 796 -208 c 2,152,-1
 792 -208 l 2,153,154
 788 -208 788 -208 785 -208 c 2,155,-1
 778 -208 l 2,156,157
 777 -208 777 -208 776 -208 c 2,158,-1
 773 -208 l 2,159,160
 772 -208 772 -208 771 -208 c 2,161,-1
 769 -208 l 2,162,163
 768 -208 768 -208 767 -208 c 2,164,-1
 765 -208 l 2,165,166
 764 -208 764 -208 763 -208 c 2,167,-1
 736 -208 l 2,168,169
 723 -208 723 -208 714 -198 c 0,170,171
 704 -189 704 -189 704 -176 c 2,172,-1
 704 -122 l 2,173,174
 704 -104 704 -104 704 -86 c 2,175,-1
 704 -72 l 2,176,177
 704 -65 704 -65 704 -58 c 2,178,-1
 704 -44 l 2,179,180
 704 -34 704 -34 704 -24 c 2,181,-1
 704 2 l 2,182,183
 704 8 704 8 704 15 c 2,184,-1
 704 33 l 2,185,186
 704 39 704 39 704 45 c 2,187,-1
 704 170 l 2,188,189
 704 175 704 175 704 179 c 2,190,-1
 704 208 l 2,191,192
 704 221 704 221 714 230 c 0,193,194
 723 240 723 240 736 240 c 0,116,117
288 240 m 2,195,196
 301 240 301 240 310 230 c 0,197,198
 320 221 320 221 320 208 c 2,199,-1
 320 104 l 2,200,201
 320 97 320 97 320 90 c 2,202,-1
 320 76 l 2,203,204
 320 66 320 66 320 56 c 2,205,-1
 320 30 l 2,206,207
 320 20 320 20 320 11 c 2,208,-1
 320 -1 l 2,209,210
 320 -7 320 -7 320 -13 c 2,211,-1
 320 -176 l 2,212,213
 320 -189 320 -189 310 -198 c 0,214,215
 301 -208 301 -208 288 -208 c 0,216,217
 286 -208 286 -208 284 -208 c 2,218,-1
 279 -208 l 2,219,220
 275 -208 275 -208 271 -208 c 2,221,-1
 264 -208 l 2,222,223
 263 -208 263 -208 261 -208 c 2,224,-1
 259 -208 l 2,225,226
 258 -208 258 -208 257 -208 c 2,227,-1
 255 -208 l 2,228,229
 254 -208 254 -208 253 -208 c 2,230,-1
 251 -208 l 2,231,232
 249 -208 249 -208 248 -208 c 2,233,-1
 224 -208 l 1,234,235
 224 -198 224 -198 224 -188 c 2,236,-1
 224 -167 l 2,237,238
 224 -158 224 -158 224 -148 c 2,239,-1
 224 -129 l 2,240,241
 224 -124 224 -124 224 -119 c 2,242,-1
 224 -74 l 2,243,244
 224 -65 224 -65 224 -56 c 2,245,-1
 224 -39 l 2,246,247
 224 -18 224 -18 224 2 c 2,248,-1
 224 25 l 2,249,250
 224 33 224 33 224 40 c 2,251,-1
 224 54 l 2,252,253
 224 62 224 62 224 69 c 2,254,-1
 224 205 l 2,255,256
 224 209 224 209 224 213 c 2,257,-1
 224 233 l 2,258,259
 224 237 224 237 224 240 c 1,260,261
 227 240 227 240 230 240 c 2,262,-1
 234 240 l 2,263,264
 237 240 237 240 241 240 c 2,265,-1
 243 240 l 2,266,267
 244 240 244 240 246 240 c 2,268,-1
 252 240 l 2,269,270
 253 240 253 240 254 240 c 2,271,-1
 257 240 l 2,272,273
 258 240 258 240 259 240 c 2,274,-1
 261 240 l 2,275,276
 263 240 263 240 264 240 c 2,277,-1
 284 240 l 2,278,279
 285 240 l 1,280,-1
 288 240 l 2,195,196
EndSplineSet
EndChar

StartChar: uniE911
Encoding: 59665 59665 19
Width: 1024
VWidth: 880
GlyphClass: 2
Flags: W
LayerCount: 2
Fore
SplineSet
960 816 m 0,0,1
 961 816 961 816 963 816 c 2,2,-1
 964 816 l 2,3,4
 967 816 967 816 970 816 c 2,5,-1
 971 816 l 2,6,7
 972 816 972 816 973 816 c 2,8,-1
 974 816 l 2,9,10
 977 816 977 816 979 816 c 2,11,-1
 982 816 l 2,12,13
 983 816 983 816 984 816 c 2,14,-1
 1010 816 l 2,15,16
 1011 816 l 1,17,-1
 1014 816 l 2,18,19
 1015 816 l 1,20,-1
 1024 816 l 1,21,22
 1024 808 1024 808 1024 798 c 2,23,-1
 1024 779 l 2,24,25
 1024 759 1024 759 1024 736 c 2,26,-1
 1024 686 l 2,27,28
 1024 677 1024 677 1024 668 c 2,29,-1
 1024 649 l 2,30,31
 1024 640 1024 640 1024 630 c 2,32,-1
 1024 610 l 2,33,34
 1024 600 1024 600 1024 589 c 2,35,-1
 1024 568 l 2,36,37
 1024 557 1024 557 1024 546 c 2,38,-1
 1024 80 l 2,39,40
 1024 47 1024 47 1006 18 c 0,41,42
 989 -11 989 -11 958 -33 c 0,43,44
 928 -55 928 -55 887 -67 c 0,45,46
 846 -80 846 -80 800 -80 c 256,47,48
 754 -80 754 -80 713 -67 c 0,49,50
 672 -55 672 -55 642 -33 c 0,51,52
 611 -11 611 -11 594 18 c 0,53,54
 576 47 576 47 576 80 c 256,55,56
 576 113 576 113 594 142 c 0,57,58
 611 171 611 171 642 193 c 0,59,60
 672 215 672 215 713 227 c 0,61,62
 754 240 754 240 800 240 c 0,63,64
 847 240 847 240 888 227 c 0,65,66
 930 214 930 214 960 192 c 1,67,68
 960 203 960 203 960 216 c 2,69,-1
 960 224 l 2,70,71
 960 241 960 241 960 260 c 2,72,-1
 960 269 l 2,73,74
 960 274 960 274 960 279 c 2,75,-1
 960 289 l 2,76,77
 960 302 960 302 960 315 c 2,78,-1
 960 332 l 2,79,80
 960 337 960 337 960 343 c 2,81,-1
 960 488 l 2,82,83
 960 491 960 491 960 494 c 2,84,-1
 960 509 l 2,85,86
 960 512 960 512 960 516 c 2,87,-1
 960 560 l 1,88,89
 832 532 832 532 448 446 c 0,90,91
 448 442 448 442 448 438 c 2,92,-1
 448 430 l 2,93,94
 448 426 448 426 448 421 c 2,95,-1
 448 412 l 2,96,97
 448 410 448 410 448 407 c 2,98,-1
 448 382 l 2,99,100
 448 376 448 376 448 370 c 2,101,-1
 448 359 l 2,102,103
 448 344 448 344 448 328 c 2,104,-1
 448 308 l 2,105,106
 448 301 448 301 448 294 c 2,107,-1
 448 280 l 2,108,109
 448 272 448 272 448 265 c 2,110,-1
 448 50 l 2,111,112
 448 40 448 40 448 29 c 2,113,-1
 448 -25 l 2,114,115
 448 -37 448 -37 448 -48 c 0,116,117
 448 -81 448 -81 430 -110 c 0,118,119
 413 -139 413 -139 382 -161 c 0,120,121
 352 -183 352 -183 311 -195 c 0,122,123
 270 -208 270 -208 224 -208 c 256,124,125
 178 -208 178 -208 137 -195 c 0,126,127
 96 -183 96 -183 66 -161 c 0,128,129
 35 -139 35 -139 18 -110 c 0,130,131
 0 -81 0 -81 0 -48 c 256,132,133
 0 -15 0 -15 18 14 c 0,134,135
 35 43 35 43 66 65 c 0,136,137
 96 87 96 87 137 99 c 0,138,139
 178 112 178 112 224 112 c 0,140,141
 271 112 271 112 312 99 c 0,142,143
 354 86 354 86 384 64 c 1,144,145
 384 77 384 77 384 90 c 2,146,-1
 384 111 l 2,147,148
 384 129 384 129 384 148 c 2,149,-1
 384 163 l 2,150,151
 384 171 384 171 384 179 c 2,152,-1
 384 220 l 2,153,154
 384 229 384 229 384 237 c 2,155,-1
 384 264 l 2,156,157
 384 273 384 273 384 282 c 2,158,-1
 384 300 l 2,159,160
 384 310 384 310 384 319 c 2,161,-1
 384 601 l 2,162,163
 384 613 384 613 384 625 c 2,164,-1
 384 688 l 1,165,166
 435 699 435 699 522 719 c 2,167,-1
 537 722 l 2,168,169
 584 733 584 733 641 745 c 2,170,-1
 660 749 l 2,171,172
 787 778 787 778 960 816 c 0,0,1
EndSplineSet
EndChar

StartChar: uniE912
Encoding: 59666 59666 20
Width: 1024
VWidth: 880
GlyphClass: 2
Flags: W
LayerCount: 2
Fore
SplineSet
981 656 m 1,0,1
 992 615 992 615 999 573 c 0,2,3
 1007 531 1007 531 1012 486 c 0,4,5
 1018 442 1018 442 1021 397 c 0,6,7
 1024 351 1024 351 1024 304 c 256,8,9
 1024 257 1024 257 1021 211 c 0,10,11
 1018 166 1018 166 1012 122 c 0,12,13
 1007 77 1007 77 999 35 c 0,14,15
 992 -7 992 -7 981 -48 c 1,16,17
 927 -56 927 -56 871 -62 c 0,18,19
 814 -68 814 -68 755 -72 c 256,20,21
 696 -76 696 -76 636 -78 c 0,22,23
 575 -80 575 -80 512 -80 c 256,24,25
 449 -80 449 -80 388 -78 c 0,26,27
 328 -76 328 -76 269 -72 c 256,28,29
 210 -68 210 -68 153 -62 c 0,30,31
 97 -56 97 -56 43 -48 c 1,32,33
 32 -7 32 -7 25 35 c 0,34,35
 17 77 17 77 12 122 c 0,36,37
 6 166 6 166 3 211 c 0,38,39
 0 257 0 257 0 304 c 256,40,41
 0 351 0 351 3 397 c 0,42,43
 6 442 6 442 12 486 c 0,44,45
 17 531 17 531 25 573 c 0,46,47
 32 615 32 615 43 656 c 1,48,49
 97 664 97 664 153 670 c 0,50,51
 210 676 210 676 269 680 c 256,52,53
 328 684 328 684 388 686 c 0,54,55
 449 688 449 688 512 688 c 256,56,57
 575 688 575 688 636 686 c 0,58,59
 696 684 696 684 755 680 c 256,60,61
 814 676 814 676 871 670 c 0,62,63
 927 664 927 664 981 656 c 1,0,1
384 112 m 1,64,65
 425 136 425 136 461 158 c 2,66,-1
 486 173 l 2,67,68
 564 220 564 220 619 253 c 2,69,-1
 632 261 l 2,70,71
 677 288 677 288 704 304 c 1,72,73
 608 362 608 362 538 404 c 2,74,-1
 527 410 l 2,75,76
 495 429 495 429 469 445 c 2,77,-1
 456 453 l 2,78,79
 411 480 411 480 384 496 c 1,80,81
 384 478 384 478 384 461 c 2,82,-1
 384 436 l 2,83,84
 384 416 384 416 384 396 c 2,85,-1
 384 381 l 2,86,87
 384 373 384 373 384 366 c 2,88,-1
 384 330 l 2,89,90
 384 323 384 323 384 316 c 2,91,-1
 384 296 l 2,92,93
 384 290 384 290 384 284 c 2,94,-1
 384 271 l 2,95,96
 384 265 384 265 384 259 c 2,97,-1
 384 135 l 2,98,99
 384 131 384 131 384 128 c 2,100,-1
 384 112 l 1,64,65
EndSplineSet
EndChar

StartChar: uniE913
Encoding: 59667 59667 21
Width: 1024
VWidth: 880
GlyphClass: 2
Flags: W
LayerCount: 2
Fore
SplineSet
0 688 m 1,0,1
 47 688 47 688 93 688 c 2,2,-1
 307 688 l 2,3,4
 368 688 368 688 424 688 c 2,5,-1
 600 688 l 2,6,7
 616 688 616 688 632 688 c 2,8,-1
 933 688 l 2,9,10
 943 688 943 688 953 688 c 2,11,-1
 1024 688 l 1,12,13
 1024 661 1024 661 1024 636 c 2,14,-1
 1024 585 l 2,15,16
 1024 535 1024 535 1024 488 c 2,17,-1
 1024 398 l 2,18,19
 1024 384 1024 384 1024 370 c 2,20,-1
 1024 342 l 2,21,22
 1024 328 1024 328 1024 315 c 2,23,-1
 1024 289 l 2,24,25
 1024 276 1024 276 1024 263 c 2,26,-1
 1024 238 l 2,27,28
 1024 226 1024 226 1024 214 c 2,29,-1
 1024 -80 l 1,30,31
 989 -80 989 -80 954 -80 c 2,32,-1
 887 -80 l 2,33,34
 820 -80 820 -80 758 -80 c 2,35,-1
 638 -80 l 2,36,37
 619 -80 619 -80 600 -80 c 2,38,-1
 563 -80 l 2,39,40
 544 -80 544 -80 527 -80 c 2,41,-1
 492 -80 l 2,42,43
 474 -80 474 -80 457 -80 c 2,44,-1
 424 -80 l 2,45,46
 408 -80 408 -80 392 -80 c 2,47,-1
 0 -80 l 1,48,-1
 0 688 l 1,0,1
768 -16 m 1,49,50
 768 14 768 14 768 42 c 2,51,-1
 768 84 l 2,52,53
 768 118 768 118 768 150 c 2,54,-1
 768 176 l 2,55,56
 768 189 768 189 768 201 c 2,57,-1
 768 261 l 2,58,59
 768 272 768 272 768 284 c 2,60,-1
 768 317 l 2,61,62
 768 328 768 328 768 338 c 2,63,-1
 768 359 l 2,64,65
 768 369 768 369 768 379 c 2,66,-1
 768 586 l 2,67,68
 768 592 768 592 768 597 c 2,69,-1
 768 624 l 1,70,71
 744 624 744 624 722 624 c 2,72,-1
 688 624 l 2,73,74
 661 624 661 624 635 624 c 2,75,-1
 614 624 l 2,76,77
 604 624 604 624 594 624 c 2,78,-1
 547 624 l 2,79,80
 537 624 537 624 528 624 c 2,81,-1
 502 624 l 2,82,83
 493 624 493 624 485 624 c 2,84,-1
 468 624 l 2,85,86
 460 624 460 624 452 624 c 2,87,-1
 287 624 l 2,88,89
 282 624 282 624 277 624 c 2,90,-1
 256 624 l 1,91,92
 256 602 256 602 256 580 c 2,93,-1
 256 538 l 2,94,95
 256 497 256 497 256 458 c 2,96,-1
 256 383 l 2,97,98
 256 371 256 371 256 359 c 2,99,-1
 256 336 l 2,100,101
 256 324 256 324 256 313 c 2,102,-1
 256 291 l 2,103,104
 256 280 256 280 256 270 c 2,105,-1
 256 249 l 2,106,107
 256 239 256 239 256 229 c 2,108,-1
 256 -16 l 1,109,110
 274 -16 274 -16 291 -16 c 2,111,-1
 325 -16 l 2,112,113
 358 -16 358 -16 389 -16 c 2,114,-1
 449 -16 l 2,115,116
 459 -16 459 -16 468 -16 c 2,117,-1
 487 -16 l 2,118,119
 496 -16 496 -16 505 -16 c 2,120,-1
 522 -16 l 2,121,122
 531 -16 531 -16 539 -16 c 2,123,-1
 556 -16 l 2,124,125
 564 -16 564 -16 572 -16 c 2,126,-1
 768 -16 l 1,49,50
192 496 m 1,127,128
 192 502 192 502 192 508 c 2,129,-1
 192 516 l 2,130,131
 192 523 192 523 192 529 c 2,132,-1
 192 534 l 2,133,134
 192 537 192 537 192 539 c 2,135,-1
 192 551 l 2,136,137
 192 554 192 554 192 556 c 2,138,-1
 192 563 l 2,139,140
 192 565 192 565 192 567 c 2,141,-1
 192 571 l 2,142,143
 192 573 192 573 192 575 c 2,144,-1
 192 616 l 2,145,146
 192 618 192 618 192 619 c 2,147,-1
 192 624 l 1,148,149
 186 624 186 624 180 624 c 2,150,-1
 172 624 l 2,151,152
 165 624 165 624 159 624 c 2,153,-1
 154 624 l 2,154,155
 151 624 151 624 149 624 c 2,156,-1
 137 624 l 2,157,158
 134 624 134 624 132 624 c 2,159,-1
 125 624 l 2,160,161
 123 624 123 624 121 624 c 2,162,-1
 117 624 l 2,163,164
 115 624 115 624 113 624 c 2,165,-1
 72 624 l 2,166,167
 70 624 70 624 69 624 c 2,168,-1
 64 624 l 1,169,170
 64 620 64 620 64 615 c 2,171,-1
 64 607 l 2,172,173
 64 599 64 599 64 591 c 2,174,-1
 64 576 l 2,175,176
 64 573 64 573 64 571 c 2,177,-1
 64 566 l 2,178,179
 64 564 64 564 64 562 c 2,180,-1
 64 557 l 2,181,182
 64 555 64 555 64 553 c 2,183,-1
 64 549 l 2,184,185
 64 547 64 547 64 545 c 2,186,-1
 64 496 l 1,187,-1
 102 496 l 2,188,189
 105 496 105 496 107 496 c 2,190,-1
 112 496 l 2,191,192
 116 496 116 496 119 496 c 2,193,-1
 128 496 l 2,194,195
 132 496 132 496 135 496 c 2,196,-1
 139 496 l 2,197,198
 141 496 141 496 143 496 c 2,199,-1
 192 496 l 1,127,128
960 496 m 1,200,201
 960 505 960 505 960 513 c 2,202,-1
 960 519 l 2,203,204
 960 530 960 530 960 539 c 2,205,-1
 960 544 l 2,206,207
 960 547 960 547 960 549 c 2,208,-1
 960 554 l 2,209,210
 960 559 960 559 960 565 c 2,211,-1
 960 571 l 2,212,213
 960 573 960 573 960 575 c 2,214,-1
 960 613 l 1,215,216
 960 614 l 2,217,-1
 960 616 l 2,218,219
 960 617 960 617 960 618 c 2,220,-1
 960 624 l 1,221,222
 954 624 954 624 948 624 c 2,223,-1
 940 624 l 2,224,225
 933 624 933 624 927 624 c 2,226,-1
 922 624 l 2,227,228
 919 624 919 624 917 624 c 2,229,-1
 905 624 l 2,230,231
 902 624 902 624 900 624 c 2,232,-1
 893 624 l 2,233,234
 891 624 891 624 889 624 c 2,235,-1
 885 624 l 2,236,237
 883 624 883 624 881 624 c 2,238,-1
 840 624 l 2,239,240
 838 624 838 624 837 624 c 2,241,-1
 832 624 l 1,242,243
 832 618 832 618 832 612 c 2,244,-1
 832 586 l 2,245,246
 832 578 832 578 832 571 c 2,247,-1
 832 549 l 2,248,249
 832 547 832 547 832 545 c 2,250,-1
 832 507 l 2,251,252
 832 506 832 506 832 505 c 2,253,-1
 832 496 l 1,254,-1
 870 496 l 2,255,256
 873 496 873 496 875 496 c 2,257,-1
 880 496 l 2,258,259
 884 496 884 496 887 496 c 2,260,-1
 896 496 l 2,261,262
 900 496 900 496 903 496 c 2,263,-1
 907 496 l 2,264,265
 909 496 909 496 911 496 c 2,266,-1
 960 496 l 1,200,201
384 496 m 1,267,268
 502 407 502 407 572 355 c 2,269,-1
 582 347 l 2,270,271
 618 320 618 320 640 304 c 1,272,273
 522 215 522 215 452 163 c 2,274,-1
 442 155 l 2,275,276
 406 128 406 128 384 112 c 1,277,278
 384 130 384 130 384 147 c 2,279,-1
 384 172 l 2,280,281
 384 192 384 192 384 212 c 2,282,-1
 384 227 l 2,283,284
 384 235 384 235 384 242 c 2,285,-1
 384 278 l 2,286,287
 384 285 384 285 384 292 c 2,288,-1
 384 312 l 2,289,290
 384 318 384 318 384 324 c 2,291,-1
 384 337 l 2,292,293
 384 343 384 343 384 349 c 2,294,-1
 384 473 l 2,295,296
 384 477 384 477 384 480 c 2,297,-1
 384 496 l 1,267,268
960 240 m 1,298,299
 960 249 960 249 960 257 c 2,300,-1
 960 263 l 2,301,302
 960 274 960 274 960 283 c 2,303,-1
 960 288 l 2,304,305
 960 291 960 291 960 293 c 2,306,-1
 960 298 l 2,307,308
 960 303 960 303 960 309 c 2,309,-1
 960 315 l 2,310,311
 960 317 960 317 960 319 c 2,312,-1
 960 357 l 1,313,314
 960 358 l 2,315,-1
 960 360 l 2,316,317
 960 361 960 361 960 362 c 2,318,-1
 960 368 l 1,319,320
 956 368 956 368 951 368 c 2,321,-1
 943 368 l 2,322,323
 935 368 935 368 927 368 c 2,324,-1
 912 368 l 2,325,326
 909 368 909 368 907 368 c 2,327,-1
 902 368 l 2,328,329
 900 368 900 368 898 368 c 2,330,-1
 893 368 l 2,331,332
 891 368 891 368 889 368 c 2,333,-1
 885 368 l 2,334,335
 883 368 883 368 881 368 c 2,336,-1
 832 368 l 1,337,338
 832 362 832 362 832 356 c 2,339,-1
 832 330 l 2,340,341
 832 322 832 322 832 315 c 2,342,-1
 832 293 l 2,343,344
 832 291 832 291 832 289 c 2,345,-1
 832 251 l 2,346,347
 832 250 832 250 832 249 c 2,348,-1
 832 240 l 1,349,350
 838 240 838 240 844 240 c 2,351,-1
 852 240 l 2,352,353
 859 240 859 240 865 240 c 2,354,-1
 870 240 l 2,355,356
 873 240 873 240 875 240 c 2,357,-1
 887 240 l 2,358,359
 890 240 890 240 892 240 c 2,360,-1
 899 240 l 2,361,362
 901 240 901 240 903 240 c 2,363,-1
 907 240 l 2,364,365
 909 240 909 240 911 240 c 2,366,-1
 952 240 l 2,367,368
 954 240 954 240 955 240 c 2,369,-1
 960 240 l 1,298,299
192 240 m 1,370,371
 192 246 192 246 192 252 c 2,372,-1
 192 260 l 2,373,374
 192 267 192 267 192 273 c 2,375,-1
 192 278 l 2,376,377
 192 281 192 281 192 283 c 2,378,-1
 192 295 l 2,379,380
 192 298 192 298 192 300 c 2,381,-1
 192 307 l 2,382,383
 192 309 192 309 192 311 c 2,384,-1
 192 315 l 2,385,386
 192 317 192 317 192 319 c 2,387,-1
 192 360 l 2,388,389
 192 362 192 362 192 363 c 2,390,-1
 192 368 l 1,391,392
 188 368 188 368 183 368 c 2,393,-1
 175 368 l 2,394,395
 167 368 167 368 159 368 c 2,396,-1
 144 368 l 2,397,398
 141 368 141 368 139 368 c 2,399,-1
 134 368 l 2,400,401
 132 368 132 368 130 368 c 2,402,-1
 125 368 l 2,403,404
 123 368 123 368 121 368 c 2,405,-1
 117 368 l 2,406,407
 115 368 115 368 113 368 c 2,408,-1
 64 368 l 1,409,410
 64 364 64 364 64 359 c 2,411,-1
 64 351 l 2,412,413
 64 343 64 343 64 335 c 2,414,-1
 64 320 l 2,415,416
 64 317 64 317 64 315 c 2,417,-1
 64 310 l 2,418,419
 64 308 64 308 64 306 c 2,420,-1
 64 301 l 2,421,422
 64 299 64 299 64 297 c 2,423,-1
 64 293 l 2,424,425
 64 291 64 291 64 289 c 2,426,-1
 64 240 l 1,427,428
 70 240 70 240 76 240 c 2,429,-1
 84 240 l 2,430,431
 91 240 91 240 97 240 c 2,432,-1
 102 240 l 2,433,434
 105 240 105 240 107 240 c 2,435,-1
 119 240 l 2,436,437
 122 240 122 240 124 240 c 2,438,-1
 131 240 l 2,439,440
 133 240 133 240 135 240 c 2,441,-1
 139 240 l 2,442,443
 141 240 141 240 143 240 c 2,444,-1
 184 240 l 2,445,446
 186 240 186 240 187 240 c 2,447,-1
 192 240 l 1,370,371
192 -16 m 1,448,449
 192 -10 192 -10 192 -4 c 2,450,-1
 192 4 l 2,451,452
 192 11 192 11 192 17 c 2,453,-1
 192 22 l 2,454,455
 192 25 192 25 192 27 c 2,456,-1
 192 39 l 2,457,458
 192 42 192 42 192 44 c 2,459,-1
 192 51 l 2,460,461
 192 53 192 53 192 55 c 2,462,-1
 192 59 l 2,463,464
 192 61 192 61 192 63 c 2,465,-1
 192 104 l 2,466,467
 192 106 192 106 192 107 c 2,468,-1
 192 112 l 1,469,470
 188 112 188 112 183 112 c 2,471,-1
 175 112 l 2,472,473
 167 112 167 112 159 112 c 2,474,-1
 144 112 l 2,475,476
 141 112 141 112 139 112 c 2,477,-1
 134 112 l 2,478,479
 132 112 132 112 130 112 c 2,480,-1
 125 112 l 2,481,482
 123 112 123 112 121 112 c 2,483,-1
 117 112 l 2,484,485
 115 112 115 112 113 112 c 2,486,-1
 64 112 l 1,487,488
 64 108 64 108 64 103 c 2,489,-1
 64 95 l 2,490,491
 64 87 64 87 64 79 c 2,492,-1
 64 64 l 2,493,494
 64 61 64 61 64 59 c 2,495,-1
 64 54 l 2,496,497
 64 52 64 52 64 50 c 2,498,-1
 64 45 l 2,499,500
 64 43 64 43 64 41 c 2,501,-1
 64 37 l 2,502,503
 64 35 64 35 64 33 c 2,504,-1
 64 -16 l 1,505,506
 68 -16 68 -16 73 -16 c 2,507,-1
 81 -16 l 2,508,509
 89 -16 89 -16 97 -16 c 2,510,-1
 112 -16 l 2,511,512
 115 -16 115 -16 117 -16 c 2,513,-1
 122 -16 l 2,514,515
 124 -16 124 -16 126 -16 c 2,516,-1
 131 -16 l 2,517,518
 133 -16 133 -16 135 -16 c 2,519,-1
 139 -16 l 2,520,521
 141 -16 141 -16 143 -16 c 2,522,-1
 192 -16 l 1,448,449
960 -16 m 1,523,524
 960 -7 960 -7 960 1 c 2,525,-1
 960 7 l 2,526,527
 960 18 960 18 960 27 c 2,528,-1
 960 32 l 2,529,530
 960 35 960 35 960 37 c 2,531,-1
 960 42 l 2,532,533
 960 47 960 47 960 53 c 2,534,-1
 960 59 l 2,535,536
 960 61 960 61 960 63 c 2,537,-1
 960 101 l 1,538,539
 960 102 l 2,540,-1
 960 104 l 2,541,542
 960 105 960 105 960 106 c 2,543,-1
 960 112 l 1,544,545
 956 112 956 112 951 112 c 2,546,-1
 943 112 l 2,547,548
 935 112 935 112 927 112 c 2,549,-1
 912 112 l 2,550,551
 909 112 909 112 907 112 c 2,552,-1
 902 112 l 2,553,554
 900 112 900 112 898 112 c 2,555,-1
 893 112 l 2,556,557
 891 112 891 112 889 112 c 2,558,-1
 885 112 l 2,559,560
 883 112 883 112 881 112 c 2,561,-1
 832 112 l 1,562,563
 832 106 832 106 832 100 c 2,564,-1
 832 74 l 2,565,566
 832 66 832 66 832 59 c 2,567,-1
 832 37 l 2,568,569
 832 35 832 35 832 33 c 2,570,-1
 832 -5 l 2,571,572
 832 -6 832 -6 832 -7 c 2,573,-1
 832 -16 l 1,574,575
 836 -16 836 -16 841 -16 c 2,576,-1
 849 -16 l 2,577,578
 857 -16 857 -16 865 -16 c 2,579,-1
 880 -16 l 2,580,581
 883 -16 883 -16 885 -16 c 2,582,-1
 890 -16 l 2,583,584
 892 -16 892 -16 894 -16 c 2,585,-1
 899 -16 l 2,586,587
 901 -16 901 -16 903 -16 c 2,588,-1
 907 -16 l 2,589,590
 909 -16 909 -16 911 -16 c 2,591,-1
 960 -16 l 1,523,524
EndSplineSet
EndChar

StartChar: uniE914
Encoding: 59668 59668 22
Width: 1024
VWidth: 880
GlyphClass: 2
Flags: W
LayerCount: 2
Fore
SplineSet
384 528 m 256,0,1
 384 594 384 594 431 641 c 256,2,3
 478 688 478 688 544 688 c 256,4,5
 610 688 610 688 657 641 c 256,6,7
 704 594 704 594 704 528 c 256,8,9
 704 462 704 462 657 415 c 256,10,11
 610 368 610 368 544 368 c 256,12,13
 478 368 478 368 431 415 c 256,14,15
 384 462 384 462 384 528 c 256,0,1
0 528 m 256,16,17
 0 594 0 594 47 641 c 256,18,19
 94 688 94 688 160 688 c 256,20,21
 226 688 226 688 273 641 c 256,22,23
 320 594 320 594 320 528 c 256,24,25
 320 462 320 462 273 415 c 256,26,27
 226 368 226 368 160 368 c 256,28,29
 94 368 94 368 47 415 c 256,30,31
 0 462 0 462 0 528 c 256,16,17
768 208 m 1,32,33
 800 228 800 228 829 246 c 2,34,-1
 850 259 l 2,35,36
 912 298 912 298 956 325 c 2,37,-1
 966 332 l 2,38,39
 1002 354 1002 354 1024 368 c 1,40,41
 1024 352 1024 352 1024 337 c 2,42,-1
 1024 308 l 2,43,44
 1024 279 1024 279 1024 252 c 2,45,-1
 1024 199 l 2,46,47
 1024 191 1024 191 1024 182 c 2,48,-1
 1024 166 l 2,49,50
 1024 158 1024 158 1024 150 c 2,51,-1
 1024 135 l 2,52,53
 1024 127 1024 127 1024 120 c 2,54,-1
 1024 106 l 2,55,56
 1024 98 1024 98 1024 91 c 2,57,-1
 1024 -80 l 1,58,59
 906 -6 906 -6 836 37 c 1,60,-1
 826 44 l 2,61,62
 790 66 790 66 768 80 c 1,63,64
 768 76 768 76 768 72 c 2,65,-1
 768 67 l 2,66,67
 768 62 768 62 768 57 c 2,68,-1
 768 54 l 2,69,70
 768 52 768 52 768 50 c 2,71,-1
 768 42 l 2,72,73
 768 40 768 40 768 39 c 2,74,-1
 768 34 l 2,75,76
 768 32 768 32 768 31 c 2,77,-1
 768 28 l 2,78,79
 768 26 768 26 768 25 c 2,80,-1
 768 -9 l 2,81,82
 768 -10 768 -10 768 -11 c 2,83,-1
 768 -16 l 2,84,85
 768 -42 768 -42 749 -61 c 256,86,87
 730 -80 730 -80 704 -80 c 0,88,89
 684 -80 684 -80 665 -80 c 2,90,-1
 627 -80 l 2,91,92
 589 -80 589 -80 554 -80 c 2,93,-1
 484 -80 l 2,94,95
 473 -80 473 -80 461 -80 c 2,96,-1
 439 -80 l 2,97,98
 429 -80 429 -80 418 -80 c 2,99,-1
 397 -80 l 2,100,101
 386 -80 386 -80 376 -80 c 2,102,-1
 355 -80 l 2,103,104
 345 -80 345 -80 335 -80 c 2,105,-1
 64 -80 l 2,106,107
 38 -80 38 -80 19 -61 c 256,108,109
 0 -42 0 -42 0 -16 c 2,110,-1
 0 304 l 2,111,112
 0 330 0 330 19 349 c 256,113,114
 38 368 38 368 64 368 c 0,115,116
 84 368 84 368 103 368 c 2,117,-1
 141 368 l 2,118,119
 179 368 179 368 214 368 c 2,120,-1
 284 368 l 2,121,122
 295 368 295 368 307 368 c 2,123,-1
 329 368 l 2,124,125
 339 368 339 368 350 368 c 2,126,-1
 371 368 l 2,127,128
 382 368 382 368 392 368 c 2,129,-1
 413 368 l 2,130,131
 423 368 423 368 433 368 c 2,132,-1
 704 368 l 2,133,134
 730 368 730 368 749 349 c 256,135,136
 768 330 768 330 768 304 c 0,137,138
 768 300 768 300 768 295 c 2,139,-1
 768 289 l 2,140,141
 768 284 768 284 768 279 c 2,142,-1
 768 275 l 2,143,144
 768 273 768 273 768 271 c 2,145,-1
 768 262 l 2,146,147
 768 261 768 261 768 259 c 2,148,-1
 768 254 l 2,149,150
 768 252 768 252 768 251 c 2,151,-1
 768 248 l 2,152,153
 768 246 768 246 768 245 c 2,154,-1
 768 214 l 2,155,156
 768 213 768 213 768 212 c 2,157,-1
 768 208 l 1,32,33
640 48 m 1,158,-1
 640 106 l 2,159,160
 640 109 640 109 640 113 c 2,161,-1
 640 120 l 2,162,163
 640 126 640 126 640 131 c 2,164,-1
 640 145 l 2,165,166
 640 150 640 150 640 154 c 2,167,-1
 640 160 l 2,168,169
 640 164 640 164 640 167 c 2,170,-1
 640 240 l 1,171,172
 616 240 616 240 594 240 c 2,173,-1
 560 240 l 2,174,175
 533 240 533 240 507 240 c 2,176,-1
 486 240 l 2,177,178
 476 240 476 240 466 240 c 2,179,-1
 419 240 l 2,180,181
 409 240 409 240 400 240 c 2,182,-1
 374 240 l 2,183,184
 365 240 365 240 357 240 c 2,185,-1
 340 240 l 2,186,187
 332 240 332 240 324 240 c 2,188,-1
 159 240 l 2,189,190
 154 240 154 240 149 240 c 2,191,-1
 128 240 l 1,192,193
 128 233 128 233 128 227 c 2,194,-1
 128 214 l 2,195,196
 128 202 128 202 128 190 c 2,197,-1
 128 168 l 2,198,199
 128 164 128 164 128 160 c 2,200,-1
 128 154 l 2,201,202
 128 150 128 150 128 147 c 2,203,-1
 128 140 l 2,204,205
 128 137 128 137 128 134 c 2,206,-1
 128 128 l 2,207,208
 128 124 128 124 128 121 c 2,209,-1
 128 48 l 1,210,211
 152 48 152 48 174 48 c 2,212,-1
 208 48 l 2,213,214
 235 48 235 48 261 48 c 2,215,-1
 282 48 l 2,216,217
 292 48 292 48 302 48 c 2,218,-1
 349 48 l 2,219,220
 359 48 359 48 368 48 c 2,221,-1
 394 48 l 2,222,223
 403 48 403 48 411 48 c 2,224,-1
 428 48 l 2,225,226
 436 48 436 48 444 48 c 2,227,-1
 609 48 l 2,228,229
 614 48 614 48 619 48 c 2,230,-1
 640 48 l 1,158,-1
EndSplineSet
EndChar

StartChar: uniE915
Encoding: 59669 59669 23
Width: 1024
VWidth: 880
GlyphClass: 2
Flags: W
LayerCount: 2
Fore
SplineSet
829 688 m 1,0,1
 803 688 803 688 777 688 c 2,2,-1
 656 688 l 2,3,4
 621 688 621 688 588 688 c 2,5,-1
 482 688 l 2,6,7
 472 688 472 688 462 688 c 2,8,-1
 262 688 l 2,9,10
 255 688 255 688 247 688 c 2,11,-1
 192 688 l 2,12,13
 166 688 166 688 147 669 c 256,14,15
 128 650 128 650 128 624 c 0,16,17
 128 604 128 604 128 585 c 2,18,-1
 128 547 l 2,19,20
 128 510 128 510 128 474 c 2,21,-1
 128 405 l 2,22,23
 128 394 128 394 128 383 c 2,24,-1
 128 361 l 2,25,26
 128 350 128 350 128 339 c 2,27,-1
 128 318 l 2,28,29
 128 308 128 308 128 297 c 2,30,-1
 128 277 l 2,31,32
 128 267 128 267 128 257 c 2,33,-1
 128 -13 l 1,34,35
 73 -2 73 -2 37 42 c 0,36,37
 0 86 0 86 0 144 c 2,38,-1
 0 656 l 2,39,40
 0 722 0 722 47 769 c 256,41,42
 94 816 94 816 160 816 c 0,43,44
 191 816 191 816 222 816 c 2,45,-1
 241 816 l 2,46,47
 281 816 281 816 318 816 c 2,48,-1
 336 816 l 2,49,50
 345 816 345 816 354 816 c 2,51,-1
 371 816 l 2,52,53
 393 816 393 816 414 816 c 2,54,-1
 439 816 l 2,55,56
 447 816 447 816 455 816 c 2,57,-1
 615 816 l 2,58,59
 618 816 618 816 621 816 c 2,60,-1
 633 816 l 2,61,62
 636 816 636 816 639 816 c 2,63,-1
 672 816 l 2,64,65
 730 816 730 816 774 779 c 0,66,67
 818 743 818 743 829 688 c 1,0,1
864 624 m 2,68,69
 930 624 930 624 977 577 c 256,70,71
 1024 530 1024 530 1024 464 c 0,72,73
 1024 448 1024 448 1024 433 c 2,74,-1
 1024 402 l 2,75,76
 1024 372 1024 372 1024 344 c 2,77,-1
 1024 288 l 2,78,79
 1024 279 1024 279 1024 270 c 2,80,-1
 1024 253 l 2,81,82
 1024 244 1024 244 1024 235 c 2,83,-1
 1024 218 l 2,84,85
 1024 210 1024 210 1024 202 c 2,86,-1
 1024 185 l 2,87,88
 1024 177 1024 177 1024 169 c 2,89,-1
 1024 -48 l 2,90,91
 1024 -114 1024 -114 977 -161 c 256,92,93
 930 -208 930 -208 864 -208 c 0,94,95
 848 -208 848 -208 833 -208 c 2,96,-1
 802 -208 l 2,97,98
 772 -208 772 -208 744 -208 c 2,99,-1
 688 -208 l 2,100,101
 679 -208 679 -208 670 -208 c 2,102,-1
 653 -208 l 2,103,104
 644 -208 644 -208 635 -208 c 2,105,-1
 618 -208 l 2,106,107
 610 -208 610 -208 602 -208 c 2,108,-1
 585 -208 l 2,109,110
 577 -208 577 -208 569 -208 c 2,111,-1
 352 -208 l 2,112,113
 286 -208 286 -208 239 -161 c 256,114,115
 192 -114 192 -114 192 -48 c 0,116,117
 192 -27 192 -27 192 -7 c 2,118,-1
 192 23 l 2,119,120
 192 48 192 48 192 72 c 2,121,-1
 192 91 l 2,122,123
 192 100 192 100 192 110 c 2,124,-1
 192 155 l 2,125,126
 192 163 192 163 192 172 c 2,127,-1
 192 198 l 2,128,129
 192 206 192 206 192 214 c 2,130,-1
 192 231 l 2,131,132
 192 239 192 239 192 247 c 2,133,-1
 192 425 l 2,134,135
 192 431 192 431 192 437 c 2,136,-1
 192 464 l 2,137,138
 192 530 192 530 239 577 c 256,139,140
 286 624 286 624 352 624 c 0,141,142
 376 624 376 624 398 624 c 2,143,-1
 432 624 l 2,144,145
 459 624 459 624 485 624 c 2,146,-1
 506 624 l 2,147,148
 516 624 516 624 526 624 c 2,149,-1
 573 624 l 2,150,151
 583 624 583 624 592 624 c 2,152,-1
 618 624 l 2,153,154
 627 624 627 624 635 624 c 2,155,-1
 652 624 l 2,156,157
 660 624 660 624 668 624 c 2,158,-1
 833 624 l 2,159,160
 838 624 838 624 843 624 c 2,161,-1
 864 624 l 2,68,69
800 304 m 256,162,163
 840 304 840 304 868 332 c 256,164,165
 896 360 896 360 896 400 c 256,166,167
 896 440 896 440 868 468 c 256,168,169
 840 496 840 496 800 496 c 256,170,171
 760 496 760 496 732 468 c 256,172,173
 704 440 704 440 704 400 c 256,174,175
 704 360 704 360 732 332 c 256,176,177
 760 304 760 304 800 304 c 256,162,163
416 304 m 256,178,179
 456 304 456 304 484 332 c 256,180,181
 512 360 512 360 512 400 c 256,182,183
 512 440 512 440 484 468 c 256,184,185
 456 496 456 496 416 496 c 256,186,187
 376 496 376 496 348 468 c 256,188,189
 320 440 320 440 320 400 c 256,190,191
 320 360 320 360 348 332 c 256,192,193
 376 304 376 304 416 304 c 256,178,179
608 112 m 256,194,195
 648 112 648 112 676 140 c 256,196,197
 704 168 704 168 704 208 c 256,198,199
 704 248 704 248 676 276 c 256,200,201
 648 304 648 304 608 304 c 256,202,203
 568 304 568 304 540 276 c 256,204,205
 512 248 512 248 512 208 c 256,206,207
 512 168 512 168 540 140 c 256,208,209
 568 112 568 112 608 112 c 256,194,195
800 -80 m 256,210,211
 840 -80 840 -80 868 -52 c 256,212,213
 896 -24 896 -24 896 16 c 256,214,215
 896 56 896 56 868 84 c 256,216,217
 840 112 840 112 800 112 c 256,218,219
 760 112 760 112 732 84 c 256,220,221
 704 56 704 56 704 16 c 256,222,223
 704 -24 704 -24 732 -52 c 256,224,225
 760 -80 760 -80 800 -80 c 256,210,211
416 -80 m 256,226,227
 456 -80 456 -80 484 -52 c 256,228,229
 512 -24 512 -24 512 16 c 256,230,231
 512 56 512 56 484 84 c 256,232,233
 456 112 456 112 416 112 c 256,234,235
 376 112 376 112 348 84 c 256,236,237
 320 56 320 56 320 16 c 256,238,239
 320 -24 320 -24 348 -52 c 256,240,241
 376 -80 376 -80 416 -80 c 256,226,227
EndSplineSet
EndChar

StartChar: uniE916
Encoding: 59670 59670 24
Width: 1024
VWidth: 880
GlyphClass: 2
Flags: W
LayerCount: 2
Fore
SplineSet
962 637 m 1,0,1
 718 387 718 387 638 304 c 1,2,3
 854 82 854 82 962 -29 c 1,4,5
 928 -70 928 -70 884 -103 c 0,6,7
 842 -136 842 -136 792 -159 c 0,8,9
 742 -183 742 -183 686 -195 c 0,10,11
 632 -208 632 -208 574 -208 c 0,12,13
 468 -208 468 -208 374 -168 c 0,14,15
 280 -128 280 -128 212 -58 c 0,16,17
 142 11 142 11 102 105 c 0,18,19
 62 198 62 198 62 304 c 256,20,21
 62 410 62 410 102 503 c 0,22,23
 142 597 142 597 212 666 c 0,24,25
 280 736 280 736 374 776 c 0,26,27
 468 816 468 816 574 816 c 0,28,29
 632 816 632 816 686 803 c 0,30,31
 742 791 742 791 792 767 c 0,32,33
 842 744 842 744 884 711 c 0,34,35
 928 678 928 678 962 637 c 1,0,1
702 695 m 1,36,37
 702 695 l 257,38,39
 702 695 l 257,40,41
 702 695 l 1,42,-1
 700 695 l 2,43,44
 672 695 672 695 652 674 c 0,45,46
 630 654 630 654 630 624 c 256,47,48
 630 594 630 594 652 574 c 0,49,50
 672 553 672 553 702 553 c 256,51,52
 732 553 732 553 752 574 c 0,53,54
 772 594 772 594 772 624 c 256,55,56
 772 654 772 654 752 674 c 0,57,58
 732 695 732 695 702 695 c 1,36,37
EndSplineSet
EndChar

StartChar: uniE917
Encoding: 59671 59671 25
Width: 1024
VWidth: 880
GlyphClass: 2
Flags: W
LayerCount: 2
Fore
SplineSet
818 468 m 0,0,1
 941 376 941 376 956 275 c 0,2,3
 959 254 959 254 959 235 c 0,4,5
 959 160 959 160 917 105 c 0,6,7
 864 36 864 36 765 17 c 0,8,9
 744 13 744 13 723 13 c 0,10,11
 644 13 644 13 564 69 c 1,12,13
 577 -19 577 -19 618 -81 c 0,14,15
 658 -143 658 -143 704 -170 c 1,16,-1
 704 -176 l 2,17,18
 704 -178 704 -178 704 -180 c 2,19,-1
 704 -181 l 2,20,21
 704 -182 704 -182 704 -183 c 2,22,-1
 704 -184 l 2,23,24
 704 -185 704 -185 704 -186 c 2,25,-1
 704 -189 l 2,26,27
 704 -190 l 1,28,-1
 704 -192 l 2,29,30
 704 -193 l 1,31,-1
 704 -205 l 1,32,33
 704 -206 l 2,34,-1
 704 -208 l 1,35,36
 691 -208 691 -208 678 -208 c 2,37,-1
 652 -208 l 2,38,39
 628 -208 628 -208 604 -208 c 2,40,-1
 559 -208 l 2,41,42
 552 -208 552 -208 545 -208 c 2,43,-1
 531 -208 l 2,44,45
 524 -208 524 -208 517 -208 c 2,46,-1
 504 -208 l 2,47,48
 498 -208 498 -208 492 -208 c 2,49,-1
 479 -208 l 2,50,51
 473 -208 473 -208 467 -208 c 2,52,-1
 320 -208 l 1,53,-1
 320 -198 l 2,54,55
 320 -197 320 -197 320 -196 c 2,56,-1
 320 -195 l 2,57,58
 320 -194 320 -194 320 -193 c 2,59,-1
 320 -191 l 2,60,61
 320 -190 320 -190 320 -189 c 2,62,-1
 320 -187 l 1,63,64
 320 -186 l 2,65,-1
 320 -170 l 1,66,67
 366 -143 366 -143 406 -81 c 0,68,69
 447 -19 447 -19 460 69 c 1,70,71
 380 13 380 13 301 13 c 0,72,73
 280 13 280 13 259 17 c 0,74,75
 160 36 160 36 107 106 c 0,76,77
 65 160 65 160 65 235 c 0,78,79
 65 254 65 254 68 275 c 0,80,81
 83 376 83 376 206 468 c 0,82,83
 279 522 279 522 329 570 c 0,84,85
 380 619 380 619 415 662 c 0,86,87
 450 706 450 706 472 744 c 0,88,89
 495 782 495 782 511 815 c 1,90,-1
 512 816 l 1,91,92
 512 816 l 1,93,94
 529 783 529 783 552 744 c 0,95,96
 574 706 574 706 609 662 c 0,97,98
 644 619 644 619 695 570 c 0,99,100
 745 522 745 522 818 468 c 0,0,1
EndSplineSet
EndChar

StartChar: uniE918
Encoding: 59672 59672 26
Width: 1024
VWidth: 880
GlyphClass: 2
Flags: W
LayerCount: 2
Fore
SplineSet
787 423 m 1,0,1
 830 423 830 423 867 407 c 0,2,3
 905 390 905 390 933 362 c 256,4,5
 961 334 961 334 978 295 c 0,6,7
 994 257 994 257 994 214 c 256,8,9
 994 171 994 171 978 132 c 0,10,11
 961 94 961 94 933 66 c 0,12,13
 905 37 905 37 867 21 c 0,14,15
 830 5 830 5 787 5 c 0,16,17
 743 5 743 5 704 22 c 0,18,19
 665 40 665 40 637 70 c 0,20,21
 624 83 624 83 603 99 c 0,22,23
 583 115 583 115 559 129 c 1,24,25
 560 73 560 73 573 26 c 0,26,27
 585 -22 585 -22 606 -60 c 0,28,29
 626 -98 626 -98 651 -126 c 0,30,31
 677 -154 677 -154 704 -170 c 1,32,-1
 704 -176 l 2,33,34
 704 -178 704 -178 704 -180 c 2,35,-1
 704 -181 l 2,36,37
 704 -182 704 -182 704 -183 c 2,38,-1
 704 -184 l 2,39,40
 704 -185 704 -185 704 -186 c 2,41,-1
 704 -189 l 2,42,43
 704 -190 l 1,44,-1
 704 -192 l 2,45,46
 704 -193 l 1,47,-1
 704 -205 l 1,48,49
 704 -206 l 2,50,-1
 704 -208 l 1,51,52
 691 -208 691 -208 678 -208 c 2,53,-1
 652 -208 l 2,54,55
 628 -208 628 -208 604 -208 c 2,56,-1
 559 -208 l 2,57,58
 552 -208 552 -208 545 -208 c 2,59,-1
 531 -208 l 2,60,61
 524 -208 524 -208 517 -208 c 2,62,-1
 504 -208 l 2,63,64
 498 -208 498 -208 492 -208 c 2,65,-1
 479 -208 l 2,66,67
 473 -208 473 -208 467 -208 c 2,68,-1
 320 -208 l 1,69,-1
 320 -198 l 2,70,71
 320 -197 320 -197 320 -196 c 2,72,-1
 320 -195 l 2,73,74
 320 -194 320 -194 320 -193 c 2,75,-1
 320 -191 l 2,76,77
 320 -190 320 -190 320 -189 c 2,78,-1
 320 -187 l 1,79,80
 320 -186 l 2,81,-1
 320 -170 l 1,82,83
 347 -154 347 -154 373 -126 c 0,84,85
 398 -98 398 -98 418 -60 c 0,86,87
 439 -22 439 -22 451 26 c 0,88,89
 464 73 464 73 465 129 c 1,90,91
 441 115 441 115 421 99 c 0,92,93
 400 83 400 83 387 70 c 0,94,95
 359 40 359 40 320 22 c 0,96,97
 281 5 281 5 237 5 c 0,98,99
 194 5 194 5 157 21 c 0,100,101
 119 37 119 37 91 66 c 0,102,103
 63 94 63 94 46 132 c 0,104,105
 30 171 30 171 30 214 c 256,106,107
 30 257 30 257 46 295 c 0,108,109
 63 334 63 334 91 362 c 256,110,111
 119 390 119 390 157 407 c 0,112,113
 194 423 194 423 237 423 c 0,114,115
 281 423 281 423 320 406 c 256,116,117
 359 389 359 389 387 359 c 0,118,119
 399 346 399 346 418 331 c 0,120,121
 438 317 438 317 461 304 c 1,122,123
 450 344 450 344 422 389 c 0,124,125
 394 433 394 433 371 455 c 0,126,127
 341 484 341 484 324 523 c 256,128,129
 307 562 307 562 307 607 c 0,130,131
 307 650 307 650 323 688 c 256,132,133
 339 726 339 726 367 754 c 256,134,135
 395 782 395 782 432 799 c 0,136,137
 470 816 470 816 512 816 c 256,138,139
 554 816 554 816 592 799 c 0,140,141
 629 782 629 782 657 754 c 256,142,143
 685 726 685 726 701 688 c 256,144,145
 717 650 717 650 717 607 c 0,146,147
 717 562 717 562 700 523 c 256,148,149
 683 484 683 484 653 455 c 0,150,151
 630 433 630 433 602 389 c 0,152,153
 574 344 574 344 563 304 c 1,154,155
 586 317 586 317 606 331 c 0,156,157
 625 346 625 346 637 359 c 0,158,159
 665 389 665 389 704 406 c 0,160,161
 742 423 742 423 786 423 c 2,162,-1
 787 423 l 1,163,164
 787 423 l 1,0,1
EndSplineSet
EndChar

StartChar: uniE919
Encoding: 59673 59673 27
Width: 1024
VWidth: 880
GlyphClass: 2
Flags: W
LayerCount: 2
Fore
SplineSet
512 816 m 1,0,1
 711 497 711 497 800 355 c 2,2,-1
 810 339 l 2,3,4
 822 320 822 320 832 304 c 1,5,6
 633 -15 633 -15 544 -157 c 2,7,-1
 534 -173 l 2,8,9
 522 -192 522 -192 512 -208 c 1,10,11
 313 111 313 111 224 253 c 2,12,-1
 214 269 l 2,13,14
 202 288 202 288 192 304 c 1,15,16
 236 375 236 375 275 437 c 2,17,-1
 288 458 l 2,18,19
 414 660 414 660 480 765 c 2,20,-1
 490 781 l 2,21,22
 502 800 502 800 512 816 c 1,0,1
EndSplineSet
EndChar

StartChar: uniE91A
Encoding: 59674 59674 28
Width: 1024
VWidth: 880
GlyphClass: 2
Flags: W
LayerCount: 2
Fore
SplineSet
1024 387 m 1,0,1
 1024 387 l 257,2,3
 1024 387 l 1,4,-1
 1024 385 l 2,5,6
 1024 310 1024 310 1014 245 c 0,7,8
 1003 179 1003 179 986 130 c 0,9,10
 968 80 968 80 944 51 c 256,11,12
 920 22 920 22 893 22 c 1,13,14
 893 22 l 257,15,16
 893 22 l 257,17,18
 893 22 l 257,19,20
 893 22 l 257,21,22
 893 22 l 257,23,24
 893 21 l 1,25,26
 893 21 l 257,27,28
 893 21 l 1,29,30
 890 21 890 21 888 21 c 2,31,-1
 883 21 l 2,32,33
 881 21 881 21 880 21 c 2,34,-1
 877 21 l 2,35,36
 875 21 875 21 874 21 c 2,37,-1
 871 21 l 2,38,39
 869 21 869 21 868 21 c 2,40,-1
 865 21 l 2,41,42
 860 21 860 21 856 21 c 2,43,-1
 848 21 l 2,44,45
 847 21 847 21 845 21 c 2,46,-1
 810 21 l 1,47,48
 776 45 l 0,49,50
 741 69 741 69 678 102 c 256,51,52
 615 135 615 135 528 169 c 0,53,54
 440 204 440 204 335 225 c 1,55,56
 329 259 329 259 325 299 c 0,57,58
 321 340 321 340 321 387 c 0,59,60
 321 433 321 433 325 474 c 0,61,62
 329 514 329 514 335 548 c 1,63,64
 440 570 440 570 528 604 c 0,65,66
 615 639 615 639 678 671 c 0,67,68
 741 704 741 704 776 728 c 0,69,70
 810 752 l 2,71,72
 812 752 812 752 813 752 c 2,73,-1
 817 752 l 2,74,75
 818 752 818 752 820 752 c 2,76,-1
 823 752 l 2,77,78
 824 752 824 752 825 752 c 2,79,-1
 832 752 l 2,80,81
 834 752 834 752 835 752 c 2,82,-1
 838 752 l 2,83,84
 842 752 842 752 846 752 c 2,85,-1
 850 752 l 2,86,87
 851 752 851 752 852 752 c 2,88,-1
 855 752 l 2,89,90
 856 752 856 752 858 752 c 2,91,-1
 885 752 l 2,92,93
 886 752 886 752 887 752 c 2,94,-1
 893 752 l 1,95,96
 893 752 l 1,97,98
 920 751 920 751 944 723 c 0,99,100
 968 694 968 694 986 645 c 0,101,102
 1003 595 1003 595 1014 528 c 0,103,104
 1024 462 1024 462 1024 387 c 1,0,1
865 77 m 256,105,106
 872 77 872 77 879 82 c 0,107,108
 886 88 886 88 890 92 c 0,109,110
 899 103 899 103 908 119 c 256,111,112
 917 135 917 135 925 156 c 0,113,114
 942 202 942 202 952 262 c 0,115,116
 961 321 961 321 961 387 c 256,117,118
 961 453 961 453 952 513 c 0,119,120
 942 572 942 572 925 618 c 0,121,122
 917 638 917 638 908 654 c 0,123,124
 899 671 899 671 890 681 c 0,125,126
 886 686 886 686 879 692 c 0,127,128
 872 697 872 697 865 697 c 256,129,130
 858 697 858 697 851 692 c 0,131,132
 844 686 844 686 840 681 c 0,133,134
 831 671 831 671 822 654 c 0,135,136
 813 638 813 638 805 618 c 0,137,138
 787 572 787 572 778 513 c 0,139,140
 769 453 769 453 769 387 c 256,141,142
 769 321 769 321 778 262 c 0,143,144
 787 202 787 202 805 156 c 0,145,146
 813 135 813 135 822 119 c 256,147,148
 831 103 831 103 840 92 c 0,149,150
 844 88 844 88 851 82 c 0,151,152
 858 77 858 77 865 77 c 256,105,106
252 387 m 256,153,154
 252 348 252 348 255 311 c 0,155,156
 257 273 257 273 263 238 c 1,157,158
 227 243 227 243 194 246 c 0,159,160
 161 248 161 248 123 248 c 2,161,-1
 114 248 l 2,162,163
 110 248 110 248 106 248 c 2,164,-1
 103 248 l 2,165,166
 102 248 102 248 100 248 c 2,167,-1
 98 248 l 2,168,169
 97 248 97 248 96 248 c 2,170,-1
 62 248 l 2,171,172
 61 248 61 248 60 248 c 2,173,174
 59 248 l 1,175,176
 59 248 l 1,177,-1
 55 248 l 1,178,179
 14 319 14 319 0 343 c 1,180,-1
 0 431 l 1,181,182
 37 494 37 494 55 526 c 1,183,184
 56 526 l 1,185,186
 56 526 l 257,187,188
 56 526 l 257,189,190
 57 526 l 1,191,192
 57 526 l 1,193,-1
 65 526 l 2,194,195
 66 526 l 1,196,-1
 71 526 l 2,197,198
 72 526 72 526 73 526 c 2,199,-1
 74 526 l 2,200,201
 75 526 l 1,202,-1
 77 526 l 2,203,204
 78 526 78 526 79 526 c 2,205,-1
 80 526 l 2,206,207
 81 526 81 526 82 526 c 2,208,-1
 123 526 l 2,209,210
 161 526 161 526 194 529 c 0,211,212
 227 531 227 531 263 536 c 1,213,214
 257 501 257 501 255 463 c 0,215,216
 252 426 252 426 252 387 c 256,153,154
865 267 m 256,217,218
 862 267 862 267 860 270 c 0,219,220
 857 272 857 272 855 273 c 0,221,222
 852 277 852 277 848 283 c 0,223,224
 845 290 845 290 842 298 c 0,225,226
 835 315 835 315 832 338 c 0,227,228
 828 361 828 361 828 387 c 0,229,230
 828 412 828 412 832 435 c 0,231,232
 835 458 835 458 842 476 c 0,233,234
 845 484 845 484 848 490 c 0,235,236
 852 496 852 496 855 500 c 0,237,238
 857 502 857 502 860 504 c 0,239,240
 862 506 862 506 865 506 c 256,241,242
 868 506 868 506 870 504 c 0,243,244
 873 502 873 502 874 500 c 0,245,246
 878 496 878 496 882 490 c 0,247,248
 885 484 885 484 888 476 c 0,249,250
 895 458 895 458 898 435 c 0,251,252
 902 412 902 412 902 387 c 0,253,254
 902 361 902 361 898 338 c 0,255,256
 895 315 895 315 888 298 c 0,257,258
 885 290 885 290 882 283 c 0,259,260
 878 277 878 277 874 273 c 0,261,262
 873 272 873 272 870 270 c 0,263,264
 868 267 868 267 865 267 c 256,217,218
368 174 m 1,265,266
 450 21 450 21 491 -55 c 0,267,268
 495 -63 495 -63 495 -70 c 0,269,270
 495 -74 495 -74 494 -78 c 0,271,272
 489 -90 489 -90 477 -94 c 0,273,274
 398 -126 398 -126 359 -142 c 0,275,276
 353 -144 353 -144 348 -144 c 0,277,278
 342 -144 342 -144 336 -142 c 0,279,280
 325 -136 325 -136 322 -123 c 0,281,282
 260 118 260 118 240 198 c 1,283,284
 336 180 336 180 368 174 c 1,265,266
EndSplineSet
EndChar

StartChar: uniE91B
Encoding: 59675 59675 29
Width: 1280
VWidth: 880
GlyphClass: 2
Flags: W
LayerCount: 2
Fore
SplineSet
989 682 m 0,0,1
 1029 665 1029 665 1067 644 c 0,2,3
 1105 624 1105 624 1141 599 c 0,4,5
 1176 575 1176 575 1209 548 c 0,6,7
 1243 520 1243 520 1274 490 c 1,8,-1
 1250 466 l 2,9,10
 1248 464 1248 464 1247 463 c 2,11,-1
 1232 448 l 2,12,13
 1230 446 1230 446 1229 445 c 2,14,-1
 1183 399 l 1,15,16
 1129 453 1129 453 1066 495 c 256,17,18
 1003 537 1003 537 934 566 c 256,19,20
 865 595 865 595 791 609 c 0,21,22
 717 624 717 624 640 624 c 256,23,24
 563 624 563 624 489 609 c 0,25,26
 415 595 415 595 346 566 c 256,27,28
 277 537 277 537 214 495 c 256,29,30
 151 453 151 453 97 399 c 1,31,32
 96 400 l 2,33,-1
 85 411 l 2,34,35
 84 412 84 412 83 413 c 2,36,-1
 51 445 l 2,37,38
 50 446 50 446 48 448 c 2,39,-1
 8 488 l 2,40,41
 7 489 7 489 6 490 c 1,42,43
 37 520 37 520 71 548 c 0,44,45
 104 575 104 575 139 599 c 0,46,47
 175 624 175 624 213 644 c 0,48,49
 251 665 251 665 291 682 c 0,50,51
 333 699 333 699 375 712 c 0,52,53
 418 725 418 725 462 734 c 0,54,55
 505 743 505 743 550 748 c 0,56,57
 595 752 595 752 640 752 c 256,58,59
 685 752 685 752 730 748 c 0,60,61
 775 743 775 743 818 734 c 0,62,63
 862 725 862 725 905 712 c 0,64,65
 947 699 947 699 989 682 c 0,0,1
187 309 m 1,66,67
 233 354 233 354 285 389 c 256,68,69
 337 424 337 424 394 447 c 0,70,71
 452 471 452 471 514 484 c 0,72,73
 576 496 576 496 640 496 c 256,74,75
 704 496 704 496 766 484 c 0,76,77
 828 471 828 471 886 447 c 0,78,79
 943 424 943 424 995 389 c 256,80,81
 1047 354 1047 354 1093 309 c 1,82,-1
 1047 263 l 2,83,84
 1046 262 1046 262 1044 260 c 2,85,-1
 1027 243 l 2,86,87
 1025 241 1025 241 1023 239 c 2,88,-1
 1002 218 l 1,89,90
 966 254 966 254 924 282 c 256,91,92
 882 310 882 310 836 329 c 256,93,94
 790 348 790 348 741 358 c 0,95,96
 691 368 691 368 640 368 c 256,97,98
 589 368 589 368 539 358 c 0,99,100
 490 348 490 348 444 329 c 256,101,102
 398 310 398 310 356 282 c 256,103,104
 314 254 314 254 278 218 c 1,105,106
 277 219 l 2,107,-1
 266 230 l 2,108,109
 265 231 265 231 264 232 c 2,110,-1
 250 246 l 2,111,112
 249 247 249 247 248 248 c 2,113,-1
 232 264 l 2,114,115
 231 265 231 265 229 267 c 2,116,-1
 212 284 l 2,117,118
 210 286 210 286 208 288 c 2,119,-1
 189 307 l 2,120,121
 188 308 188 308 187 309 c 1,66,67
640 240 m 257,122,123
 640 240 l 1,124,125
 719 240 719 240 789 210 c 256,126,127
 859 180 859 180 911 127 c 1,128,-1
 883 99 l 2,129,130
 882 98 882 98 881 97 c 2,131,-1
 866 82 l 2,132,133
 864 80 864 80 863 79 c 2,134,-1
 821 37 l 1,135,136
 786 72 786 72 739 92 c 0,137,138
 693 112 693 112 640 112 c 256,139,140
 587 112 587 112 541 92 c 0,141,142
 494 72 494 72 459 37 c 1,143,144
 458 38 l 2,145,-1
 447 49 l 2,146,147
 446 50 446 50 445 51 c 2,148,-1
 431 65 l 2,149,150
 430 66 430 66 429 67 c 2,151,-1
 414 82 l 2,152,153
 412 84 412 84 411 85 c 2,154,-1
 393 103 l 2,155,156
 392 104 392 104 390 106 c 2,157,-1
 371 125 l 2,158,159
 370 126 370 126 369 127 c 0,160,161
 421 180 421 180 491 210 c 0,162,163
 560 240 560 240 638 240 c 2,164,-1
 640 240 l 1,165,166
 640 240 l 257,122,123
576 -80 m 256,167,168
 576 -53 576 -53 594 -34 c 0,169,170
 613 -16 613 -16 640 -16 c 256,171,172
 667 -16 667 -16 686 -34 c 0,173,174
 704 -53 704 -53 704 -80 c 256,175,176
 704 -107 704 -107 686 -126 c 0,177,178
 667 -144 667 -144 640 -144 c 256,179,180
 613 -144 613 -144 594 -126 c 0,181,182
 576 -107 576 -107 576 -80 c 256,167,168
EndSplineSet
EndChar

StartChar: uniE91C
Encoding: 59676 59676 30
Width: 1024
VWidth: 880
GlyphClass: 2
Flags: W
LayerCount: 2
Fore
SplineSet
1024 304 m 0,0,1
 1024 221 1024 221 999 146 c 0,2,3
 975 71 975 71 930 8 c 0,4,5
 886 -54 886 -54 825 -101 c 0,6,7
 763 -149 763 -149 690 -176 c 1,8,9
 700 -200 700 -200 704 -208 c 1,10,11
 691 -208 691 -208 678 -208 c 2,12,-1
 652 -208 l 2,13,14
 628 -208 628 -208 604 -208 c 2,15,-1
 559 -208 l 2,16,17
 552 -208 552 -208 545 -208 c 2,18,-1
 531 -208 l 2,19,20
 524 -208 524 -208 517 -208 c 2,21,-1
 504 -208 l 2,22,23
 498 -208 498 -208 492 -208 c 2,24,-1
 479 -208 l 2,25,26
 473 -208 473 -208 467 -208 c 2,27,-1
 320 -208 l 1,28,29
 329 -187 329 -187 334 -176 c 1,30,31
 261 -149 261 -149 199 -101 c 0,32,33
 138 -54 138 -54 94 8 c 0,34,35
 49 71 49 71 25 146 c 0,36,37
 0 221 0 221 0 304 c 0,38,39
 0 410 0 410 40 503 c 0,40,41
 80 597 80 597 150 666 c 0,42,43
 219 736 219 736 313 776 c 0,44,45
 406 816 406 816 512 816 c 256,46,47
 618 816 618 816 711 776 c 0,48,49
 805 736 805 736 874 666 c 0,50,51
 944 597 944 597 984 503 c 0,52,53
 1024 410 1024 410 1024 304 c 0,0,1
688 -172 m 1,54,55
 748 -146 748 -146 798 -104 c 0,56,57
 848 -63 848 -63 884 -9 c 0,58,59
 920 44 920 44 940 107 c 0,60,61
 960 171 960 171 960 240 c 0,62,63
 960 333 960 333 925 416 c 0,64,65
 889 500 889 500 829 563 c 0,66,67
 768 626 768 626 686 663 c 0,68,69
 605 700 605 700 512 700 c 256,70,71
 419 700 419 700 338 663 c 0,72,73
 256 626 256 626 195 563 c 0,74,75
 135 500 135 500 99 416 c 0,76,77
 64 333 64 333 64 240 c 0,78,79
 64 171 64 171 84 107 c 0,80,81
 104 44 104 44 140 -9 c 0,82,83
 176 -63 176 -63 226 -104 c 0,84,85
 276 -146 276 -146 336 -172 c 1,86,87
 385 -57 385 -57 409 1 c 1,88,89
 362 17 362 17 322 46 c 0,90,91
 282 76 282 76 253 116 c 0,92,93
 224 155 224 155 208 203 c 256,94,95
 192 251 192 251 192 304 c 0,96,97
 192 370 192 370 217 429 c 0,98,99
 242 487 242 487 286 530 c 0,100,101
 329 574 329 574 387 599 c 0,102,103
 446 624 446 624 512 624 c 256,104,105
 578 624 578 624 637 599 c 0,106,107
 695 574 695 574 738 530 c 0,108,109
 782 487 782 487 807 429 c 0,110,111
 832 370 832 370 832 304 c 0,112,113
 832 251 832 251 816 203 c 256,114,115
 800 155 800 155 771 116 c 0,116,117
 742 76 742 76 702 46 c 0,118,119
 662 17 662 17 615 1 c 1,120,121
 670 -129 670 -129 688 -172 c 1,54,55
538 179 m 1,122,123
 588 63 588 63 613 5 c 1,124,125
 681 34 681 34 725 98 c 0,126,127
 768 161 768 161 768 240 c 0,128,129
 768 293 768 293 748 342 c 0,130,131
 728 390 728 390 693 427 c 256,132,133
 658 464 658 464 612 486 c 0,134,135
 565 508 565 508 512 508 c 256,136,137
 459 508 459 508 412 486 c 0,138,139
 366 464 366 464 331 427 c 256,140,141
 296 390 296 390 276 342 c 0,142,143
 256 293 256 293 256 240 c 0,144,145
 256 161 256 161 299 98 c 0,146,147
 343 34 343 34 411 5 c 1,148,149
 461 121 461 121 486 179 c 1,150,151
 442 188 442 188 413 223 c 256,152,153
 384 258 384 258 384 304 c 0,154,155
 384 357 384 357 422 394 c 0,156,157
 459 432 459 432 512 432 c 256,158,159
 565 432 565 432 602 394 c 0,160,161
 640 357 640 357 640 304 c 0,162,163
 640 258 640 258 611 223 c 256,164,165
 582 188 582 188 538 179 c 1,122,123
487 181 m 1,166,167
 506 225 506 225 512 240 c 1,168,169
 529 201 529 201 537 181 c 1,170,171
 554 189 554 189 565 205 c 0,172,173
 576 220 576 220 576 240 c 0,174,175
 576 267 576 267 558 286 c 0,176,177
 539 304 539 304 512 304 c 256,178,179
 485 304 485 304 466 286 c 0,180,181
 448 267 448 267 448 240 c 0,182,183
 448 220 448 220 459 205 c 0,184,185
 470 189 470 189 487 181 c 1,166,167
487 181 m 257,186,187
 487 181 l 257,188,189
 487 181 l 257,186,187
EndSplineSet
EndChar

StartChar: uniE91D
Encoding: 59677 59677 31
Width: 1024
VWidth: 880
GlyphClass: 2
Flags: W
LayerCount: 2
Fore
SplineSet
96 304 m 256,0,1
 96 240 96 240 106 179 c 256,2,3
 116 118 116 118 134 63 c 256,4,5
 152 8 152 8 178 -40 c 256,6,7
 204 -88 204 -88 237 -128 c 1,8,9
 183 -94 183 -94 140 -47 c 0,10,11
 96 -1 96 -1 65 54 c 0,12,13
 34 110 34 110 17 173 c 256,14,15
 0 236 0 236 0 304 c 256,16,17
 0 372 0 372 17 435 c 256,18,19
 34 498 34 498 65 554 c 0,20,21
 96 609 96 609 140 655 c 0,22,23
 183 702 183 702 237 736 c 1,24,25
 204 696 204 696 178 648 c 256,26,27
 152 600 152 600 134 545 c 256,28,29
 116 490 116 490 106 429 c 256,30,31
 96 368 96 368 96 304 c 256,0,1
787 736 m 1,32,33
 841 702 841 702 884 655 c 0,34,35
 928 609 928 609 959 554 c 0,36,37
 990 498 990 498 1007 435 c 256,38,39
 1024 372 1024 372 1024 304 c 256,40,41
 1024 236 1024 236 1007 173 c 256,42,43
 990 110 990 110 959 54 c 0,44,45
 928 -1 928 -1 884 -47 c 0,46,47
 841 -94 841 -94 787 -128 c 1,48,49
 820 -88 820 -88 846 -40 c 256,50,51
 872 8 872 8 890 63 c 256,52,53
 908 118 908 118 918 179 c 256,54,55
 928 240 928 240 928 304 c 256,56,57
 928 368 928 368 918 429 c 256,58,59
 908 490 908 490 890 545 c 256,60,61
 872 600 872 600 846 648 c 256,62,63
 820 696 820 696 787 736 c 1,32,33
664 585 m 1,64,65
 702 565 702 565 733 536 c 0,66,67
 764 506 764 506 786 470 c 256,68,69
 808 434 808 434 820 392 c 256,70,71
 832 350 832 350 832 304 c 256,72,73
 832 258 832 258 820 216 c 256,74,75
 808 174 808 174 786 138 c 256,76,77
 764 102 764 102 733 72 c 0,78,79
 702 43 702 43 664 23 c 1,80,81
 697 75 697 75 717 148 c 0,82,83
 736 221 736 221 736 304 c 256,84,85
 736 387 736 387 717 460 c 0,86,87
 697 533 697 533 664 585 c 1,64,65
664 585 m 257,88,89
 664 585 l 257,90,91
 664 585 l 257,92,93
 664 585 l 257,88,89
288 304 m 256,94,95
 288 221 288 221 307 148 c 0,96,97
 327 75 327 75 360 23 c 1,98,99
 322 43 322 43 291 72 c 0,100,101
 260 102 260 102 238 138 c 256,102,103
 216 174 216 174 204 216 c 256,104,105
 192 258 192 258 192 304 c 256,106,107
 192 350 192 350 204 392 c 256,108,109
 216 434 216 434 238 470 c 256,110,111
 260 506 260 506 291 536 c 0,112,113
 322 565 322 565 360 585 c 1,114,115
 327 533 327 533 307 460 c 0,116,117
 288 387 288 387 288 304 c 256,94,95
384 304 m 256,118,119
 384 357 384 357 422 394 c 0,120,121
 459 432 459 432 512 432 c 256,122,123
 565 432 565 432 602 394 c 0,124,125
 640 357 640 357 640 304 c 256,126,127
 640 251 640 251 602 214 c 0,128,129
 565 176 565 176 512 176 c 256,130,131
 459 176 459 176 422 214 c 0,132,133
 384 251 384 251 384 304 c 256,118,119
EndSplineSet
EndChar

StartChar: uniE91E
Encoding: 59678 59678 32
Width: 1024
VWidth: 880
GlyphClass: 2
Flags: W
LayerCount: 2
Fore
SplineSet
512 112 m 256,0,1
 446 112 446 112 399 159 c 256,2,3
 352 206 352 206 352 272 c 2,4,-1
 352 376 l 2,5,6
 352 383 352 383 352 390 c 2,7,-1
 352 404 l 2,8,9
 352 414 352 414 352 424 c 2,10,-1
 352 450 l 2,11,12
 352 460 352 460 352 469 c 2,13,-1
 352 481 l 2,14,15
 352 487 352 487 352 493 c 2,16,-1
 352 656 l 2,17,18
 352 722 352 722 399 769 c 256,19,20
 446 816 446 816 512 816 c 256,21,22
 578 816 578 816 625 769 c 256,23,24
 672 722 672 722 672 656 c 2,25,-1
 672 552 l 2,26,27
 672 545 672 545 672 538 c 2,28,-1
 672 524 l 2,29,30
 672 514 672 514 672 504 c 2,31,-1
 672 478 l 2,32,33
 672 468 672 468 672 459 c 2,34,-1
 672 447 l 2,35,36
 672 441 672 441 672 435 c 2,37,-1
 672 272 l 2,38,39
 672 206 672 206 625 159 c 256,40,41
 578 112 578 112 512 112 c 256,0,1
736 368 m 1,42,43
 738 368 738 368 740 368 c 2,44,-1
 745 368 l 2,45,46
 749 368 749 368 753 368 c 2,47,-1
 760 368 l 2,48,49
 761 368 761 368 763 368 c 2,50,-1
 765 368 l 2,51,52
 766 368 766 368 767 368 c 2,53,-1
 769 368 l 2,54,55
 770 368 770 368 771 368 c 2,56,-1
 773 368 l 2,57,58
 775 368 775 368 776 368 c 2,59,-1
 800 368 l 1,60,61
 800 364 800 364 800 360 c 2,62,-1
 800 355 l 2,63,64
 800 350 800 350 800 345 c 2,65,-1
 800 342 l 2,66,67
 800 340 800 340 800 338 c 2,68,-1
 800 330 l 2,69,70
 800 328 800 328 800 327 c 2,71,-1
 800 322 l 2,72,73
 800 320 800 320 800 319 c 2,74,-1
 800 316 l 2,75,76
 800 314 800 314 800 313 c 2,77,-1
 800 279 l 2,78,79
 800 278 800 278 800 277 c 2,80,-1
 800 272 l 2,81,82
 800 216 800 216 780 167 c 256,83,84
 760 118 760 118 726 80 c 0,85,86
 691 41 691 41 645 16 c 0,87,88
 598 -8 598 -8 544 -14 c 1,89,90
 544 -19 544 -19 544 -23 c 2,91,-1
 544 -32 l 2,92,93
 544 -40 544 -40 544 -48 c 2,94,-1
 544 -63 l 2,95,96
 544 -66 544 -66 544 -68 c 2,97,-1
 544 -73 l 2,98,99
 544 -75 544 -75 544 -77 c 2,100,-1
 544 -82 l 2,101,102
 544 -84 544 -84 544 -86 c 2,103,-1
 544 -90 l 2,104,105
 544 -92 544 -92 544 -94 c 2,106,-1
 544 -144 l 1,107,-1
 672 -144 l 1,108,-1
 672 -163 l 2,109,110
 672 -164 672 -164 672 -166 c 2,111,-1
 672 -168 l 2,112,113
 672 -170 672 -170 672 -172 c 2,114,-1
 672 -176 l 2,115,116
 672 -178 672 -178 672 -179 c 2,117,-1
 672 -181 l 2,118,119
 672 -183 672 -183 672 -184 c 2,120,-1
 672 -208 l 1,121,122
 661 -208 661 -208 650 -208 c 2,123,-1
 629 -208 l 2,124,125
 608 -208 608 -208 589 -208 c 2,126,-1
 551 -208 l 2,127,128
 545 -208 545 -208 539 -208 c 2,129,-1
 528 -208 l 2,130,131
 522 -208 522 -208 517 -208 c 2,132,-1
 506 -208 l 2,133,134
 500 -208 500 -208 495 -208 c 2,135,-1
 485 -208 l 2,136,137
 479 -208 479 -208 474 -208 c 2,138,-1
 352 -208 l 1,139,-1
 352 -189 l 2,140,141
 352 -188 352 -188 352 -186 c 2,142,-1
 352 -184 l 2,143,144
 352 -182 352 -182 352 -180 c 2,145,-1
 352 -176 l 2,146,147
 352 -174 352 -174 352 -173 c 2,148,-1
 352 -171 l 2,149,150
 352 -169 352 -169 352 -168 c 2,151,-1
 352 -144 l 1,152,-1
 480 -144 l 1,153,154
 480 -141 480 -141 480 -139 c 2,155,-1
 480 -133 l 2,156,157
 480 -131 480 -131 480 -128 c 2,158,-1
 480 -123 l 2,159,160
 480 -122 480 -122 480 -121 c 2,161,-1
 480 -109 l 2,162,163
 480 -106 480 -106 480 -104 c 2,164,-1
 480 -99 l 2,165,166
 480 -93 480 -93 480 -88 c 2,167,-1
 480 -81 l 2,168,169
 480 -79 480 -79 480 -77 c 2,170,-1
 480 -73 l 2,171,172
 480 -71 480 -71 480 -69 c 2,173,-1
 480 -27 l 2,174,175
 480 -25 480 -25 480 -24 c 2,176,-1
 480 -17 l 2,177,178
 480 -15 480 -15 480 -14 c 0,179,180
 426 -8 426 -8 379 16 c 0,181,182
 333 41 333 41 298 80 c 0,183,184
 264 118 264 118 244 167 c 256,185,186
 224 216 224 216 224 272 c 0,187,188
 224 276 224 276 224 281 c 2,189,-1
 224 287 l 2,190,191
 224 292 224 292 224 297 c 2,192,-1
 224 301 l 2,193,194
 224 303 224 303 224 305 c 2,195,-1
 224 314 l 2,196,197
 224 315 224 315 224 317 c 2,198,-1
 224 322 l 2,199,200
 224 324 224 324 224 325 c 2,201,-1
 224 328 l 2,202,203
 224 330 224 330 224 331 c 2,204,-1
 224 362 l 2,205,206
 224 363 224 363 224 364 c 2,207,-1
 224 368 l 1,208,209
 226 368 226 368 228 368 c 2,210,-1
 233 368 l 2,211,212
 237 368 237 368 241 368 c 2,213,-1
 248 368 l 2,214,215
 249 368 249 368 251 368 c 2,216,-1
 253 368 l 2,217,218
 254 368 254 368 255 368 c 2,219,-1
 257 368 l 2,220,221
 258 368 258 368 259 368 c 2,222,-1
 261 368 l 2,223,224
 263 368 263 368 264 368 c 2,225,-1
 288 368 l 1,226,227
 288 365 288 365 288 362 c 2,228,-1
 288 356 l 2,229,230
 288 351 288 351 288 345 c 2,231,-1
 288 335 l 2,232,233
 288 333 288 333 288 332 c 2,234,-1
 288 328 l 2,235,236
 288 327 288 327 288 325 c 2,237,-1
 288 322 l 2,238,239
 288 320 288 320 288 319 c 2,240,-1
 288 316 l 2,241,242
 288 314 288 314 288 313 c 2,243,-1
 288 272 l 2,244,245
 288 226 288 226 306 185 c 0,246,247
 323 144 323 144 354 114 c 0,248,249
 384 83 384 83 425 66 c 0,250,251
 466 48 466 48 512 48 c 256,252,253
 558 48 558 48 599 66 c 0,254,255
 640 83 640 83 670 114 c 0,256,257
 701 144 701 144 718 185 c 0,258,259
 736 226 736 226 736 272 c 2,260,-1
 736 287 l 2,261,262
 736 292 736 292 736 297 c 2,263,-1
 736 301 l 2,264,265
 736 303 736 303 736 305 c 2,266,-1
 736 308 l 2,267,268
 736 311 736 311 736 314 c 2,269,-1
 736 320 l 2,270,271
 736 322 736 322 736 324 c 2,272,-1
 736 328 l 2,273,274
 736 330 736 330 736 331 c 2,275,-1
 736 360 l 2,276,277
 736 361 736 361 736 362 c 2,278,-1
 736 368 l 1,42,43
EndSplineSet
EndChar

StartChar: uniE91F
Encoding: 59679 59679 33
Width: 1024
VWidth: 880
GlyphClass: 2
Flags: W
LayerCount: 2
Fore
SplineSet
896 688 m 1,0,1
 899 688 899 688 902 688 c 2,2,-1
 915 688 l 2,3,4
 919 688 919 688 923 688 c 2,5,-1
 933 688 l 2,6,7
 935 688 935 688 936 688 c 2,8,-1
 954 688 l 2,9,10
 955 688 955 688 956 688 c 2,11,-1
 960 688 l 1,12,13
 960 626 960 626 960 568 c 2,14,-1
 960 529 l 2,15,16
 960 453 960 453 960 384 c 2,17,-1
 960 350 l 2,18,19
 960 333 960 333 960 317 c 2,20,-1
 960 284 l 2,21,22
 960 244 960 244 960 207 c 2,23,-1
 960 163 l 2,24,25
 960 149 960 149 960 135 c 2,26,-1
 960 -128 l 2,27,28
 960 -133 960 -133 960 -137 c 2,29,-1
 960 -155 l 2,30,31
 960 -159 960 -159 960 -163 c 2,32,-1
 960 -208 l 1,33,34
 936 -208 936 -208 913 -208 c 2,35,-1
 868 -208 l 2,36,37
 823 -208 823 -208 780 -208 c 2,38,-1
 696 -208 l 2,39,40
 682 -208 682 -208 669 -208 c 2,41,-1
 643 -208 l 2,42,43
 630 -208 630 -208 617 -208 c 2,44,-1
 591 -208 l 2,45,46
 579 -208 579 -208 566 -208 c 2,47,-1
 542 -208 l 2,48,49
 530 -208 530 -208 518 -208 c 2,50,-1
 192 -208 l 2,51,52
 139 -208 139 -208 102 -170 c 0,53,54
 64 -133 64 -133 64 -80 c 0,55,56
 64 -56 64 -56 64 -33 c 2,57,-1
 64 12 l 2,58,59
 64 57 64 57 64 100 c 2,60,-1
 64 184 l 2,61,62
 64 198 64 198 64 211 c 2,63,-1
 64 237 l 2,64,65
 64 250 64 250 64 263 c 2,66,-1
 64 289 l 2,67,68
 64 301 64 301 64 314 c 2,69,-1
 64 338 l 2,70,71
 64 350 64 350 64 362 c 2,72,-1
 64 688 l 2,73,74
 64 741 64 741 102 778 c 0,75,76
 139 816 139 816 192 816 c 0,77,78
 236 816 236 816 278 816 c 2,79,-1
 305 816 l 2,80,81
 360 816 360 816 409 816 c 2,82,-1
 433 816 l 2,83,84
 445 816 445 816 457 816 c 2,85,-1
 480 816 l 2,86,87
 509 816 509 816 536 816 c 2,88,-1
 567 816 l 2,89,90
 577 816 577 816 587 816 c 2,91,-1
 775 816 l 2,92,93
 778 816 778 816 782 816 c 2,94,-1
 794 816 l 2,95,96
 797 816 797 816 800 816 c 2,97,-1
 832 816 l 1,98,99
 832 781 832 781 832 747 c 2,100,-1
 832 586 l 2,101,102
 832 540 832 540 832 498 c 2,103,-1
 832 366 l 2,104,105
 832 354 832 354 832 342 c 2,106,-1
 832 116 l 2,107,108
 832 108 832 108 832 101 c 2,109,-1
 832 48 l 1,110,111
 807 48 807 48 783 48 c 2,112,-1
 747 48 l 2,113,114
 718 48 718 48 689 48 c 2,115,-1
 667 48 l 2,116,117
 656 48 656 48 645 48 c 2,118,-1
 591 48 l 2,119,120
 581 48 581 48 571 48 c 2,121,-1
 540 48 l 2,122,123
 530 48 530 48 521 48 c 2,124,-1
 501 48 l 2,125,126
 492 48 492 48 482 48 c 2,127,-1
 270 48 l 2,128,129
 263 48 263 48 256 48 c 2,130,-1
 224 48 l 2,131,132
 184 48 184 48 156 20 c 256,133,134
 128 -8 128 -8 128 -48 c 256,135,136
 128 -88 128 -88 156 -116 c 256,137,138
 184 -144 184 -144 224 -144 c 2,139,-1
 896 -144 l 1,140,141
 896 -125 896 -125 896 -106 c 2,142,-1
 896 -69 l 2,143,144
 896 -50 896 -50 896 -32 c 2,145,-1
 896 3 l 2,146,147
 896 12 896 12 896 21 c 2,148,-1
 896 106 l 2,149,150
 896 122 896 122 896 138 c 2,151,-1
 896 170 l 2,152,153
 896 209 896 209 896 246 c 2,154,-1
 896 289 l 2,155,156
 896 303 896 303 896 316 c 2,157,-1
 896 343 l 2,158,159
 896 357 896 357 896 370 c 2,160,-1
 896 622 l 2,161,162
 896 631 896 631 896 638 c 2,163,-1
 896 675 l 2,164,165
 896 682 896 682 896 688 c 1,0,1
224 -16 m 2,166,-1
 238 -16 l 2,167,168
 252 -16 252 -16 265 -16 c 2,169,-1
 306 -16 l 2,170,171
 345 -16 345 -16 382 -16 c 2,172,-1
 453 -16 l 2,173,174
 465 -16 465 -16 476 -16 c 2,175,-1
 498 -16 l 2,176,177
 509 -16 509 -16 519 -16 c 2,178,-1
 540 -16 l 2,179,180
 550 -16 550 -16 560 -16 c 2,181,-1
 580 -16 l 2,182,183
 590 -16 590 -16 599 -16 c 2,184,-1
 832 -16 l 1,185,186
 832 -19 832 -19 832 -22 c 2,187,-1
 832 -35 l 2,188,189
 832 -39 832 -39 832 -43 c 2,190,-1
 832 -53 l 2,191,192
 832 -55 832 -55 832 -56 c 2,193,-1
 832 -74 l 2,194,195
 832 -75 832 -75 832 -76 c 2,196,-1
 832 -80 l 1,197,198
 811 -80 811 -80 791 -80 c 2,199,-1
 750 -80 l 2,200,201
 711 -80 711 -80 674 -80 c 2,202,-1
 603 -80 l 2,203,204
 591 -80 591 -80 580 -80 c 2,205,-1
 558 -80 l 2,206,207
 547 -80 547 -80 537 -80 c 2,208,-1
 516 -80 l 2,209,210
 506 -80 506 -80 496 -80 c 2,211,-1
 476 -80 l 2,212,213
 466 -80 466 -80 457 -80 c 2,214,-1
 224 -80 l 2,215,216
 211 -80 211 -80 202 -70 c 0,217,218
 192 -61 192 -61 192 -48 c 256,219,220
 192 -35 192 -35 202 -26 c 0,221,222
 211 -16 211 -16 224 -16 c 2,166,-1
224 -80 m 257,223,224
 224 -80 l 257,225,226
 224 -80 l 257,223,224
EndSplineSet
EndChar

StartChar: uniE920
Encoding: 59680 59680 34
Width: 1152
VWidth: 880
GlyphClass: 2
Flags: W
LayerCount: 2
Fore
SplineSet
250 688 m 2,0,1
 263 688 263 688 272 678 c 0,2,3
 282 669 282 669 282 656 c 0,4,5
 282 634 282 634 282 613 c 2,6,-1
 282 571 l 2,7,8
 282 530 282 530 282 491 c 2,9,-1
 282 414 l 2,10,11
 282 402 282 402 282 390 c 2,12,-1
 282 365 l 2,13,14
 282 353 282 353 282 342 c 2,15,-1
 282 318 l 2,16,17
 282 307 282 307 282 295 c 2,18,-1
 282 273 l 2,19,20
 282 262 282 262 282 251 c 2,21,-1
 282 -48 l 2,22,23
 282 -61 282 -61 272 -70 c 0,24,25
 263 -80 263 -80 250 -80 c 0,26,27
 244 -80 244 -80 238 -80 c 2,28,-1
 227 -80 l 2,29,30
 216 -80 216 -80 205 -80 c 2,31,-1
 184 -80 l 2,32,33
 181 -80 181 -80 177 -80 c 2,34,-1
 171 -80 l 2,35,36
 167 -80 167 -80 164 -80 c 2,37,-1
 158 -80 l 2,38,39
 155 -80 155 -80 152 -80 c 2,40,-1
 145 -80 l 2,41,42
 142 -80 142 -80 139 -80 c 2,43,-1
 58 -80 l 2,44,45
 45 -80 45 -80 36 -70 c 0,46,47
 26 -61 26 -61 26 -48 c 2,48,-1
 26 656 l 2,49,50
 26 669 26 669 36 678 c 0,51,52
 45 688 45 688 58 688 c 0,53,54
 67 688 67 688 75 688 c 2,55,-1
 116 688 l 2,56,57
 127 688 127 688 138 688 c 2,58,-1
 170 688 l 2,59,60
 174 688 174 688 177 688 c 2,61,-1
 233 688 l 2,62,63
 235 688 235 688 237 688 c 2,64,-1
 250 688 l 2,0,1
570 688 m 2,65,66
 583 688 583 688 592 678 c 0,67,68
 602 669 602 669 602 656 c 2,69,-1
 602 517 l 2,70,71
 602 504 602 504 602 491 c 2,72,-1
 602 414 l 2,73,74
 602 402 602 402 602 390 c 2,75,-1
 602 365 l 2,76,77
 602 353 602 353 602 342 c 2,78,-1
 602 318 l 2,79,80
 602 307 602 307 602 295 c 2,81,-1
 602 273 l 2,82,83
 602 262 602 262 602 251 c 2,84,-1
 602 -48 l 2,85,86
 602 -61 602 -61 592 -70 c 0,87,88
 583 -80 583 -80 570 -80 c 0,89,90
 564 -80 564 -80 558 -80 c 2,91,-1
 547 -80 l 2,92,93
 536 -80 536 -80 525 -80 c 2,94,-1
 504 -80 l 2,95,96
 501 -80 501 -80 497 -80 c 2,97,-1
 491 -80 l 2,98,99
 487 -80 487 -80 484 -80 c 2,100,-1
 478 -80 l 2,101,102
 475 -80 475 -80 472 -80 c 2,103,-1
 465 -80 l 2,104,105
 462 -80 462 -80 459 -80 c 2,106,-1
 378 -80 l 2,107,108
 365 -80 365 -80 356 -70 c 0,109,110
 346 -61 346 -61 346 -48 c 2,111,-1
 346 143 l 2,112,113
 346 156 346 156 346 169 c 2,114,-1
 346 194 l 2,115,116
 346 212 346 212 346 231 c 2,117,-1
 346 278 l 2,118,119
 346 296 346 296 346 313 c 2,120,-1
 346 335 l 2,121,122
 346 346 346 346 346 357 c 2,123,-1
 346 656 l 2,124,125
 346 669 346 669 356 678 c 0,126,127
 365 688 365 688 378 688 c 0,128,129
 387 688 387 688 395 688 c 2,130,-1
 436 688 l 2,131,132
 447 688 447 688 458 688 c 2,133,-1
 490 688 l 2,134,135
 494 688 494 688 497 688 c 2,136,-1
 553 688 l 2,137,138
 555 688 555 688 557 688 c 2,139,-1
 570 688 l 2,65,66
791 639 m 1,140,141
 798 642 798 642 805 642 c 0,142,143
 810 642 810 642 816 640 c 0,144,145
 828 636 828 636 834 624 c 0,146,147
 1026 243 1026 243 1122 53 c 0,148,149
 1126 46 1126 46 1126 38 c 0,150,151
 1126 34 1126 34 1124 29 c 0,152,153
 1120 16 1120 16 1108 10 c 0,154,155
 993 -48 993 -48 936 -77 c 0,156,157
 930 -80 930 -80 923 -80 c 0,158,159
 918 -80 918 -80 912 -78 c 0,160,161
 899 -74 899 -74 893 -62 c 0,162,163
 701 319 701 319 605 509 c 0,164,165
 602 516 602 516 602 523 c 0,166,167
 602 528 602 528 604 534 c 0,168,169
 608 546 608 546 620 552 c 0,170,171
 746 616 746 616 790 638 c 1,172,-1
 791 639 l 1,173,174
 791 639 l 1,140,141
538 496 m 1,175,176
 538 498 538 498 538 500 c 2,177,-1
 538 505 l 2,178,179
 538 509 538 509 538 513 c 2,180,-1
 538 520 l 2,181,182
 538 521 538 521 538 523 c 2,183,-1
 538 525 l 2,184,185
 538 526 538 526 538 527 c 2,186,-1
 538 529 l 2,187,188
 538 530 538 530 538 531 c 2,189,-1
 538 533 l 2,190,191
 538 535 538 535 538 536 c 2,192,-1
 538 560 l 1,193,-1
 518 560 l 2,194,195
 511 560 511 560 505 560 c 2,196,-1
 500 560 l 2,197,198
 497 560 497 560 495 560 c 2,199,-1
 490 560 l 2,200,201
 486 560 486 560 483 560 c 2,202,-1
 474 560 l 2,203,204
 471 560 471 560 469 560 c 2,205,-1
 463 560 l 2,206,207
 461 560 461 560 459 560 c 2,208,-1
 420 560 l 2,209,210
 419 560 419 560 418 560 c 2,211,-1
 410 560 l 1,212,213
 410 557 410 557 410 554 c 2,214,-1
 410 550 l 2,215,216
 410 547 410 547 410 543 c 2,217,-1
 410 541 l 2,218,219
 410 540 410 540 410 538 c 2,220,-1
 410 532 l 2,221,222
 410 531 410 531 410 530 c 2,223,-1
 410 527 l 2,224,225
 410 526 410 526 410 525 c 2,226,-1
 410 523 l 2,227,228
 410 521 410 521 410 520 c 2,229,-1
 410 500 l 2,230,231
 410 499 l 1,232,-1
 410 496 l 1,233,-1
 448 496 l 2,234,235
 451 496 451 496 453 496 c 2,236,-1
 458 496 l 2,237,238
 462 496 462 496 465 496 c 2,239,-1
 474 496 l 2,240,241
 478 496 478 496 481 496 c 2,242,-1
 485 496 l 2,243,244
 487 496 487 496 489 496 c 2,245,-1
 538 496 l 1,175,176
218 496 m 1,246,247
 218 499 218 499 218 502 c 2,248,-1
 218 506 l 2,249,250
 218 509 218 509 218 513 c 2,251,-1
 218 515 l 2,252,253
 218 516 218 516 218 518 c 2,254,-1
 218 524 l 2,255,256
 218 525 218 525 218 526 c 2,257,-1
 218 529 l 2,258,259
 218 530 218 530 218 531 c 2,260,-1
 218 533 l 2,261,262
 218 535 218 535 218 536 c 2,263,-1
 218 556 l 2,264,265
 218 557 l 1,266,-1
 218 560 l 1,267,-1
 198 560 l 2,268,269
 191 560 191 560 185 560 c 2,270,-1
 180 560 l 2,271,272
 177 560 177 560 175 560 c 2,273,-1
 170 560 l 2,274,275
 166 560 166 560 163 560 c 2,276,-1
 154 560 l 2,277,278
 151 560 151 560 149 560 c 2,279,-1
 143 560 l 2,280,281
 141 560 141 560 139 560 c 2,282,-1
 100 560 l 2,283,284
 99 560 99 560 98 560 c 2,285,-1
 90 560 l 1,286,287
 90 558 90 558 90 556 c 2,288,-1
 90 551 l 2,289,290
 90 547 90 547 90 543 c 2,291,-1
 90 536 l 2,292,293
 90 535 90 535 90 533 c 2,294,-1
 90 531 l 2,295,296
 90 530 90 530 90 529 c 2,297,-1
 90 527 l 2,298,299
 90 526 90 526 90 525 c 2,300,-1
 90 523 l 2,301,302
 90 521 90 521 90 520 c 2,303,-1
 90 496 l 1,304,-1
 128 496 l 2,305,306
 131 496 131 496 133 496 c 2,307,-1
 138 496 l 2,308,309
 142 496 142 496 145 496 c 2,310,-1
 154 496 l 2,311,312
 158 496 158 496 161 496 c 2,313,-1
 165 496 l 2,314,315
 167 496 167 496 169 496 c 2,316,-1
 218 496 l 1,246,247
EndSplineSet
EndChar

StartChar: uniE921
Encoding: 59681 59681 35
Width: 1088
VWidth: 880
GlyphClass: 2
Flags: W
LayerCount: 2
Fore
SplineSet
512 816 m 1,0,-1
 515 816 l 2,1,2
 516 816 l 1,3,-1
 517 816 l 1,4,5
 518 816 l 2,6,-1
 536 816 l 2,7,8
 537 816 537 816 539 816 c 2,9,-1
 542 816 l 2,10,11
 544 816 544 816 547 816 c 2,12,-1
 549 816 l 2,13,14
 551 816 551 816 552 816 c 2,15,-1
 554 816 l 2,16,17
 559 816 559 816 565 816 c 2,18,-1
 567 816 l 2,19,20
 572 816 572 816 576 816 c 0,21,22
 592 806 592 806 611 794 c 2,23,-1
 627 784 l 2,24,25
 769 695 769 695 1088 496 c 1,26,-1
 1088 472 l 2,27,28
 1088 471 1088 471 1088 469 c 2,29,-1
 1088 467 l 2,30,31
 1088 466 1088 466 1088 465 c 2,32,-1
 1088 463 l 2,33,34
 1088 462 1088 462 1088 461 c 2,35,-1
 1088 459 l 2,36,37
 1088 455 1088 455 1088 451 c 2,38,-1
 1088 432 l 1,39,-1
 672 432 l 2,40,41
 655 432 655 432 637 432 c 2,42,-1
 602 432 l 2,43,44
 584 432 584 432 566 432 c 2,45,-1
 528 432 l 2,46,47
 509 432 509 432 490 432 c 2,48,-1
 451 432 l 2,49,50
 431 432 431 432 410 432 c 2,51,-1
 283 432 l 2,52,53
 261 432 261 432 238 432 c 2,54,-1
 0 432 l 1,55,-1
 0 496 l 1,56,57
 16 506 16 506 35 518 c 2,58,-1
 51 528 l 2,59,60
 193 617 193 617 512 816 c 1,0,-1
1024 -144 m 1,61,-1
 1088 -144 l 1,62,-1
 1088 -163 l 2,63,64
 1088 -167 1088 -167 1088 -171 c 2,65,-1
 1088 -173 l 2,66,67
 1088 -174 1088 -174 1088 -175 c 2,68,-1
 1088 -177 l 2,69,70
 1088 -178 1088 -178 1088 -179 c 2,71,-1
 1088 -181 l 2,72,73
 1088 -183 1088 -183 1088 -184 c 2,74,-1
 1088 -208 l 1,75,76
 1050 -208 1050 -208 1014 -208 c 2,77,-1
 942 -208 l 2,78,79
 871 -208 871 -208 805 -208 c 2,80,-1
 678 -208 l 2,81,82
 657 -208 657 -208 637 -208 c 2,83,-1
 598 -208 l 2,84,85
 579 -208 579 -208 560 -208 c 2,86,-1
 522 -208 l 2,87,88
 504 -208 504 -208 486 -208 c 2,89,-1
 451 -208 l 2,90,91
 433 -208 433 -208 416 -208 c 2,92,-1
 0 -208 l 1,93,-1
 0 -144 l 1,94,-1
 64 -144 l 1,95,96
 64 -142 64 -142 64 -140 c 2,97,-1
 64 -135 l 2,98,99
 64 -131 64 -131 64 -127 c 2,100,-1
 64 -120 l 2,101,102
 64 -119 64 -119 64 -117 c 2,103,-1
 64 -115 l 2,104,105
 64 -114 64 -114 64 -113 c 2,106,-1
 64 -111 l 2,107,108
 64 -110 64 -110 64 -109 c 2,109,-1
 64 -107 l 2,110,111
 64 -105 64 -105 64 -104 c 2,112,-1
 64 -80 l 1,113,114
 66 -80 66 -80 68 -80 c 2,115,-1
 73 -80 l 2,116,117
 77 -80 77 -80 81 -80 c 2,118,-1
 88 -80 l 2,119,120
 89 -80 89 -80 91 -80 c 2,121,-1
 93 -80 l 2,122,123
 94 -80 94 -80 95 -80 c 2,124,-1
 97 -80 l 2,125,126
 98 -80 98 -80 99 -80 c 2,127,-1
 101 -80 l 2,128,129
 103 -80 103 -80 104 -80 c 2,130,-1
 128 -80 l 1,131,132
 128 -67 128 -67 128 -54 c 2,133,-1
 128 -28 l 2,134,135
 128 -4 128 -4 128 20 c 2,136,-1
 128 65 l 2,137,138
 128 72 128 72 128 79 c 2,139,-1
 128 93 l 2,140,141
 128 100 128 100 128 107 c 2,142,-1
 128 120 l 2,143,144
 128 126 128 126 128 132 c 2,145,-1
 128 145 l 2,146,147
 128 151 128 151 128 157 c 2,148,-1
 128 304 l 1,149,150
 127 304 127 304 125 304 c 2,151,-1
 122 304 l 2,152,153
 121 304 121 304 119 304 c 2,154,-1
 117 304 l 2,155,156
 116 304 116 304 115 304 c 2,157,-1
 109 304 l 2,158,159
 108 304 108 304 106 304 c 2,160,-1
 104 304 l 2,161,162
 101 304 101 304 98 304 c 2,163,-1
 95 304 l 2,164,165
 94 304 94 304 93 304 c 2,166,-1
 91 304 l 2,167,168
 89 304 89 304 88 304 c 2,169,-1
 69 304 l 2,170,171
 68 304 l 1,172,-1
 65 304 l 2,173,174
 64 304 l 1,175,176
 64 306 64 306 64 308 c 2,177,-1
 64 313 l 2,178,179
 64 317 64 317 64 321 c 2,180,-1
 64 328 l 2,181,182
 64 329 64 329 64 331 c 2,183,-1
 64 333 l 2,184,185
 64 334 64 334 64 335 c 2,186,-1
 64 337 l 2,187,188
 64 338 64 338 64 339 c 2,189,-1
 64 341 l 2,190,191
 64 343 64 343 64 344 c 2,192,-1
 64 368 l 1,193,194
 71 368 71 368 77 368 c 2,195,-1
 90 368 l 2,196,197
 102 368 102 368 114 368 c 2,198,-1
 136 368 l 2,199,200
 140 368 140 368 144 368 c 2,201,-1
 150 368 l 2,202,203
 154 368 154 368 157 368 c 2,204,-1
 164 368 l 2,205,206
 167 368 167 368 170 368 c 2,207,-1
 176 368 l 2,208,209
 180 368 180 368 183 368 c 2,210,-1
 256 368 l 1,211,212
 256 366 256 366 256 364 c 2,213,-1
 256 359 l 2,214,215
 256 355 256 355 256 351 c 2,216,-1
 256 344 l 2,217,218
 256 343 256 343 256 341 c 2,219,-1
 256 339 l 2,220,221
 256 338 256 338 256 337 c 2,222,-1
 256 335 l 2,223,224
 256 334 256 334 256 333 c 2,225,-1
 256 331 l 2,226,227
 256 329 256 329 256 328 c 2,228,-1
 256 304 l 1,229,230
 255 304 255 304 253 304 c 2,231,-1
 250 304 l 2,232,233
 249 304 249 304 247 304 c 2,234,-1
 245 304 l 2,235,236
 244 304 244 304 243 304 c 2,237,-1
 237 304 l 2,238,239
 236 304 236 304 234 304 c 2,240,-1
 232 304 l 2,241,242
 229 304 229 304 226 304 c 2,243,-1
 223 304 l 2,244,245
 222 304 222 304 221 304 c 2,246,-1
 219 304 l 2,247,248
 217 304 217 304 216 304 c 2,249,-1
 197 304 l 2,250,251
 196 304 l 1,252,-1
 193 304 l 2,253,254
 192 304 l 1,255,256
 192 286 192 286 192 269 c 2,257,-1
 192 244 l 2,258,259
 192 224 192 224 192 204 c 2,260,-1
 192 189 l 2,261,262
 192 181 192 181 192 174 c 2,263,-1
 192 138 l 2,264,265
 192 131 192 131 192 124 c 2,266,-1
 192 104 l 2,267,268
 192 98 192 98 192 92 c 2,269,-1
 192 79 l 2,270,271
 192 73 192 73 192 67 c 2,272,-1
 192 -57 l 2,273,274
 192 -61 192 -61 192 -64 c 2,275,-1
 192 -80 l 1,276,277
 199 -80 199 -80 205 -80 c 2,278,-1
 218 -80 l 2,279,280
 230 -80 230 -80 242 -80 c 2,281,-1
 264 -80 l 2,282,283
 268 -80 268 -80 272 -80 c 2,284,-1
 278 -80 l 2,285,286
 282 -80 282 -80 285 -80 c 2,287,-1
 292 -80 l 2,288,289
 295 -80 295 -80 298 -80 c 2,290,-1
 304 -80 l 2,291,292
 308 -80 308 -80 311 -80 c 2,293,-1
 384 -80 l 1,294,295
 384 -62 384 -62 384 -45 c 2,296,-1
 384 -20 l 2,297,298
 384 0 384 0 384 20 c 2,299,-1
 384 35 l 2,300,301
 384 43 384 43 384 50 c 2,302,-1
 384 86 l 2,303,304
 384 93 384 93 384 100 c 2,305,-1
 384 120 l 2,306,307
 384 126 384 126 384 132 c 2,308,-1
 384 145 l 2,309,310
 384 151 384 151 384 157 c 2,311,-1
 384 281 l 2,312,313
 384 285 384 285 384 288 c 2,314,-1
 384 304 l 1,315,316
 383 304 383 304 381 304 c 2,317,-1
 378 304 l 2,318,319
 377 304 377 304 375 304 c 2,320,-1
 373 304 l 2,321,322
 372 304 372 304 371 304 c 2,323,-1
 365 304 l 2,324,325
 364 304 364 304 362 304 c 2,326,-1
 360 304 l 2,327,328
 357 304 357 304 354 304 c 2,329,-1
 351 304 l 2,330,331
 350 304 350 304 349 304 c 2,332,-1
 347 304 l 2,333,334
 345 304 345 304 344 304 c 2,335,-1
 325 304 l 2,336,337
 324 304 l 1,338,-1
 321 304 l 2,339,340
 320 304 l 1,341,-1
 320 323 l 2,342,343
 320 324 320 324 320 326 c 2,344,-1
 320 328 l 2,345,346
 320 330 320 330 320 332 c 2,347,-1
 320 336 l 2,348,349
 320 338 320 338 320 339 c 2,350,-1
 320 341 l 2,351,352
 320 343 320 343 320 344 c 2,353,-1
 320 368 l 1,354,355
 327 368 327 368 333 368 c 2,356,-1
 346 368 l 2,357,358
 358 368 358 368 370 368 c 2,359,-1
 392 368 l 2,360,361
 396 368 396 368 400 368 c 2,362,-1
 406 368 l 2,363,364
 410 368 410 368 413 368 c 2,365,-1
 420 368 l 2,366,367
 423 368 423 368 426 368 c 2,368,-1
 432 368 l 2,369,370
 436 368 436 368 439 368 c 2,371,-1
 512 368 l 1,372,373
 512 366 512 366 512 364 c 2,374,-1
 512 359 l 2,375,376
 512 355 512 355 512 351 c 2,377,-1
 512 344 l 2,378,379
 512 343 512 343 512 341 c 2,380,-1
 512 339 l 2,381,382
 512 338 512 338 512 337 c 2,383,-1
 512 335 l 2,384,385
 512 334 512 334 512 333 c 2,386,-1
 512 331 l 2,387,388
 512 329 512 329 512 328 c 2,389,-1
 512 304 l 1,390,391
 511 304 511 304 509 304 c 2,392,-1
 506 304 l 2,393,394
 505 304 505 304 503 304 c 2,395,-1
 501 304 l 2,396,397
 500 304 500 304 499 304 c 2,398,-1
 493 304 l 2,399,400
 492 304 492 304 490 304 c 2,401,-1
 488 304 l 2,402,403
 485 304 485 304 482 304 c 2,404,-1
 479 304 l 2,405,406
 478 304 478 304 477 304 c 2,407,-1
 475 304 l 2,408,409
 473 304 473 304 472 304 c 2,410,-1
 453 304 l 2,411,412
 452 304 l 1,413,-1
 449 304 l 2,414,415
 448 304 l 1,416,417
 448 295 448 295 448 286 c 2,418,-1
 448 269 l 2,419,420
 448 261 448 261 448 252 c 2,421,-1
 448 236 l 2,422,423
 448 232 448 232 448 228 c 2,424,-1
 448 189 l 2,425,426
 448 181 448 181 448 174 c 2,427,-1
 448 159 l 2,428,429
 448 141 448 141 448 124 c 2,430,-1
 448 104 l 2,431,432
 448 98 448 98 448 92 c 2,433,-1
 448 79 l 2,434,435
 448 73 448 73 448 67 c 2,436,-1
 448 -50 l 2,437,438
 448 -54 448 -54 448 -57 c 2,439,-1
 448 -74 l 2,440,441
 448 -77 448 -77 448 -80 c 1,442,443
 455 -80 455 -80 461 -80 c 2,444,-1
 474 -80 l 2,445,446
 486 -80 486 -80 498 -80 c 2,447,-1
 520 -80 l 2,448,449
 524 -80 524 -80 528 -80 c 2,450,-1
 534 -80 l 2,451,452
 538 -80 538 -80 541 -80 c 2,453,-1
 548 -80 l 2,454,455
 551 -80 551 -80 554 -80 c 2,456,-1
 560 -80 l 2,457,458
 564 -80 564 -80 567 -80 c 2,459,-1
 640 -80 l 1,460,-1
 640 35 l 2,461,462
 640 43 640 43 640 50 c 2,463,-1
 640 65 l 2,464,465
 640 76 640 76 640 86 c 2,466,-1
 640 113 l 2,467,468
 640 123 640 123 640 132 c 2,469,-1
 640 145 l 2,470,471
 640 151 640 151 640 157 c 2,472,-1
 640 304 l 1,473,474
 639 304 639 304 637 304 c 2,475,-1
 634 304 l 2,476,477
 633 304 633 304 631 304 c 2,478,-1
 629 304 l 2,479,480
 628 304 628 304 627 304 c 2,481,-1
 621 304 l 2,482,483
 620 304 620 304 618 304 c 2,484,-1
 616 304 l 2,485,486
 613 304 613 304 610 304 c 2,487,-1
 607 304 l 2,488,489
 606 304 606 304 605 304 c 2,490,-1
 603 304 l 2,491,492
 601 304 601 304 600 304 c 2,493,-1
 581 304 l 2,494,495
 580 304 l 1,496,-1
 577 304 l 2,497,498
 576 304 l 1,499,-1
 576 318 l 2,500,501
 576 319 576 319 576 321 c 2,502,-1
 576 328 l 2,503,504
 576 329 576 329 576 331 c 2,505,-1
 576 333 l 2,506,507
 576 334 576 334 576 335 c 2,508,-1
 576 337 l 2,509,510
 576 338 576 338 576 339 c 2,511,-1
 576 341 l 2,512,513
 576 343 576 343 576 344 c 2,514,-1
 576 368 l 1,515,516
 583 368 583 368 589 368 c 2,517,-1
 602 368 l 2,518,519
 614 368 614 368 626 368 c 2,520,-1
 648 368 l 2,521,522
 652 368 652 368 656 368 c 2,523,-1
 662 368 l 2,524,525
 666 368 666 368 669 368 c 2,526,-1
 676 368 l 2,527,528
 679 368 679 368 682 368 c 2,529,-1
 688 368 l 2,530,531
 692 368 692 368 695 368 c 2,532,-1
 768 368 l 1,533,534
 768 365 768 365 768 362 c 2,535,-1
 768 358 l 2,536,537
 768 355 768 355 768 351 c 2,538,-1
 768 349 l 2,539,540
 768 348 768 348 768 346 c 2,541,-1
 768 340 l 2,542,543
 768 339 768 339 768 338 c 2,544,-1
 768 335 l 2,545,546
 768 334 768 334 768 333 c 2,547,-1
 768 331 l 2,548,549
 768 329 768 329 768 328 c 2,550,-1
 768 308 l 2,551,552
 768 307 l 1,553,-1
 768 304 l 1,554,555
 767 304 767 304 765 304 c 2,556,-1
 762 304 l 2,557,558
 761 304 761 304 759 304 c 2,559,-1
 757 304 l 2,560,561
 756 304 756 304 755 304 c 2,562,-1
 749 304 l 2,563,564
 748 304 748 304 746 304 c 2,565,-1
 744 304 l 2,566,567
 741 304 741 304 738 304 c 2,568,-1
 735 304 l 2,569,570
 734 304 734 304 733 304 c 2,571,-1
 731 304 l 2,572,573
 729 304 729 304 728 304 c 2,574,-1
 709 304 l 2,575,576
 708 304 l 1,577,-1
 705 304 l 2,578,579
 704 304 l 1,580,-1
 704 244 l 2,581,582
 704 224 704 224 704 204 c 2,583,-1
 704 189 l 2,584,585
 704 181 704 181 704 174 c 2,586,-1
 704 159 l 2,587,588
 704 148 704 148 704 138 c 2,589,-1
 704 111 l 2,590,591
 704 104 704 104 704 98 c 2,592,-1
 704 79 l 2,593,594
 704 73 704 73 704 67 c 2,595,-1
 704 -50 l 2,596,597
 704 -54 704 -54 704 -57 c 2,598,-1
 704 -80 l 1,599,600
 711 -80 711 -80 717 -80 c 2,601,-1
 730 -80 l 2,602,603
 742 -80 742 -80 754 -80 c 2,604,-1
 776 -80 l 2,605,606
 780 -80 780 -80 784 -80 c 2,607,-1
 790 -80 l 2,608,609
 794 -80 794 -80 797 -80 c 2,610,-1
 804 -80 l 2,611,612
 807 -80 807 -80 810 -80 c 2,613,-1
 816 -80 l 2,614,615
 820 -80 820 -80 823 -80 c 2,616,-1
 896 -80 l 1,617,618
 896 -71 896 -71 896 -62 c 2,619,-1
 896 -45 l 2,620,621
 896 -37 896 -37 896 -28 c 2,622,-1
 896 -12 l 2,623,624
 896 -8 896 -8 896 -4 c 2,625,-1
 896 35 l 2,626,627
 896 43 896 43 896 50 c 2,628,-1
 896 65 l 2,629,630
 896 83 896 83 896 100 c 2,631,-1
 896 120 l 2,632,633
 896 126 896 126 896 132 c 2,634,-1
 896 145 l 2,635,636
 896 151 896 151 896 157 c 2,637,-1
 896 274 l 2,638,639
 896 278 896 278 896 281 c 2,640,-1
 896 298 l 2,641,642
 896 301 896 301 896 304 c 1,643,644
 895 304 895 304 893 304 c 2,645,-1
 890 304 l 2,646,647
 889 304 889 304 887 304 c 2,648,-1
 885 304 l 2,649,650
 884 304 884 304 883 304 c 2,651,-1
 877 304 l 2,652,653
 876 304 876 304 874 304 c 2,654,-1
 872 304 l 2,655,656
 869 304 869 304 866 304 c 2,657,-1
 863 304 l 2,658,659
 862 304 862 304 861 304 c 2,660,-1
 859 304 l 2,661,662
 857 304 857 304 856 304 c 2,663,-1
 837 304 l 2,664,665
 836 304 l 1,666,-1
 833 304 l 2,667,668
 832 304 l 1,669,670
 832 307 832 307 832 310 c 2,671,-1
 832 323 l 2,672,673
 832 327 832 327 832 331 c 2,674,-1
 832 341 l 2,675,676
 832 343 832 343 832 344 c 2,677,-1
 832 362 l 2,678,679
 832 363 832 363 832 364 c 2,680,-1
 832 368 l 1,681,682
 839 368 839 368 845 368 c 2,683,-1
 858 368 l 2,684,685
 870 368 870 368 882 368 c 2,686,-1
 904 368 l 2,687,688
 908 368 908 368 912 368 c 2,689,-1
 918 368 l 2,690,691
 922 368 922 368 925 368 c 2,692,-1
 932 368 l 2,693,694
 935 368 935 368 938 368 c 2,695,-1
 944 368 l 2,696,697
 948 368 948 368 951 368 c 2,698,-1
 1024 368 l 1,699,700
 1024 366 1024 366 1024 364 c 2,701,-1
 1024 359 l 2,702,703
 1024 355 1024 355 1024 351 c 2,704,-1
 1024 344 l 2,705,706
 1024 343 1024 343 1024 341 c 2,707,-1
 1024 339 l 2,708,709
 1024 338 1024 338 1024 337 c 2,710,-1
 1024 335 l 2,711,712
 1024 334 1024 334 1024 333 c 2,713,-1
 1024 331 l 2,714,715
 1024 329 1024 329 1024 328 c 2,716,-1
 1024 304 l 1,717,718
 1023 304 1023 304 1021 304 c 2,719,-1
 1018 304 l 2,720,721
 1017 304 1017 304 1015 304 c 2,722,-1
 1013 304 l 2,723,724
 1012 304 1012 304 1011 304 c 2,725,-1
 1005 304 l 2,726,727
 1004 304 1004 304 1002 304 c 2,728,-1
 1000 304 l 2,729,730
 997 304 997 304 994 304 c 2,731,-1
 991 304 l 2,732,733
 990 304 990 304 989 304 c 2,734,-1
 987 304 l 2,735,736
 985 304 985 304 984 304 c 2,737,-1
 965 304 l 2,738,739
 964 304 l 1,740,-1
 961 304 l 2,741,742
 960 304 l 1,743,744
 960 277 960 277 960 252 c 2,745,-1
 960 236 l 2,746,747
 960 203 960 203 960 174 c 2,748,-1
 960 159 l 2,749,750
 960 152 960 152 960 145 c 2,751,-1
 960 131 l 2,752,753
 960 114 960 114 960 98 c 2,754,-1
 960 79 l 2,755,756
 960 73 960 73 960 67 c 2,757,-1
 960 -46 l 2,758,759
 960 -48 960 -48 960 -50 c 2,760,-1
 960 -57 l 2,761,762
 960 -59 960 -59 960 -61 c 2,763,-1
 960 -80 l 1,764,765
 962 -80 962 -80 964 -80 c 2,766,-1
 969 -80 l 2,767,768
 973 -80 973 -80 977 -80 c 2,769,-1
 984 -80 l 2,770,771
 985 -80 985 -80 987 -80 c 2,772,-1
 989 -80 l 2,773,774
 990 -80 990 -80 991 -80 c 2,775,-1
 993 -80 l 2,776,777
 994 -80 994 -80 995 -80 c 2,778,-1
 997 -80 l 2,779,780
 999 -80 999 -80 1000 -80 c 2,781,-1
 1024 -80 l 1,782,783
 1024 -82 1024 -82 1024 -84 c 2,784,-1
 1024 -89 l 2,785,786
 1024 -93 1024 -93 1024 -97 c 2,787,-1
 1024 -104 l 2,788,789
 1024 -105 1024 -105 1024 -107 c 2,790,-1
 1024 -109 l 2,791,792
 1024 -110 1024 -110 1024 -111 c 2,793,-1
 1024 -113 l 2,794,795
 1024 -114 1024 -114 1024 -115 c 2,796,-1
 1024 -117 l 2,797,798
 1024 -119 1024 -119 1024 -120 c 2,799,-1
 1024 -144 l 1,61,-1
EndSplineSet
EndChar

StartChar: uniE922
Encoding: 59682 59682 36
Width: 1024
VWidth: 880
GlyphClass: 2
Flags: W
LayerCount: 2
Fore
SplineSet
896 816 m 2,0,1
 936 816 936 816 964 788 c 256,2,3
 992 760 992 760 992 720 c 0,4,5
 992 669 992 669 992 620 c 2,6,-1
 992 588 l 2,7,8
 992 523 992 523 992 464 c 2,9,-1
 992 434 l 2,10,11
 992 419 992 419 992 405 c 2,12,-1
 992 376 l 2,13,14
 992 341 992 341 992 307 c 2,15,-1
 992 267 l 2,16,17
 992 254 992 254 992 241 c 2,18,-1
 992 -20 l 2,19,20
 992 -25 992 -25 992 -30 c 2,21,-1
 992 -49 l 2,22,23
 992 -54 992 -54 992 -58 c 2,24,-1
 992 -112 l 2,25,26
 992 -152 992 -152 964 -180 c 256,27,28
 936 -208 936 -208 896 -208 c 0,29,30
 872 -208 872 -208 849 -208 c 2,31,-1
 804 -208 l 2,32,33
 759 -208 759 -208 716 -208 c 2,34,-1
 632 -208 l 2,35,36
 618 -208 618 -208 605 -208 c 2,37,-1
 579 -208 l 2,38,39
 566 -208 566 -208 553 -208 c 2,40,-1
 527 -208 l 2,41,42
 515 -208 515 -208 502 -208 c 2,43,-1
 478 -208 l 2,44,45
 466 -208 466 -208 454 -208 c 2,46,-1
 128 -208 l 2,47,48
 88 -208 88 -208 60 -180 c 256,49,50
 32 -152 32 -152 32 -112 c 2,51,-1
 32 720 l 2,52,53
 32 760 32 760 60 788 c 256,54,55
 88 816 88 816 128 816 c 0,56,57
 181 816 181 816 231 816 c 2,58,-1
 264 816 l 2,59,60
 329 816 329 816 388 816 c 2,61,-1
 418 816 l 2,62,63
 432 816 432 816 446 816 c 2,64,-1
 474 816 l 2,65,66
 508 816 508 816 540 816 c 2,67,-1
 578 816 l 2,68,69
 590 816 590 816 602 816 c 2,70,-1
 828 816 l 2,71,72
 832 816 832 816 835 816 c 2,73,-1
 850 816 l 2,74,75
 854 816 854 816 857 816 c 2,76,-1
 896 816 l 2,0,1
864 -80 m 1,77,78
 864 -45 864 -45 864 -11 c 2,79,-1
 864 150 l 2,80,81
 864 196 864 196 864 238 c 2,82,-1
 864 370 l 2,83,84
 864 382 864 382 864 394 c 2,85,-1
 864 620 l 2,86,87
 864 628 864 628 864 635 c 2,88,-1
 864 688 l 1,89,90
 832 688 832 688 800 688 c 2,91,-1
 653 688 l 2,92,93
 611 688 611 688 572 688 c 2,94,-1
 452 688 l 2,95,96
 440 688 440 688 429 688 c 2,97,-1
 222 688 l 2,98,99
 215 688 215 688 209 688 c 2,100,-1
 160 688 l 1,101,102
 160 661 160 661 160 636 c 2,103,-1
 160 585 l 2,104,105
 160 535 160 535 160 488 c 2,106,-1
 160 398 l 2,107,108
 160 384 160 384 160 370 c 2,109,-1
 160 342 l 2,110,111
 160 328 160 328 160 315 c 2,112,-1
 160 289 l 2,113,114
 160 276 160 276 160 263 c 2,115,-1
 160 238 l 2,116,117
 160 226 160 226 160 214 c 2,118,-1
 160 -80 l 1,119,120
 184 -80 184 -80 208 -80 c 2,121,-1
 254 -80 l 2,122,123
 300 -80 300 -80 343 -80 c 2,124,-1
 425 -80 l 2,125,126
 439 -80 439 -80 452 -80 c 2,127,-1
 477 -80 l 2,128,129
 490 -80 490 -80 502 -80 c 2,130,-1
 526 -80 l 2,131,132
 538 -80 538 -80 550 -80 c 2,133,-1
 572 -80 l 2,134,135
 584 -80 584 -80 595 -80 c 2,136,-1
 864 -80 l 1,77,78
288 496 m 1,137,-1
 459 496 l 2,138,139
 466 496 466 496 474 496 c 2,140,-1
 488 496 l 2,141,142
 499 496 499 496 511 496 c 2,143,-1
 542 496 l 2,144,145
 554 496 554 496 567 496 c 2,146,-1
 584 496 l 2,147,148
 593 496 593 496 602 496 c 2,149,-1
 736 496 l 1,150,-1
 736 492 l 1,151,152
 736 491 l 2,153,-1
 736 472 l 2,154,155
 736 471 736 471 736 469 c 2,156,-1
 736 466 l 2,157,158
 736 465 736 465 736 464 c 2,159,-1
 736 460 l 2,160,161
 736 458 736 458 736 456 c 2,162,-1
 736 454 l 2,163,164
 736 452 736 452 736 451 c 2,165,-1
 736 449 l 2,166,167
 736 445 736 445 736 442 c 2,168,-1
 736 432 l 1,169,-1
 565 432 l 2,170,171
 558 432 558 432 550 432 c 2,172,-1
 536 432 l 2,173,174
 529 432 529 432 521 432 c 2,175,-1
 506 432 l 2,176,177
 498 432 498 432 490 432 c 2,178,-1
 474 432 l 2,179,180
 465 432 465 432 457 432 c 2,181,-1
 404 432 l 2,182,183
 395 432 395 432 386 432 c 2,184,-1
 288 432 l 1,185,-1
 288 456 l 2,186,187
 288 457 288 457 288 459 c 2,188,-1
 288 461 l 2,189,190
 288 462 288 462 288 463 c 2,191,-1
 288 465 l 2,192,193
 288 466 288 466 288 467 c 2,194,-1
 288 469 l 2,195,196
 288 471 288 471 288 472 c 2,197,-1
 288 479 l 2,198,199
 288 483 288 483 288 487 c 2,200,-1
 288 492 l 2,201,202
 288 494 288 494 288 496 c 1,137,-1
288 368 m 1,203,-1
 459 368 l 2,204,205
 466 368 466 368 474 368 c 2,206,-1
 488 368 l 2,207,208
 495 368 495 368 503 368 c 2,209,-1
 518 368 l 2,210,211
 526 368 526 368 534 368 c 2,212,-1
 550 368 l 2,213,214
 559 368 559 368 567 368 c 2,215,-1
 620 368 l 2,216,217
 647 368 647 368 676 368 c 2,218,-1
 705 368 l 2,219,220
 720 368 720 368 736 368 c 1,221,-1
 736 364 l 1,222,223
 736 363 l 2,224,-1
 736 344 l 2,225,226
 736 343 736 343 736 341 c 2,227,-1
 736 338 l 2,228,229
 736 337 736 337 736 336 c 2,230,-1
 736 332 l 2,231,232
 736 330 736 330 736 328 c 2,233,-1
 736 326 l 2,234,235
 736 324 736 324 736 323 c 2,236,-1
 736 321 l 2,237,238
 736 317 736 317 736 314 c 2,239,-1
 736 304 l 1,240,241
 733 304 733 304 729 304 c 2,242,-1
 709 304 l 2,243,244
 705 304 705 304 701 304 c 2,245,-1
 565 304 l 2,246,247
 558 304 558 304 550 304 c 2,248,-1
 536 304 l 2,249,250
 529 304 529 304 521 304 c 2,251,-1
 498 304 l 2,252,253
 478 304 478 304 457 304 c 2,254,-1
 440 304 l 2,255,256
 431 304 431 304 422 304 c 2,257,-1
 377 304 l 2,258,259
 372 304 372 304 367 304 c 2,260,-1
 348 304 l 2,261,262
 338 304 338 304 329 304 c 2,263,-1
 308 304 l 2,264,265
 298 304 298 304 288 304 c 1,266,-1
 288 328 l 2,267,268
 288 329 288 329 288 331 c 2,269,-1
 288 333 l 2,270,271
 288 334 288 334 288 335 c 2,272,-1
 288 337 l 2,273,274
 288 338 288 338 288 339 c 2,275,-1
 288 341 l 2,276,277
 288 343 288 343 288 344 c 2,278,-1
 288 351 l 2,279,280
 288 355 288 355 288 359 c 2,281,-1
 288 364 l 2,282,283
 288 366 288 366 288 368 c 1,203,-1
288 240 m 1,284,-1
 307 240 l 2,285,286
 311 240 311 240 315 240 c 2,287,-1
 459 240 l 2,288,289
 466 240 466 240 474 240 c 2,290,-1
 488 240 l 2,291,292
 495 240 495 240 503 240 c 2,293,-1
 526 240 l 2,294,295
 534 240 534 240 542 240 c 2,296,-1
 584 240 l 2,297,298
 593 240 593 240 602 240 c 2,299,-1
 620 240 l 2,300,301
 642 240 642 240 666 240 c 2,302,-1
 695 240 l 2,303,304
 715 240 715 240 736 240 c 1,305,-1
 736 236 l 1,306,307
 736 235 l 2,308,-1
 736 216 l 2,309,310
 736 215 736 215 736 213 c 2,311,-1
 736 210 l 2,312,313
 736 209 736 209 736 208 c 2,314,-1
 736 204 l 2,315,316
 736 202 736 202 736 200 c 2,317,-1
 736 198 l 2,318,319
 736 196 736 196 736 195 c 2,320,-1
 736 193 l 2,321,322
 736 189 736 189 736 186 c 2,323,-1
 736 176 l 1,324,-1
 565 176 l 2,325,326
 558 176 558 176 550 176 c 2,327,-1
 536 176 l 2,328,329
 525 176 525 176 513 176 c 2,330,-1
 482 176 l 2,331,332
 470 176 470 176 457 176 c 2,333,-1
 440 176 l 2,334,335
 431 176 431 176 422 176 c 2,336,-1
 288 176 l 1,337,-1
 288 200 l 2,338,339
 288 201 288 201 288 203 c 2,340,-1
 288 205 l 2,341,342
 288 206 288 206 288 207 c 2,343,-1
 288 209 l 2,344,345
 288 210 288 210 288 211 c 2,346,-1
 288 213 l 2,347,348
 288 215 288 215 288 216 c 2,349,-1
 288 223 l 2,350,351
 288 227 288 227 288 231 c 2,352,-1
 288 236 l 2,353,354
 288 238 288 238 288 240 c 1,284,-1
288 112 m 1,355,-1
 459 112 l 2,356,357
 466 112 466 112 474 112 c 2,358,-1
 488 112 l 2,359,360
 495 112 495 112 503 112 c 2,361,-1
 518 112 l 2,362,363
 526 112 526 112 534 112 c 2,364,-1
 550 112 l 2,365,366
 559 112 559 112 567 112 c 2,367,-1
 620 112 l 2,368,369
 647 112 647 112 676 112 c 2,370,-1
 705 112 l 2,371,372
 720 112 720 112 736 112 c 1,373,-1
 736 108 l 1,374,375
 736 107 l 2,376,-1
 736 88 l 2,377,378
 736 87 736 87 736 85 c 2,379,-1
 736 82 l 2,380,381
 736 81 736 81 736 80 c 2,382,-1
 736 76 l 2,383,384
 736 74 736 74 736 72 c 2,385,-1
 736 70 l 2,386,387
 736 68 736 68 736 67 c 2,388,-1
 736 65 l 2,389,390
 736 61 736 61 736 58 c 2,391,-1
 736 48 l 1,392,-1
 717 48 l 2,393,394
 713 48 713 48 709 48 c 2,395,-1
 565 48 l 2,396,397
 558 48 558 48 550 48 c 2,398,-1
 536 48 l 2,399,400
 529 48 529 48 521 48 c 2,401,-1
 498 48 l 2,402,403
 490 48 490 48 482 48 c 2,404,-1
 440 48 l 2,405,406
 431 48 431 48 422 48 c 2,407,-1
 404 48 l 2,408,409
 382 48 382 48 358 48 c 2,410,-1
 329 48 l 2,411,412
 309 48 309 48 288 48 c 1,413,-1
 288 72 l 2,414,415
 288 73 288 73 288 75 c 2,416,-1
 288 77 l 2,417,418
 288 78 288 78 288 79 c 2,419,-1
 288 81 l 2,420,421
 288 82 288 82 288 83 c 2,422,-1
 288 85 l 2,423,424
 288 87 288 87 288 88 c 2,425,-1
 288 95 l 2,426,427
 288 99 288 99 288 103 c 2,428,-1
 288 108 l 2,429,430
 288 110 288 110 288 112 c 1,355,-1
EndSplineSet
EndChar

StartChar: uniE923
Encoding: 59683 59683 37
Width: 1024
VWidth: 880
GlyphClass: 2
Flags: W
LayerCount: 2
Fore
SplineSet
896 816 m 2,0,1
 936 816 936 816 964 788 c 256,2,3
 992 760 992 760 992 720 c 0,4,5
 992 669 992 669 992 620 c 2,6,-1
 992 588 l 2,7,8
 992 523 992 523 992 464 c 2,9,-1
 992 434 l 2,10,11
 992 419 992 419 992 405 c 2,12,-1
 992 376 l 2,13,14
 992 341 992 341 992 307 c 2,15,-1
 992 267 l 2,16,17
 992 254 992 254 992 241 c 2,18,-1
 992 -20 l 2,19,20
 992 -25 992 -25 992 -30 c 2,21,-1
 992 -49 l 2,22,23
 992 -54 992 -54 992 -58 c 2,24,-1
 992 -112 l 2,25,26
 992 -152 992 -152 964 -180 c 256,27,28
 936 -208 936 -208 896 -208 c 0,29,30
 872 -208 872 -208 849 -208 c 2,31,-1
 804 -208 l 2,32,33
 759 -208 759 -208 716 -208 c 2,34,-1
 632 -208 l 2,35,36
 618 -208 618 -208 605 -208 c 2,37,-1
 579 -208 l 2,38,39
 566 -208 566 -208 553 -208 c 2,40,-1
 527 -208 l 2,41,42
 515 -208 515 -208 502 -208 c 2,43,-1
 478 -208 l 2,44,45
 466 -208 466 -208 454 -208 c 2,46,-1
 128 -208 l 2,47,48
 88 -208 88 -208 60 -180 c 256,49,50
 32 -152 32 -152 32 -112 c 2,51,-1
 32 720 l 2,52,53
 32 760 32 760 60 788 c 256,54,55
 88 816 88 816 128 816 c 0,56,57
 181 816 181 816 231 816 c 2,58,-1
 264 816 l 2,59,60
 329 816 329 816 388 816 c 2,61,-1
 418 816 l 2,62,63
 432 816 432 816 446 816 c 2,64,-1
 474 816 l 2,65,66
 508 816 508 816 540 816 c 2,67,-1
 578 816 l 2,68,69
 590 816 590 816 602 816 c 2,70,-1
 828 816 l 2,71,72
 832 816 832 816 835 816 c 2,73,-1
 850 816 l 2,74,75
 854 816 854 816 857 816 c 2,76,-1
 896 816 l 2,0,1
864 -80 m 1,77,78
 864 -45 864 -45 864 -11 c 2,79,-1
 864 150 l 2,80,81
 864 196 864 196 864 238 c 2,82,-1
 864 370 l 2,83,84
 864 382 864 382 864 394 c 2,85,-1
 864 620 l 2,86,87
 864 628 864 628 864 635 c 2,88,-1
 864 688 l 1,89,90
 832 688 832 688 800 688 c 2,91,-1
 653 688 l 2,92,93
 611 688 611 688 572 688 c 2,94,-1
 452 688 l 2,95,96
 440 688 440 688 429 688 c 2,97,-1
 222 688 l 2,98,99
 215 688 215 688 209 688 c 2,100,-1
 160 688 l 1,101,102
 160 661 160 661 160 636 c 2,103,-1
 160 585 l 2,104,105
 160 535 160 535 160 488 c 2,106,-1
 160 398 l 2,107,108
 160 384 160 384 160 370 c 2,109,-1
 160 342 l 2,110,111
 160 328 160 328 160 315 c 2,112,-1
 160 289 l 2,113,114
 160 276 160 276 160 263 c 2,115,-1
 160 238 l 2,116,117
 160 226 160 226 160 214 c 2,118,-1
 160 -80 l 1,119,120
 184 -80 184 -80 208 -80 c 2,121,-1
 254 -80 l 2,122,123
 300 -80 300 -80 343 -80 c 2,124,-1
 425 -80 l 2,125,126
 439 -80 439 -80 452 -80 c 2,127,-1
 477 -80 l 2,128,129
 490 -80 490 -80 502 -80 c 2,130,-1
 526 -80 l 2,131,132
 538 -80 538 -80 550 -80 c 2,133,-1
 572 -80 l 2,134,135
 584 -80 584 -80 595 -80 c 2,136,-1
 864 -80 l 1,77,78
352 528 m 256,137,138
 352 568 352 568 380 596 c 256,139,140
 408 624 408 624 448 624 c 256,141,142
 488 624 488 624 516 596 c 256,143,144
 544 568 544 568 544 528 c 256,145,146
 544 488 544 488 516 460 c 256,147,148
 488 432 488 432 448 432 c 256,149,150
 408 432 408 432 380 460 c 256,151,152
 352 488 352 488 352 528 c 256,137,138
512 432 m 2,153,154
 552 432 552 432 580 413 c 256,155,156
 608 394 608 394 608 368 c 2,157,-1
 608 354 l 2,158,159
 608 353 608 353 608 351 c 2,160,-1
 608 344 l 2,161,162
 608 343 608 343 608 341 c 2,163,-1
 608 339 l 2,164,165
 608 338 608 338 608 337 c 2,166,-1
 608 335 l 2,167,168
 608 334 608 334 608 333 c 2,169,-1
 608 331 l 2,170,171
 608 329 608 329 608 328 c 2,172,-1
 608 304 l 1,173,174
 601 304 601 304 593 304 c 2,175,-1
 579 304 l 2,176,177
 572 304 572 304 565 304 c 2,178,-1
 551 304 l 2,179,180
 548 304 548 304 545 304 c 2,181,-1
 512 304 l 2,182,183
 506 304 506 304 500 304 c 2,184,-1
 487 304 l 2,185,186
 472 304 472 304 458 304 c 2,187,-1
 442 304 l 2,188,189
 436 304 436 304 431 304 c 2,190,-1
 421 304 l 2,191,192
 415 304 415 304 410 304 c 2,193,-1
 313 304 l 2,194,195
 310 304 310 304 307 304 c 2,196,-1
 293 304 l 2,197,198
 290 304 290 304 288 304 c 1,199,200
 288 306 288 306 288 308 c 2,201,-1
 288 312 l 2,202,203
 288 316 288 316 288 319 c 2,204,-1
 288 326 l 2,205,206
 288 327 288 327 288 328 c 2,207,-1
 288 331 l 2,208,209
 288 332 288 332 288 333 c 2,210,-1
 288 335 l 2,211,212
 288 336 288 336 288 337 c 2,213,-1
 288 339 l 2,214,215
 288 340 288 340 288 341 c 2,216,-1
 288 368 l 2,217,218
 288 394 288 394 316 413 c 256,219,220
 344 432 344 432 384 432 c 2,221,-1
 412 432 l 2,222,223
 415 432 415 432 417 432 c 2,224,-1
 432 432 l 2,225,226
 435 432 435 432 437 432 c 2,227,-1
 442 432 l 2,228,229
 444 432 444 432 446 432 c 2,230,-1
 451 432 l 2,231,232
 453 432 453 432 455 432 c 2,233,-1
 459 432 l 2,234,235
 461 432 461 432 463 432 c 2,236,-1
 512 432 l 2,153,154
288 240 m 1,237,-1
 307 240 l 2,238,239
 311 240 311 240 315 240 c 2,240,-1
 459 240 l 2,241,242
 466 240 466 240 474 240 c 2,243,-1
 488 240 l 2,244,245
 495 240 495 240 503 240 c 2,246,-1
 526 240 l 2,247,248
 534 240 534 240 542 240 c 2,249,-1
 584 240 l 2,250,251
 593 240 593 240 602 240 c 2,252,-1
 620 240 l 2,253,254
 642 240 642 240 666 240 c 2,255,-1
 695 240 l 2,256,257
 715 240 715 240 736 240 c 1,258,-1
 736 236 l 1,259,260
 736 235 l 2,261,-1
 736 216 l 2,262,263
 736 215 736 215 736 213 c 2,264,-1
 736 210 l 2,265,266
 736 209 736 209 736 208 c 2,267,-1
 736 204 l 2,268,269
 736 202 736 202 736 200 c 2,270,-1
 736 198 l 2,271,272
 736 196 736 196 736 195 c 2,273,-1
 736 193 l 2,274,275
 736 189 736 189 736 186 c 2,276,-1
 736 176 l 1,277,-1
 565 176 l 2,278,279
 558 176 558 176 550 176 c 2,280,-1
 536 176 l 2,281,282
 525 176 525 176 513 176 c 2,283,-1
 482 176 l 2,284,285
 470 176 470 176 457 176 c 2,286,-1
 440 176 l 2,287,288
 431 176 431 176 422 176 c 2,289,-1
 288 176 l 1,290,-1
 288 200 l 2,291,292
 288 201 288 201 288 203 c 2,293,-1
 288 205 l 2,294,295
 288 206 288 206 288 207 c 2,296,-1
 288 209 l 2,297,298
 288 210 288 210 288 211 c 2,299,-1
 288 213 l 2,300,301
 288 215 288 215 288 216 c 2,302,-1
 288 223 l 2,303,304
 288 227 288 227 288 231 c 2,305,-1
 288 236 l 2,306,307
 288 238 288 238 288 240 c 1,237,-1
288 112 m 1,308,-1
 459 112 l 2,309,310
 466 112 466 112 474 112 c 2,311,-1
 488 112 l 2,312,313
 495 112 495 112 503 112 c 2,314,-1
 518 112 l 2,315,316
 526 112 526 112 534 112 c 2,317,-1
 550 112 l 2,318,319
 559 112 559 112 567 112 c 2,320,-1
 620 112 l 2,321,322
 647 112 647 112 676 112 c 2,323,-1
 705 112 l 2,324,325
 720 112 720 112 736 112 c 1,326,-1
 736 108 l 1,327,328
 736 107 l 2,329,-1
 736 88 l 2,330,331
 736 87 736 87 736 85 c 2,332,-1
 736 82 l 2,333,334
 736 81 736 81 736 80 c 2,335,-1
 736 76 l 2,336,337
 736 74 736 74 736 72 c 2,338,-1
 736 70 l 2,339,340
 736 68 736 68 736 67 c 2,341,-1
 736 65 l 2,342,343
 736 61 736 61 736 58 c 2,344,-1
 736 48 l 1,345,-1
 717 48 l 2,346,347
 713 48 713 48 709 48 c 2,348,-1
 565 48 l 2,349,350
 558 48 558 48 550 48 c 2,351,-1
 536 48 l 2,352,353
 529 48 529 48 521 48 c 2,354,-1
 498 48 l 2,355,356
 490 48 490 48 482 48 c 2,357,-1
 440 48 l 2,358,359
 431 48 431 48 422 48 c 2,360,-1
 404 48 l 2,361,362
 382 48 382 48 358 48 c 2,363,-1
 329 48 l 2,364,365
 309 48 309 48 288 48 c 1,366,-1
 288 72 l 2,367,368
 288 73 288 73 288 75 c 2,369,-1
 288 77 l 2,370,371
 288 78 288 78 288 79 c 2,372,-1
 288 81 l 2,373,374
 288 82 288 82 288 83 c 2,375,-1
 288 85 l 2,376,377
 288 87 288 87 288 88 c 2,378,-1
 288 95 l 2,379,380
 288 99 288 99 288 103 c 2,381,-1
 288 108 l 2,382,383
 288 110 288 110 288 112 c 1,308,-1
EndSplineSet
EndChar

StartChar: uniE924
Encoding: 59684 59684 38
Width: 1024
VWidth: 880
GlyphClass: 2
Flags: W
LayerCount: 2
Fore
SplineSet
918 587 m 0,0,1
 946 548 946 548 953 527 c 0,2,3
 960 507 960 507 960 496 c 0,4,5
 960 458 960 458 960 421 c 2,6,-1
 960 397 l 2,7,8
 960 349 960 349 960 304 c 2,9,-1
 960 282 l 2,10,11
 960 271 960 271 960 260 c 2,12,-1
 960 238 l 2,13,14
 960 212 960 212 960 186 c 2,15,-1
 960 156 l 2,16,17
 960 146 960 146 960 137 c 2,18,-1
 960 -59 l 2,19,20
 960 -63 960 -63 960 -66 c 2,21,-1
 960 -81 l 2,22,23
 960 -84 960 -84 960 -88 c 2,24,-1
 960 -128 l 2,25,26
 960 -161 960 -161 937 -185 c 0,27,28
 913 -208 913 -208 880 -208 c 0,29,30
 857 -208 857 -208 835 -208 c 2,31,-1
 791 -208 l 2,32,33
 748 -208 748 -208 707 -208 c 2,34,-1
 627 -208 l 2,35,36
 614 -208 614 -208 601 -208 c 2,37,-1
 576 -208 l 2,38,39
 563 -208 563 -208 551 -208 c 2,40,-1
 527 -208 l 2,41,42
 514 -208 514 -208 503 -208 c 2,43,-1
 479 -208 l 2,44,45
 468 -208 468 -208 456 -208 c 2,46,-1
 144 -208 l 2,47,48
 111 -208 111 -208 87 -185 c 0,49,50
 64 -161 64 -161 64 -128 c 0,51,52
 64 -101 64 -101 64 -75 c 2,53,-1
 64 -24 l 2,54,55
 64 27 64 27 64 75 c 2,56,-1
 64 169 l 2,57,58
 64 184 64 184 64 199 c 2,59,-1
 64 229 l 2,60,61
 64 244 64 244 64 258 c 2,62,-1
 64 287 l 2,63,64
 64 301 64 301 64 315 c 2,65,-1
 64 342 l 2,66,67
 64 356 64 356 64 369 c 2,68,-1
 64 736 l 2,69,70
 64 769 64 769 87 793 c 0,71,72
 111 816 111 816 144 816 c 0,73,74
 175 816 175 816 204 816 c 2,75,-1
 223 816 l 2,76,77
 261 816 261 816 297 816 c 2,78,-1
 315 816 l 2,79,80
 323 816 323 816 332 816 c 2,81,-1
 349 816 l 2,82,83
 370 816 370 816 390 816 c 2,84,-1
 414 816 l 2,85,86
 422 816 422 816 430 816 c 2,87,-1
 585 816 l 2,88,89
 588 816 588 816 591 816 c 2,90,-1
 603 816 l 2,91,92
 605 816 605 816 608 816 c 2,93,-1
 640 816 l 2,94,95
 651 816 651 816 671 809 c 0,96,97
 692 802 692 802 731 774 c 0,98,99
 754 757 754 757 779 734 c 0,100,101
 805 712 805 712 831 687 c 0,102,103
 856 661 856 661 878 635 c 0,104,105
 901 610 901 610 918 587 c 0,0,1
896 -128 m 0,106,107
 896 -114 896 -114 896 -99 c 2,108,-1
 896 -72 l 2,109,110
 896 -58 896 -58 896 -44 c 2,111,-1
 896 -18 l 2,112,113
 896 -11 896 -11 896 -4 c 2,114,-1
 896 59 l 2,115,116
 896 71 896 71 896 83 c 2,117,-1
 896 107 l 2,118,119
 896 137 896 137 896 164 c 2,120,-1
 896 196 l 2,121,122
 896 207 896 207 896 217 c 2,123,-1
 896 238 l 2,124,125
 896 248 896 248 896 257 c 2,126,-1
 896 447 l 2,127,128
 896 453 896 453 896 459 c 2,129,-1
 896 486 l 2,130,131
 896 491 896 491 896 496 c 1,132,-1
 835 496 l 2,133,134
 831 496 831 496 827 496 c 2,135,-1
 819 496 l 2,136,137
 813 496 813 496 807 496 c 2,138,-1
 792 496 l 2,139,140
 787 496 787 496 781 496 c 2,141,-1
 774 496 l 2,142,143
 771 496 771 496 767 496 c 2,144,-1
 672 496 l 2,145,146
 659 496 659 496 650 506 c 0,147,148
 640 515 640 515 640 528 c 2,149,-1
 640 589 l 2,150,151
 640 593 640 593 640 597 c 2,152,-1
 640 605 l 2,153,154
 640 611 640 611 640 617 c 2,155,-1
 640 632 l 2,156,157
 640 637 640 637 640 643 c 2,158,-1
 640 650 l 2,159,160
 640 653 640 653 640 657 c 2,161,-1
 640 752 l 1,162,163
 640 752 l 257,164,165
 639 752 l 1,166,167
 639 752 l 1,168,-1
 636 752 l 1,169,170
 635 752 l 2,171,-1
 634 752 l 2,172,173
 632 752 632 752 630 752 c 2,174,-1
 628 752 l 2,175,176
 627 752 627 752 626 752 c 2,177,-1
 623 752 l 2,178,179
 622 752 622 752 621 752 c 2,180,-1
 582 752 l 2,181,182
 580 752 580 752 578 752 c 2,183,-1
 567 752 l 2,184,185
 564 752 564 752 562 752 c 256,186,187
 560 752 560 752 557 752 c 2,188,-1
 552 752 l 2,189,190
 550 752 550 752 548 752 c 2,191,-1
 543 752 l 2,192,193
 542 752 542 752 540 752 c 2,194,-1
 528 752 l 2,195,196
 526 752 526 752 523 752 c 2,197,-1
 518 752 l 2,198,199
 512 752 512 752 506 752 c 2,200,-1
 498 752 l 2,201,202
 495 752 495 752 493 752 c 2,203,-1
 488 752 l 2,204,205
 485 752 485 752 482 752 c 2,206,-1
 417 752 l 2,207,208
 415 752 415 752 412 752 c 2,209,-1
 398 752 l 2,210,211
 395 752 395 752 392 752 c 256,212,213
 389 752 389 752 386 752 c 2,214,-1
 381 752 l 2,215,216
 378 752 378 752 375 752 c 2,217,-1
 369 752 l 2,218,219
 368 752 368 752 367 752 c 2,220,-1
 353 752 l 2,221,222
 350 752 350 752 347 752 c 2,223,-1
 342 752 l 2,224,225
 335 752 335 752 328 752 c 2,226,-1
 320 752 l 2,227,228
 317 752 317 752 315 752 c 2,229,-1
 309 752 l 2,230,231
 307 752 307 752 304 752 c 2,232,-1
 243 752 l 2,233,234
 240 752 240 752 238 752 c 2,235,-1
 226 752 l 2,236,237
 223 752 223 752 221 752 c 256,238,239
 219 752 219 752 216 752 c 2,240,-1
 212 752 l 2,241,242
 210 752 210 752 207 752 c 2,243,-1
 203 752 l 2,244,245
 202 752 202 752 201 752 c 2,246,-1
 191 752 l 2,247,248
 190 752 190 752 188 752 c 2,249,-1
 184 752 l 2,250,251
 180 752 180 752 176 752 c 2,252,-1
 172 752 l 2,253,254
 170 752 170 752 169 752 c 2,255,-1
 166 752 l 2,256,257
 165 752 165 752 164 752 c 2,258,-1
 145 752 l 1,259,260
 145 752 l 1,261,-1
 144 752 l 1,262,263
 144 752 l 1,264,265
 137 752 137 752 133 747 c 0,266,267
 128 743 128 743 128 736 c 0,268,269
 128 709 128 709 128 683 c 2,270,-1
 128 632 l 2,271,272
 128 581 128 581 128 533 c 2,273,-1
 128 439 l 2,274,275
 128 424 128 424 128 409 c 2,276,-1
 128 379 l 2,277,278
 128 364 128 364 128 350 c 2,279,-1
 128 321 l 2,280,281
 128 307 128 307 128 293 c 2,282,-1
 128 266 l 2,283,284
 128 252 128 252 128 239 c 2,285,-1
 128 -128 l 2,286,287
 128 -135 128 -135 133 -139 c 0,288,289
 137 -144 137 -144 144 -144 c 2,290,-1
 880 -144 l 2,291,292
 887 -144 887 -144 891 -139 c 0,293,294
 896 -135 896 -135 896 -128 c 0,106,107
785 641 m 256,295,296
 762 664 762 664 742 682 c 0,297,298
 721 701 721 701 704 714 c 1,299,-1
 704 690 l 2,300,301
 704 682 704 682 704 674 c 2,302,-1
 704 668 l 2,303,304
 704 665 704 665 704 662 c 2,305,-1
 704 656 l 2,306,307
 704 651 704 651 704 647 c 2,308,-1
 704 636 l 2,309,310
 704 634 704 634 704 631 c 2,311,-1
 704 624 l 2,312,313
 704 621 704 621 704 619 c 2,314,-1
 704 572 l 2,315,316
 704 571 704 571 704 569 c 2,317,-1
 704 560 l 1,318,-1
 726 560 l 2,319,320
 733 560 733 560 740 560 c 2,321,-1
 746 560 l 2,322,323
 749 560 749 560 752 560 c 2,324,-1
 757 560 l 2,325,326
 761 560 761 560 765 560 c 2,327,-1
 776 560 l 2,328,329
 778 560 778 560 781 560 c 2,330,-1
 788 560 l 2,331,332
 790 560 790 560 793 560 c 2,333,-1
 843 560 l 2,334,335
 845 560 845 560 846 560 c 2,336,-1
 858 560 l 1,337,338
 845 577 845 577 826 598 c 0,339,340
 808 618 808 618 785 641 c 256,295,296
918 587 m 257,341,342
 918 587 l 257,343,344
 918 587 l 257,345,346
 918 587 l 257,341,342
EndSplineSet
EndChar

StartChar: uniE925
Encoding: 59685 59685 39
Width: 1024
VWidth: 880
GlyphClass: 2
Flags: W
LayerCount: 2
Fore
SplineSet
603 774 m 1,0,1
 604 774 l 1,2,-1
 604 773 l 1,3,4
 605 773 l 1,5,-1
 605 772 l 1,6,7
 605 772 l 1,8,-1
 606 772 l 1,9,10
 606 772 l 1,11,-1
 607 771 l 1,12,13
 608 771 l 1,14,-1
 608 770 l 1,15,16
 608 770 l 1,17,-1
 609 770 l 1,18,19
 609 770 l 1,20,-1
 610 769 l 1,21,22
 610 769 l 1,23,-1
 611 768 l 1,24,25
 611 768 l 1,26,27
 612 768 l 1,28,-1
 612 767 l 1,29,30
 613 767 l 1,31,-1
 614 766 l 1,32,33
 614 766 l 1,34,35
 615 766 l 1,36,-1
 615 765 l 1,37,38
 616 765 l 1,39,-1
 616 764 l 1,40,41
 617 764 l 2,42,43
 618 763 l 2,44,45
 619 763 l 1,46,-1
 619 762 l 1,47,48
 619 762 l 1,49,-1
 620 762 l 1,50,51
 620 761 l 1,52,-1
 621 761 l 1,53,54
 621 760 621 760 622 760 c 0,55,56
 623 759 l 1,57,-1
 624 758 l 1,58,59
 624 758 l 1,60,-1
 625 757 l 1,61,62
 625 757 l 1,63,64
 626 757 626 757 626 756 c 1,65,66
 627 756 627 756 627 755 c 1,67,-1
 628 755 l 1,68,69
 628 755 l 1,70,-1
 628 754 l 1,71,72
 629 754 l 1,73,-1
 629 753 l 1,74,75
 630 753 l 1,76,77
 630 752 630 752 631 752 c 1,78,79
 621 752 621 752 611 752 c 2,80,-1
 592 752 l 2,81,82
 582 752 582 752 572 752 c 2,83,-1
 553 752 l 2,84,85
 549 752 549 752 544 752 c 2,86,-1
 499 752 l 2,87,88
 490 752 490 752 481 752 c 2,89,-1
 463 752 l 2,90,91
 442 752 442 752 421 752 c 2,92,-1
 397 752 l 2,93,94
 389 752 389 752 381 752 c 2,95,-1
 366 752 l 2,96,97
 358 752 358 752 351 752 c 2,98,-1
 192 752 l 2,99,100
 186 752 186 752 181 752 c 2,101,-1
 154 752 l 2,102,103
 149 752 149 752 144 752 c 0,104,105
 137 752 137 752 133 747 c 0,106,107
 128 743 128 743 128 736 c 0,108,109
 128 711 128 711 128 686 c 2,110,-1
 128 638 l 2,111,112
 128 590 128 590 128 545 c 2,113,-1
 128 456 l 2,114,115
 128 442 128 442 128 428 c 2,116,-1
 128 400 l 2,117,118
 128 386 128 386 128 372 c 2,119,-1
 128 345 l 2,120,121
 128 332 128 332 128 319 c 2,122,-1
 128 293 l 2,123,124
 128 280 128 280 128 267 c 2,125,-1
 128 -78 l 1,126,127
 101 -73 101 -73 82 -51 c 0,128,129
 64 -29 64 -29 64 0 c 0,130,131
 64 23 64 23 64 45 c 2,132,-1
 64 89 l 2,133,134
 64 132 64 132 64 173 c 2,135,-1
 64 253 l 2,136,137
 64 266 64 266 64 279 c 2,138,-1
 64 304 l 2,139,140
 64 317 64 317 64 329 c 2,141,-1
 64 353 l 2,142,143
 64 366 64 366 64 377 c 2,144,-1
 64 401 l 2,145,146
 64 412 64 412 64 424 c 2,147,-1
 64 736 l 2,148,149
 64 769 64 769 87 793 c 0,150,151
 111 816 111 816 144 816 c 0,152,153
 167 816 167 816 188 816 c 2,154,-1
 202 816 l 2,155,156
 231 816 231 816 257 816 c 2,157,-1
 270 816 l 2,158,159
 277 816 277 816 283 816 c 2,160,-1
 296 816 l 2,161,162
 312 816 312 816 326 816 c 2,163,-1
 344 816 l 2,164,165
 350 816 350 816 356 816 c 2,166,-1
 471 816 l 2,167,168
 473 816 473 816 476 816 c 2,169,-1
 484 816 l 2,170,171
 486 816 486 816 488 816 c 2,172,-1
 512 816 l 2,173,174
 523 816 523 816 543 809 c 0,175,176
 564 802 564 802 603 774 c 1,0,1
918 459 m 0,177,178
 946 420 946 420 953 399 c 0,179,180
 960 379 960 379 960 368 c 0,181,182
 960 337 960 337 960 308 c 2,183,-1
 960 289 l 2,184,185
 960 251 960 251 960 215 c 2,186,-1
 960 197 l 2,187,188
 960 189 960 189 960 180 c 2,189,-1
 960 163 l 2,190,191
 960 142 960 142 960 122 c 2,192,-1
 960 98 l 2,193,194
 960 90 960 90 960 82 c 2,195,-1
 960 -73 l 2,196,197
 960 -76 960 -76 960 -79 c 2,198,-1
 960 -91 l 2,199,200
 960 -93 960 -93 960 -96 c 2,201,-1
 960 -128 l 2,202,203
 960 -161 960 -161 937 -185 c 0,204,205
 913 -208 913 -208 880 -208 c 0,206,207
 861 -208 861 -208 843 -208 c 2,208,-1
 807 -208 l 2,209,210
 771 -208 771 -208 737 -208 c 2,211,-1
 671 -208 l 2,212,213
 660 -208 660 -208 650 -208 c 2,214,-1
 629 -208 l 2,215,216
 619 -208 619 -208 608 -208 c 2,217,-1
 588 -208 l 2,218,219
 578 -208 578 -208 569 -208 c 2,220,-1
 549 -208 l 2,221,222
 540 -208 540 -208 530 -208 c 2,223,-1
 272 -208 l 2,224,225
 239 -208 239 -208 215 -185 c 0,226,227
 192 -161 192 -161 192 -128 c 0,228,229
 192 -98 192 -98 192 -69 c 2,230,-1
 192 -25 l 2,231,232
 192 11 192 11 192 45 c 2,233,-1
 192 72 l 2,234,235
 192 86 192 86 192 99 c 2,236,-1
 192 164 l 2,237,238
 192 176 192 176 192 189 c 2,239,-1
 192 225 l 2,240,241
 192 238 192 238 192 249 c 2,242,-1
 192 273 l 2,243,244
 192 284 192 284 192 296 c 2,245,-1
 192 552 l 2,246,247
 192 561 192 561 192 569 c 2,248,-1
 192 608 l 2,249,250
 192 641 192 641 215 665 c 0,251,252
 239 688 239 688 272 688 c 0,253,254
 287 688 287 688 302 688 c 2,255,-1
 372 688 l 2,256,257
 392 688 392 688 411 688 c 2,258,-1
 472 688 l 2,259,260
 478 688 478 688 484 688 c 2,261,-1
 599 688 l 2,262,263
 604 688 604 688 608 688 c 2,264,-1
 640 688 l 2,265,266
 651 688 651 688 671 681 c 0,267,268
 692 674 692 674 731 646 c 0,269,270
 754 629 754 629 779 606 c 0,271,272
 805 584 805 584 831 559 c 0,273,274
 856 533 856 533 878 507 c 0,275,276
 901 482 901 482 918 459 c 0,177,178
896 -128 m 0,277,278
 896 -117 896 -117 896 -105 c 2,279,-1
 896 -83 l 2,280,281
 896 -72 896 -72 896 -61 c 2,282,-1
 896 -40 l 2,283,284
 896 -35 896 -35 896 -30 c 2,285,-1
 896 21 l 2,286,287
 896 31 896 31 896 40 c 2,288,-1
 896 59 l 2,289,290
 896 82 896 82 896 104 c 2,291,-1
 896 130 l 2,292,293
 896 138 896 138 896 146 c 2,294,-1
 896 163 l 2,295,296
 896 170 896 170 896 178 c 2,297,-1
 896 329 l 2,298,299
 896 334 896 334 896 338 c 2,300,-1
 896 360 l 2,301,302
 896 364 896 364 896 368 c 1,303,304
 889 368 889 368 882 368 c 2,305,-1
 869 368 l 2,306,307
 856 368 856 368 844 368 c 2,308,-1
 819 368 l 2,309,310
 815 368 815 368 811 368 c 2,311,-1
 804 368 l 2,312,313
 800 368 800 368 796 368 c 2,314,-1
 789 368 l 2,315,316
 785 368 785 368 781 368 c 2,317,-1
 774 368 l 2,318,319
 771 368 771 368 767 368 c 2,320,-1
 672 368 l 2,321,322
 659 368 659 368 650 378 c 0,323,324
 640 387 640 387 640 400 c 2,325,-1
 640 461 l 2,326,327
 640 465 640 465 640 469 c 2,328,-1
 640 477 l 2,329,330
 640 483 640 483 640 489 c 2,331,-1
 640 504 l 2,332,333
 640 509 640 509 640 515 c 2,334,-1
 640 522 l 2,335,336
 640 525 640 525 640 529 c 2,337,-1
 640 624 l 1,338,339
 639 624 l 2,340,341
 638 624 l 2,342,-1
 637 624 l 1,343,344
 636 624 l 2,345,-1
 634 624 l 2,346,347
 633 624 l 1,348,-1
 631 624 l 2,349,350
 630 624 630 624 629 624 c 2,351,-1
 628 624 l 2,352,353
 627 624 627 624 626 624 c 2,354,-1
 594 624 l 2,355,356
 592 624 592 624 591 624 c 2,357,-1
 580 624 l 2,358,359
 578 624 578 624 575 624 c 2,360,-1
 570 624 l 2,361,362
 565 624 565 624 561 624 c 2,363,-1
 557 624 l 2,364,365
 555 624 555 624 553 624 c 2,366,-1
 544 624 l 2,367,368
 542 624 542 624 540 624 c 2,369,-1
 534 624 l 2,370,371
 533 624 533 624 531 624 c 2,372,-1
 527 624 l 2,373,374
 525 624 525 624 523 624 c 2,375,-1
 471 624 l 2,376,377
 469 624 469 624 467 624 c 2,378,-1
 454 624 l 2,379,380
 451 624 451 624 448 624 c 2,381,-1
 441 624 l 2,382,383
 436 624 436 624 431 624 c 2,384,-1
 427 624 l 2,385,386
 425 624 425 624 423 624 c 2,387,-1
 413 624 l 2,388,389
 411 624 411 624 409 624 c 2,390,-1
 403 624 l 2,391,392
 401 624 401 624 399 624 c 2,393,-1
 395 624 l 2,394,395
 393 624 393 624 391 624 c 2,396,-1
 342 624 l 2,397,398
 340 624 340 624 338 624 c 2,399,-1
 327 624 l 2,400,401
 325 624 325 624 322 624 c 2,402,-1
 317 624 l 2,403,404
 313 624 313 624 310 624 c 2,405,-1
 307 624 l 2,406,407
 306 624 306 624 304 624 c 2,408,-1
 298 624 l 2,409,410
 297 624 297 624 296 624 c 2,411,-1
 293 624 l 2,412,413
 291 624 291 624 290 624 c 2,414,-1
 289 624 l 2,415,416
 288 624 288 624 287 624 c 2,417,-1
 273 624 l 2,418,419
 272 624 l 2,420,421
 265 624 265 624 261 619 c 0,422,423
 256 615 256 615 256 608 c 0,424,425
 256 585 256 585 256 563 c 2,426,-1
 256 519 l 2,427,428
 256 476 256 476 256 435 c 2,429,-1
 256 355 l 2,430,431
 256 342 256 342 256 329 c 2,432,-1
 256 304 l 2,433,434
 256 291 256 291 256 279 c 2,435,-1
 256 255 l 2,436,437
 256 242 256 242 256 231 c 2,438,-1
 256 207 l 2,439,440
 256 196 256 196 256 184 c 2,441,-1
 256 -128 l 2,442,443
 256 -135 256 -135 261 -139 c 0,444,445
 265 -144 265 -144 272 -144 c 2,446,-1
 880 -144 l 2,447,448
 887 -144 887 -144 891 -139 c 0,449,450
 896 -135 896 -135 896 -128 c 0,277,278
785 513 m 256,451,452
 762 536 762 536 742 554 c 0,453,454
 721 573 721 573 704 586 c 1,455,-1
 704 562 l 2,456,457
 704 554 704 554 704 546 c 2,458,-1
 704 540 l 2,459,460
 704 537 704 537 704 534 c 2,461,-1
 704 528 l 2,462,463
 704 523 704 523 704 519 c 2,464,-1
 704 508 l 2,465,466
 704 506 704 506 704 503 c 2,467,-1
 704 496 l 2,468,469
 704 493 704 493 704 491 c 2,470,-1
 704 444 l 2,471,472
 704 443 704 443 704 441 c 2,473,-1
 704 432 l 1,474,-1
 734 432 l 2,475,476
 737 432 737 432 740 432 c 2,477,-1
 757 432 l 2,478,479
 760 432 760 432 762 432 c 2,480,-1
 768 432 l 2,481,482
 770 432 770 432 773 432 c 2,483,-1
 778 432 l 2,484,485
 781 432 781 432 783 432 c 2,486,-1
 788 432 l 2,487,488
 790 432 790 432 793 432 c 2,489,-1
 858 432 l 1,490,491
 845 449 845 449 826 470 c 0,492,493
 808 490 808 490 785 513 c 256,451,452
785 513 m 257,494,495
 785 513 l 257,496,497
 785 513 l 257,498,499
 785 513 l 257,494,495
EndSplineSet
EndChar

